M48
; DRILL file {KiCad 9.0.2} date 2025-07-07T19:49:18-0400
; FORMAT={-:-/ absolute / metric / decimal}
; #@! TF.CreationDate,2025-07-07T19:49:18-04:00
; #@! TF.GenerationSoftware,Kicad,Pcbnew,9.0.2
; #@! TF.FileFunction,Plated,1,4,PTH
FMAT,2
METRIC
; #@! TA.AperFunction,Plated,PTH,ViaDrill
T1C0.300
; #@! TA.AperFunction,Plated,PTH,ComponentDrill
T2C1.000
; #@! TA.AperFunction,Plated,PTH,ComponentDrill
T3C1.500
; #@! TA.AperFunction,Plated,PTH,ComponentDrill
T4C1.700
; #@! TA.AperFunction,Plated,PTH,ComponentDrill
T5C3.264
%
G90
G05
T1
X43.18Y-76.2
X50.8Y-40.64
X55.88Y-40.64
X56.769Y-60.579
X56.896Y-43.053
X58.42Y-78.74
X59.944Y-68.326
X60.96Y-40.64
X61.849Y-58.42
X61.976Y-76.2
X62.23Y-78.74
X63.373Y-75.184
X64.135Y-44.069
X64.135Y-61.595
X64.135Y-63.627
X64.262Y-45.974
X65.96Y-79.97
X66.04Y-40.64
X67.691Y-77.089
X71.12Y-40.64
X73.66Y-58.42
X74.041Y-73.51
X75.311Y-74.295
X76.2Y-40.64
X77.089Y-75.311
X78.74Y-58.42
X80.899Y-82.169
X81.28Y-40.64
X86.36Y-40.64
X91.44Y-40.64
X91.44Y-77.47
X92.456Y-43.18
X92.456Y-60.833
X93.98Y-77.47
X96.52Y-40.64
X96.52Y-77.47
X97.536Y-58.42
X97.536Y-76.454
X99.822Y-44.069
X99.822Y-45.974
X99.822Y-61.722
X99.822Y-63.754
X101.6Y-40.64
X111.76Y-50.8
X111.76Y-55.88
X111.76Y-60.96
X111.76Y-73.66
T2
X71.12Y-77.475
X71.12Y-80.015
X73.66Y-77.475
X73.66Y-80.015
X76.2Y-77.475
X76.2Y-80.015
X78.74Y-77.475
X78.74Y-80.015
X81.28Y-77.475
X81.28Y-80.015
X83.82Y-77.475
X83.82Y-80.015
T3
X50.8Y-50.8
X50.8Y-68.58
X68.58Y-50.8
X68.58Y-68.58
X86.36Y-50.8
X86.36Y-68.58
X104.14Y-50.8
X104.14Y-68.58
T4
X48.26Y-48.26
X48.26Y-53.34
X48.26Y-66.04
X48.26Y-71.12
X53.34Y-48.26
X53.34Y-53.34
X53.34Y-66.04
X53.34Y-71.12
X66.04Y-48.26
X66.04Y-53.34
X66.04Y-66.04
X66.04Y-71.12
X71.12Y-48.26
X71.12Y-53.34
X71.12Y-66.04
X71.12Y-71.12
X83.82Y-48.26
X83.82Y-53.34
X83.82Y-66.04
X83.82Y-71.12
X88.9Y-48.26
X88.9Y-53.34
X88.9Y-66.04
X88.9Y-71.12
X101.6Y-48.26
X101.6Y-53.34
X101.6Y-66.04
X101.6Y-71.12
X106.68Y-48.26
X106.68Y-53.34
X106.68Y-66.04
X106.68Y-71.12
T5
X43.942Y-41.402
X43.942Y-80.518
X110.998Y-41.402
X110.998Y-80.518
M30
