%TF.GenerationSoftware,KiCad,Pcbnew,9.0.0*%
%TF.CreationDate,2025-07-11T15:31:56-04:00*%
%TF.ProjectId,PMOD_buffer,504d4f44-5f62-4756-9666-65722e6b6963,v1.0*%
%TF.SameCoordinates,Original*%
%TF.FileFunction,Copper,L4,Bot*%
%TF.FilePolarity,Positive*%
%FSLAX46Y46*%
G04 Gerber Fmt 4.6, Leading zero omitted, Abs format (unit mm)*
G04 Created by KiCad (PCBNEW 9.0.0) date 2025-07-11 15:31:56*
%MOMM*%
%LPD*%
G01*
G04 APERTURE LIST*
G04 Aperture macros list*
%AMRoundRect*
0 Rectangle with rounded corners*
0 $1 Rounding radius*
0 $2 $3 $4 $5 $6 $7 $8 $9 X,Y pos of 4 corners*
0 Add a 4 corners polygon primitive as box body*
4,1,4,$2,$3,$4,$5,$6,$7,$8,$9,$2,$3,0*
0 Add four circle primitives for the rounded corners*
1,1,$1+$1,$2,$3*
1,1,$1+$1,$4,$5*
1,1,$1+$1,$6,$7*
1,1,$1+$1,$8,$9*
0 Add four rect primitives between the rounded corners*
20,1,$1+$1,$2,$3,$4,$5,0*
20,1,$1+$1,$4,$5,$6,$7,0*
20,1,$1+$1,$6,$7,$8,$9,0*
20,1,$1+$1,$8,$9,$2,$3,0*%
G04 Aperture macros list end*
%TA.AperFunction,ComponentPad*%
%ADD10C,2.050000*%
%TD*%
%TA.AperFunction,ComponentPad*%
%ADD11C,2.250000*%
%TD*%
%TA.AperFunction,ComponentPad*%
%ADD12C,5.562600*%
%TD*%
%TA.AperFunction,SMDPad,CuDef*%
%ADD13RoundRect,0.250000X0.450000X-0.262500X0.450000X0.262500X-0.450000X0.262500X-0.450000X-0.262500X0*%
%TD*%
%TA.AperFunction,SMDPad,CuDef*%
%ADD14RoundRect,0.100000X0.100000X-0.637500X0.100000X0.637500X-0.100000X0.637500X-0.100000X-0.637500X0*%
%TD*%
%TA.AperFunction,SMDPad,CuDef*%
%ADD15RoundRect,0.250000X-0.450000X0.262500X-0.450000X-0.262500X0.450000X-0.262500X0.450000X0.262500X0*%
%TD*%
%TA.AperFunction,SMDPad,CuDef*%
%ADD16RoundRect,0.250000X0.475000X-0.250000X0.475000X0.250000X-0.475000X0.250000X-0.475000X-0.250000X0*%
%TD*%
%TA.AperFunction,ComponentPad*%
%ADD17R,1.700000X1.700000*%
%TD*%
%TA.AperFunction,ComponentPad*%
%ADD18O,1.700000X1.700000*%
%TD*%
%TA.AperFunction,ViaPad*%
%ADD19C,0.600000*%
%TD*%
%TA.AperFunction,Conductor*%
%ADD20C,0.254000*%
%TD*%
%TA.AperFunction,Conductor*%
%ADD21C,0.635000*%
%TD*%
%TA.AperFunction,Conductor*%
%ADD22C,1.270000*%
%TD*%
%TA.AperFunction,Conductor*%
%ADD23C,0.200000*%
%TD*%
G04 APERTURE END LIST*
D10*
%TO.P,J6,1,In*%
%TO.N,CH5_ja_5*%
X68580000Y-68580000D03*
D11*
%TO.P,J6,2,Ext*%
%TO.N,GND*%
X66040000Y-66040000D03*
X66040000Y-71120000D03*
X71120000Y-66040000D03*
X71120000Y-71120000D03*
%TD*%
D10*
%TO.P,J2,1,In*%
%TO.N,CH1_ja_1*%
X68580000Y-50800000D03*
D11*
%TO.P,J2,2,Ext*%
%TO.N,GND*%
X66040000Y-48260000D03*
X66040000Y-53340000D03*
X71120000Y-48260000D03*
X71120000Y-53340000D03*
%TD*%
D12*
%TO.P,H3,1,1*%
%TO.N,GND*%
X110998000Y-80518000D03*
%TD*%
%TO.P,H4,1,1*%
%TO.N,GND*%
X110998000Y-41402000D03*
%TD*%
%TO.P,H2,1,1*%
%TO.N,GND*%
X43942000Y-80518000D03*
%TD*%
D10*
%TO.P,J3,1,In*%
%TO.N,CH2_ja_2*%
X86360000Y-50800000D03*
D11*
%TO.P,J3,2,Ext*%
%TO.N,GND*%
X83820000Y-48260000D03*
X83820000Y-53340000D03*
X88900000Y-48260000D03*
X88900000Y-53340000D03*
%TD*%
D10*
%TO.P,J7,1,In*%
%TO.N,CH6_ja_6*%
X86360000Y-68580000D03*
D11*
%TO.P,J7,2,Ext*%
%TO.N,GND*%
X83820000Y-66040000D03*
X83820000Y-71120000D03*
X88900000Y-66040000D03*
X88900000Y-71120000D03*
%TD*%
D10*
%TO.P,J8,1,In*%
%TO.N,CH7_ja_7*%
X104140000Y-68580000D03*
D11*
%TO.P,J8,2,Ext*%
%TO.N,GND*%
X101600000Y-66040000D03*
X101600000Y-71120000D03*
X106680000Y-66040000D03*
X106680000Y-71120000D03*
%TD*%
D10*
%TO.P,J1,1,In*%
%TO.N,CH0_ja_0*%
X50800000Y-50800000D03*
D11*
%TO.P,J1,2,Ext*%
%TO.N,GND*%
X48260000Y-48260000D03*
X48260000Y-53340000D03*
X53340000Y-48260000D03*
X53340000Y-53340000D03*
%TD*%
D12*
%TO.P,H1,1,1*%
%TO.N,GND*%
X43942000Y-41402000D03*
%TD*%
D10*
%TO.P,J4,1,In*%
%TO.N,CH3_ja_3*%
X104140000Y-50800000D03*
D11*
%TO.P,J4,2,Ext*%
%TO.N,GND*%
X101600000Y-48260000D03*
X101600000Y-53340000D03*
X106680000Y-48260000D03*
X106680000Y-53340000D03*
%TD*%
D10*
%TO.P,J5,1,In*%
%TO.N,CH4_ja_4*%
X50800000Y-68580000D03*
D11*
%TO.P,J5,2,Ext*%
%TO.N,GND*%
X48260000Y-66040000D03*
X48260000Y-71120000D03*
X53340000Y-66040000D03*
X53340000Y-71120000D03*
%TD*%
D13*
%TO.P,R22,1*%
%TO.N,Net-(R22-Pad1)*%
X96520000Y-63650500D03*
%TO.P,R22,2*%
%TO.N,CH7_ja_7*%
X96520000Y-61825500D03*
%TD*%
D14*
%TO.P,U2,1*%
%TO.N,PMOD_ja_3*%
X97454000Y-53662500D03*
%TO.P,U2,2*%
%TO.N,Net-(U2-Pad2)*%
X96804000Y-53662500D03*
%TO.P,U2,3*%
X96154000Y-53662500D03*
%TO.P,U2,4*%
%TO.N,Net-(R11-Pad1)*%
X95504000Y-53662500D03*
%TO.P,U2,5*%
%TO.N,Net-(U2-Pad2)*%
X94854000Y-53662500D03*
%TO.P,U2,6*%
%TO.N,Net-(R12-Pad1)*%
X94204000Y-53662500D03*
%TO.P,U2,7,GND*%
%TO.N,GND*%
X93554000Y-53662500D03*
%TO.P,U2,8*%
%TO.N,Net-(U2-Pad11)*%
X93554000Y-47937500D03*
%TO.P,U2,9*%
%TO.N,PMOD_ja_4*%
X94204000Y-47937500D03*
%TO.P,U2,10*%
%TO.N,Net-(R9-Pad1)*%
X94854000Y-47937500D03*
%TO.P,U2,11*%
%TO.N,Net-(U2-Pad11)*%
X95504000Y-47937500D03*
%TO.P,U2,12*%
%TO.N,Net-(R10-Pad1)*%
X96154000Y-47937500D03*
%TO.P,U2,13*%
%TO.N,Net-(U2-Pad11)*%
X96804000Y-47937500D03*
%TO.P,U2,14,VCC*%
%TO.N,+3.3V*%
X97454000Y-47937500D03*
%TD*%
D15*
%TO.P,R12,1*%
%TO.N,Net-(R12-Pad1)*%
X93472000Y-55729500D03*
%TO.P,R12,2*%
%TO.N,CH2_ja_2*%
X93472000Y-57554500D03*
%TD*%
D13*
%TO.P,R20,1*%
%TO.N,PMOD_ja_10*%
X92456000Y-63650500D03*
%TO.P,R20,2*%
%TO.N,GND*%
X92456000Y-61825500D03*
%TD*%
%TO.P,R1,1*%
%TO.N,PMOD_ja_2*%
X56840150Y-45870500D03*
%TO.P,R1,2*%
%TO.N,GND*%
X56840150Y-44045500D03*
%TD*%
D16*
%TO.P,C2,1*%
%TO.N,+3.3V*%
X98552000Y-45908000D03*
%TO.P,C2,2*%
%TO.N,GND*%
X98552000Y-44008000D03*
%TD*%
D13*
%TO.P,R14,1*%
%TO.N,PMOD_ja_8*%
X56769000Y-63396500D03*
%TO.P,R14,2*%
%TO.N,GND*%
X56769000Y-61571500D03*
%TD*%
D15*
%TO.P,R11,1*%
%TO.N,Net-(R11-Pad1)*%
X95504000Y-55729500D03*
%TO.P,R11,2*%
%TO.N,CH2_ja_2*%
X95504000Y-57554500D03*
%TD*%
D14*
%TO.P,U1,1*%
%TO.N,PMOD_ja_1*%
X61838150Y-53662500D03*
%TO.P,U1,2*%
%TO.N,Net-(U1-Pad2)*%
X61188150Y-53662500D03*
%TO.P,U1,3*%
X60538150Y-53662500D03*
%TO.P,U1,4*%
%TO.N,Net-(R6-Pad1)*%
X59888150Y-53662500D03*
%TO.P,U1,5*%
%TO.N,Net-(U1-Pad2)*%
X59238150Y-53662500D03*
%TO.P,U1,6*%
%TO.N,Net-(R5-Pad1)*%
X58588150Y-53662500D03*
%TO.P,U1,7,GND*%
%TO.N,GND*%
X57938150Y-53662500D03*
%TO.P,U1,8*%
%TO.N,Net-(U1-Pad11)*%
X57938150Y-47937500D03*
%TO.P,U1,9*%
%TO.N,PMOD_ja_2*%
X58588150Y-47937500D03*
%TO.P,U1,10*%
%TO.N,Net-(R4-Pad1)*%
X59238150Y-47937500D03*
%TO.P,U1,11*%
%TO.N,Net-(U1-Pad11)*%
X59888150Y-47937500D03*
%TO.P,U1,12*%
%TO.N,Net-(R3-Pad1)*%
X60538150Y-47937500D03*
%TO.P,U1,13*%
%TO.N,Net-(U1-Pad11)*%
X61188150Y-47937500D03*
%TO.P,U1,14,VCC*%
%TO.N,+3.3V*%
X61838150Y-47937500D03*
%TD*%
D16*
%TO.P,C5,1*%
%TO.N,+3.3V*%
X67692000Y-79922500D03*
%TO.P,C5,2*%
%TO.N,GND*%
X67692000Y-78022500D03*
%TD*%
D15*
%TO.P,R23,1*%
%TO.N,Net-(R23-Pad1)*%
X95504000Y-73509500D03*
%TO.P,R23,2*%
%TO.N,CH6_ja_6*%
X95504000Y-75334500D03*
%TD*%
%TO.P,R19,1*%
%TO.N,PMOD_ja_9*%
X97536000Y-73509500D03*
%TO.P,R19,2*%
%TO.N,GND*%
X97536000Y-75334500D03*
%TD*%
D14*
%TO.P,U4,1*%
%TO.N,PMOD_ja_9*%
X97454000Y-71442500D03*
%TO.P,U4,2*%
%TO.N,Net-(U4-Pad2)*%
X96804000Y-71442500D03*
%TO.P,U4,3*%
X96154000Y-71442500D03*
%TO.P,U4,4*%
%TO.N,Net-(R23-Pad1)*%
X95504000Y-71442500D03*
%TO.P,U4,5*%
%TO.N,Net-(U4-Pad2)*%
X94854000Y-71442500D03*
%TO.P,U4,6*%
%TO.N,Net-(R24-Pad1)*%
X94204000Y-71442500D03*
%TO.P,U4,7,GND*%
%TO.N,GND*%
X93554000Y-71442500D03*
%TO.P,U4,8*%
%TO.N,Net-(U4-Pad11)*%
X93554000Y-65717500D03*
%TO.P,U4,9*%
%TO.N,PMOD_ja_10*%
X94204000Y-65717500D03*
%TO.P,U4,10*%
%TO.N,Net-(R21-Pad1)*%
X94854000Y-65717500D03*
%TO.P,U4,11*%
%TO.N,Net-(U4-Pad11)*%
X95504000Y-65717500D03*
%TO.P,U4,12*%
%TO.N,Net-(R22-Pad1)*%
X96154000Y-65717500D03*
%TO.P,U4,13*%
%TO.N,Net-(U4-Pad11)*%
X96804000Y-65717500D03*
%TO.P,U4,14,VCC*%
%TO.N,+3.3V*%
X97454000Y-65717500D03*
%TD*%
D15*
%TO.P,R2,1*%
%TO.N,PMOD_ja_1*%
X61849000Y-55729500D03*
%TO.P,R2,2*%
%TO.N,GND*%
X61849000Y-57554500D03*
%TD*%
D13*
%TO.P,R10,1*%
%TO.N,Net-(R10-Pad1)*%
X96520000Y-45870500D03*
%TO.P,R10,2*%
%TO.N,CH3_ja_3*%
X96520000Y-44045500D03*
%TD*%
D16*
%TO.P,C1,1*%
%TO.N,+3.3V*%
X62936150Y-45908000D03*
%TO.P,C1,2*%
%TO.N,GND*%
X62936150Y-44008000D03*
%TD*%
D15*
%TO.P,R24,1*%
%TO.N,Net-(R24-Pad1)*%
X93472000Y-73509500D03*
%TO.P,R24,2*%
%TO.N,CH6_ja_6*%
X93472000Y-75334500D03*
%TD*%
D13*
%TO.P,R16,1*%
%TO.N,Net-(R16-Pad1)*%
X60833000Y-63396500D03*
%TO.P,R16,2*%
%TO.N,CH5_ja_5*%
X60833000Y-61571500D03*
%TD*%
D15*
%TO.P,R6,1*%
%TO.N,Net-(R6-Pad1)*%
X59817000Y-55729500D03*
%TO.P,R6,2*%
%TO.N,CH0_ja_0*%
X59817000Y-57554500D03*
%TD*%
D13*
%TO.P,R3,1*%
%TO.N,Net-(R3-Pad1)*%
X60904150Y-45870500D03*
%TO.P,R3,2*%
%TO.N,CH1_ja_1*%
X60904150Y-44045500D03*
%TD*%
D14*
%TO.P,U3,1*%
%TO.N,PMOD_ja_7*%
X61894000Y-71188500D03*
%TO.P,U3,2*%
%TO.N,Net-(U3-Pad2)*%
X61244000Y-71188500D03*
%TO.P,U3,3*%
X60594000Y-71188500D03*
%TO.P,U3,4*%
%TO.N,Net-(R17-Pad1)*%
X59944000Y-71188500D03*
%TO.P,U3,5*%
%TO.N,Net-(U3-Pad2)*%
X59294000Y-71188500D03*
%TO.P,U3,6*%
%TO.N,Net-(R18-Pad1)*%
X58644000Y-71188500D03*
%TO.P,U3,7,GND*%
%TO.N,GND*%
X57994000Y-71188500D03*
%TO.P,U3,8*%
%TO.N,Net-(U3-Pad11)*%
X57994000Y-65463500D03*
%TO.P,U3,9*%
%TO.N,PMOD_ja_8*%
X58644000Y-65463500D03*
%TO.P,U3,10*%
%TO.N,Net-(R15-Pad1)*%
X59294000Y-65463500D03*
%TO.P,U3,11*%
%TO.N,Net-(U3-Pad11)*%
X59944000Y-65463500D03*
%TO.P,U3,12*%
%TO.N,Net-(R16-Pad1)*%
X60594000Y-65463500D03*
%TO.P,U3,13*%
%TO.N,Net-(U3-Pad11)*%
X61244000Y-65463500D03*
%TO.P,U3,14,VCC*%
%TO.N,+3.3V*%
X61894000Y-65463500D03*
%TD*%
D13*
%TO.P,R15,1*%
%TO.N,Net-(R15-Pad1)*%
X58801000Y-63396500D03*
%TO.P,R15,2*%
%TO.N,CH5_ja_5*%
X58801000Y-61571500D03*
%TD*%
%TO.P,R4,1*%
%TO.N,Net-(R4-Pad1)*%
X58872150Y-45870500D03*
%TO.P,R4,2*%
%TO.N,CH1_ja_1*%
X58872150Y-44045500D03*
%TD*%
D16*
%TO.P,C4,1*%
%TO.N,+3.3V*%
X98552000Y-63688000D03*
%TO.P,C4,2*%
%TO.N,GND*%
X98552000Y-61788000D03*
%TD*%
D15*
%TO.P,R18,1*%
%TO.N,Net-(R18-Pad1)*%
X57912000Y-73255500D03*
%TO.P,R18,2*%
%TO.N,CH4_ja_4*%
X57912000Y-75080500D03*
%TD*%
D13*
%TO.P,R8,1*%
%TO.N,PMOD_ja_4*%
X92456000Y-45870500D03*
%TO.P,R8,2*%
%TO.N,GND*%
X92456000Y-44045500D03*
%TD*%
D17*
%TO.P,J9,1,Pin_1*%
%TO.N,PMOD_ja_1*%
X83820000Y-80015000D03*
D18*
%TO.P,J9,2,Pin_2*%
%TO.N,PMOD_ja_2*%
X81280000Y-80015000D03*
%TO.P,J9,3,Pin_3*%
%TO.N,PMOD_ja_3*%
X78740000Y-80015000D03*
%TO.P,J9,4,Pin_4*%
%TO.N,PMOD_ja_4*%
X76200000Y-80015000D03*
%TO.P,J9,5,Pin_5*%
%TO.N,GND*%
X73660000Y-80015000D03*
%TO.P,J9,6,Pin_6*%
%TO.N,+3.3V*%
X71120000Y-80015000D03*
%TO.P,J9,7,Pin_7*%
%TO.N,PMOD_ja_7*%
X83820000Y-77475000D03*
%TO.P,J9,8,Pin_8*%
%TO.N,PMOD_ja_8*%
X81280000Y-77475000D03*
%TO.P,J9,9,Pin_9*%
%TO.N,PMOD_ja_9*%
X78740000Y-77475000D03*
%TO.P,J9,10,Pin_10*%
%TO.N,PMOD_ja_10*%
X76200000Y-77475000D03*
%TO.P,J9,11,Pin_11*%
%TO.N,GND*%
X73660000Y-77475000D03*
%TO.P,J9,12,Pin_12*%
%TO.N,+3.3V*%
X71120000Y-77475000D03*
%TD*%
D16*
%TO.P,C3,1*%
%TO.N,+3.3V*%
X62865000Y-63434000D03*
%TO.P,C3,2*%
%TO.N,GND*%
X62865000Y-61534000D03*
%TD*%
D15*
%TO.P,R7,1*%
%TO.N,PMOD_ja_3*%
X97536000Y-55729500D03*
%TO.P,R7,2*%
%TO.N,GND*%
X97536000Y-57554500D03*
%TD*%
D13*
%TO.P,R21,1*%
%TO.N,Net-(R21-Pad1)*%
X94488000Y-63650500D03*
%TO.P,R21,2*%
%TO.N,CH7_ja_7*%
X94488000Y-61825500D03*
%TD*%
D15*
%TO.P,R13,1*%
%TO.N,PMOD_ja_7*%
X61976000Y-73255500D03*
%TO.P,R13,2*%
%TO.N,GND*%
X61976000Y-75080500D03*
%TD*%
D13*
%TO.P,R9,1*%
%TO.N,Net-(R9-Pad1)*%
X94488000Y-45870500D03*
%TO.P,R9,2*%
%TO.N,CH3_ja_3*%
X94488000Y-44045500D03*
%TD*%
D15*
%TO.P,R5,1*%
%TO.N,Net-(R5-Pad1)*%
X57785000Y-55729500D03*
%TO.P,R5,2*%
%TO.N,CH0_ja_0*%
X57785000Y-57554500D03*
%TD*%
%TO.P,R17,1*%
%TO.N,Net-(R17-Pad1)*%
X59944000Y-73255500D03*
%TO.P,R17,2*%
%TO.N,CH4_ja_4*%
X59944000Y-75080500D03*
%TD*%
D19*
%TO.N,GND*%
X55880000Y-40640000D03*
X76200000Y-40640000D03*
X111760000Y-73660000D03*
X91440000Y-77470000D03*
X56896000Y-43053000D03*
X66040000Y-40640000D03*
X92456000Y-43180000D03*
X73660000Y-58420000D03*
X71120000Y-40640000D03*
X97536000Y-58419988D03*
X61976000Y-76200000D03*
X111760000Y-60960000D03*
X56769000Y-60579000D03*
X62230000Y-78740000D03*
X78740000Y-58420000D03*
X111760000Y-55880000D03*
X64135000Y-44069000D03*
X59944000Y-68326000D03*
X86360000Y-40640000D03*
X96520000Y-40640000D03*
X111760000Y-50800000D03*
X92456000Y-60833000D03*
X91440000Y-40640000D03*
X63373000Y-75184000D03*
X67691000Y-77089000D03*
X61849000Y-58420000D03*
X64135000Y-61595000D03*
X99822000Y-44069000D03*
X96520000Y-77470000D03*
X50800000Y-40640000D03*
X43180000Y-76200000D03*
X58420000Y-78740000D03*
X99822000Y-61722000D03*
X93980000Y-77470000D03*
X60960000Y-40640000D03*
X97536000Y-76454000D03*
X101600000Y-40640000D03*
X81280000Y-40640000D03*
%TO.N,+3.3V*%
X65960000Y-79970000D03*
X99822000Y-63754000D03*
X64262000Y-45974000D03*
X64135000Y-63627000D03*
X99822000Y-45974000D03*
%TO.N,PMOD_ja_7*%
X74041000Y-73509500D03*
%TO.N,PMOD_ja_8*%
X75311000Y-74295000D03*
%TO.N,PMOD_ja_3*%
X77089000Y-75310996D03*
%TO.N,PMOD_ja_2*%
X80899000Y-82169000D03*
%TD*%
D20*
%TO.N,GND*%
X62936150Y-44008000D02*
X64074000Y-44008000D01*
X61849000Y-57554500D02*
X61849000Y-58420000D01*
X99761000Y-44008000D02*
X99822000Y-44069000D01*
X98552000Y-44008000D02*
X99761000Y-44008000D01*
X56840150Y-44045500D02*
X56840150Y-43108850D01*
X56840150Y-43108850D02*
X56896000Y-43053000D01*
X99756000Y-61788000D02*
X99822000Y-61722000D01*
X97536000Y-57554500D02*
X97536000Y-58419988D01*
X92456000Y-61825500D02*
X92456000Y-60833000D01*
X98552000Y-61788000D02*
X99756000Y-61788000D01*
X67692000Y-78022500D02*
X67692000Y-77090000D01*
X62865000Y-61534000D02*
X64074000Y-61534000D01*
X64074000Y-44008000D02*
X64135000Y-44069000D01*
X64074000Y-61534000D02*
X64135000Y-61595000D01*
X92456000Y-44045500D02*
X92456000Y-43180000D01*
X67692000Y-77090000D02*
X67691000Y-77089000D01*
X56769000Y-61571500D02*
X56769000Y-60579000D01*
D21*
%TO.N,+3.3V*%
X64196000Y-45908000D02*
X64262000Y-45974000D01*
X99756000Y-45908000D02*
X99822000Y-45974000D01*
X97521500Y-46938500D02*
X97521500Y-47937500D01*
X99756000Y-63688000D02*
X99822000Y-63754000D01*
D22*
X71120000Y-77475000D02*
X71120000Y-80015000D01*
D21*
X61961500Y-64337500D02*
X61961500Y-65463500D01*
D22*
X71120000Y-80015000D02*
X67784500Y-80015000D01*
D21*
X98552000Y-63688000D02*
X99756000Y-63688000D01*
X97521500Y-64718500D02*
X97521500Y-65717500D01*
X63942000Y-63434000D02*
X64135000Y-63627000D01*
X62936150Y-45908000D02*
X61905650Y-46938500D01*
X62865000Y-63434000D02*
X61961500Y-64337500D01*
D22*
X67784500Y-80015000D02*
X67692000Y-79922500D01*
D23*
X66007500Y-79922500D02*
X65960000Y-79970000D01*
D21*
X98552000Y-45908000D02*
X99756000Y-45908000D01*
X61905650Y-46938500D02*
X61905650Y-47937500D01*
D22*
X67692000Y-79922500D02*
X66007500Y-79922500D01*
D21*
X62936150Y-45908000D02*
X64196000Y-45908000D01*
X98552000Y-45908000D02*
X97521500Y-46938500D01*
X62865000Y-63434000D02*
X63942000Y-63434000D01*
X98552000Y-63688000D02*
X97521500Y-64718500D01*
D20*
%TO.N,CH0_ja_0*%
X57785000Y-57554500D02*
X57277000Y-58062500D01*
X57277000Y-58062500D02*
X53871500Y-58062500D01*
X53871500Y-58062500D02*
X50800000Y-54991000D01*
X50800000Y-54991000D02*
X50800000Y-50800000D01*
X59817000Y-57554500D02*
X57785000Y-57554500D01*
%TO.N,CH1_ja_1*%
X65151000Y-42545000D02*
X68580000Y-45974000D01*
X60904150Y-44045500D02*
X62404650Y-42545000D01*
X62404650Y-42545000D02*
X65151000Y-42545000D01*
X68580000Y-45974000D02*
X68580000Y-50800000D01*
X60904150Y-44045500D02*
X58872150Y-44045500D01*
%TO.N,CH2_ja_2*%
X93218000Y-57808500D02*
X89050500Y-57808500D01*
X89050500Y-57808500D02*
X86360000Y-55118000D01*
X86360000Y-55118000D02*
X86360000Y-50800000D01*
X93472000Y-57554500D02*
X93218000Y-57808500D01*
X95504000Y-57554500D02*
X93472000Y-57554500D01*
%TO.N,CH3_ja_3*%
X98401500Y-42164000D02*
X100711000Y-42164000D01*
X104140000Y-45593000D02*
X104140000Y-50800000D01*
X100711000Y-42164000D02*
X104140000Y-45593000D01*
X94488000Y-44045500D02*
X96520000Y-44045500D01*
X96520000Y-44045500D02*
X98401500Y-42164000D01*
%TO.N,CH4_ja_4*%
X59944000Y-75080500D02*
X57912000Y-75080500D01*
X57658000Y-75334500D02*
X53363500Y-75334500D01*
X53363500Y-75334500D02*
X50800000Y-72771000D01*
X57912000Y-75080500D02*
X57658000Y-75334500D01*
X50800000Y-72771000D02*
X50800000Y-68580000D01*
%TO.N,CH5_ja_5*%
X64389000Y-60452000D02*
X68580000Y-64643000D01*
X68580000Y-64643000D02*
X68580000Y-68580000D01*
X58801000Y-61571500D02*
X60833000Y-61571500D01*
X61952500Y-60452000D02*
X64389000Y-60452000D01*
X60833000Y-61571500D02*
X61952500Y-60452000D01*
%TO.N,CH6_ja_6*%
X86360000Y-72517000D02*
X86360000Y-68580000D01*
X92964000Y-75842500D02*
X89685500Y-75842500D01*
X93472000Y-75334500D02*
X92964000Y-75842500D01*
X89685500Y-75842500D02*
X86360000Y-72517000D01*
X95504000Y-75334500D02*
X93472000Y-75334500D01*
%TO.N,CH7_ja_7*%
X104140000Y-63246000D02*
X104140000Y-68580000D01*
X98401500Y-59944000D02*
X100838000Y-59944000D01*
X100838000Y-59944000D02*
X104140000Y-63246000D01*
X94488000Y-61825500D02*
X96520000Y-61825500D01*
X96520000Y-61825500D02*
X98401500Y-59944000D01*
%TO.N,PMOD_ja_1*%
X44704000Y-62103000D02*
X47456000Y-59351000D01*
X63500000Y-58166000D02*
X63500000Y-57380500D01*
X44704000Y-71374000D02*
X44704000Y-62103000D01*
X83820000Y-80015000D02*
X82301000Y-81534000D01*
X54864000Y-81534000D02*
X44704000Y-71374000D01*
X63500000Y-57380500D02*
X61849000Y-55729500D01*
X61838150Y-53662500D02*
X61838150Y-55718650D01*
X62315000Y-59351000D02*
X63500000Y-58166000D01*
X47456000Y-59351000D02*
X62315000Y-59351000D01*
X61838150Y-55718650D02*
X61849000Y-55729500D01*
X82301000Y-81534000D02*
X54864000Y-81534000D01*
%TO.N,PMOD_ja_7*%
X61976000Y-73255500D02*
X62230000Y-73509500D01*
X61976000Y-73255500D02*
X61976000Y-71270500D01*
X62230000Y-73509500D02*
X74041000Y-73509500D01*
X61976000Y-71270500D02*
X61894000Y-71188500D01*
%TO.N,PMOD_ja_8*%
X55649500Y-63396500D02*
X56769000Y-63396500D01*
X75311000Y-64516000D02*
X70612000Y-59817000D01*
X57922000Y-64399000D02*
X58273640Y-64399000D01*
X58644000Y-64769360D02*
X58644000Y-65463500D01*
X70612000Y-59817000D02*
X56007000Y-59817000D01*
X54737000Y-62484000D02*
X55649500Y-63396500D01*
X58273640Y-64399000D02*
X58644000Y-64769360D01*
X56769000Y-63396500D02*
X56919500Y-63396500D01*
X75311000Y-74295000D02*
X75311000Y-64516000D01*
X56007000Y-59817000D02*
X54737000Y-61087000D01*
X54737000Y-61087000D02*
X54737000Y-62484000D01*
X56919500Y-63396500D02*
X57922000Y-64399000D01*
%TO.N,PMOD_ja_3*%
X98383000Y-59224000D02*
X81738947Y-59224000D01*
X97536000Y-55729500D02*
X97536000Y-53744500D01*
X99060000Y-58547000D02*
X98383000Y-59224000D01*
X81738947Y-59224000D02*
X77089000Y-63873947D01*
X99060000Y-56515000D02*
X99060000Y-58547000D01*
X97536000Y-55729500D02*
X98274500Y-55729500D01*
X98274500Y-55729500D02*
X99060000Y-56515000D01*
X97536000Y-53744500D02*
X97454000Y-53662500D01*
X77089000Y-63873947D02*
X77089000Y-75310996D01*
%TO.N,PMOD_ja_2*%
X58588150Y-47243360D02*
X58217790Y-46873000D01*
X57858500Y-46873000D02*
X56856000Y-45870500D01*
X58217790Y-46873000D02*
X57858500Y-46873000D01*
X58588150Y-47937500D02*
X58588150Y-47243360D01*
X43815000Y-71374000D02*
X54610000Y-82169000D01*
X43815000Y-48323500D02*
X43815000Y-71374000D01*
X56840150Y-45870500D02*
X46268000Y-45870500D01*
X54610000Y-82169000D02*
X80899000Y-82169000D01*
X46268000Y-45870500D02*
X43815000Y-48323500D01*
X56856000Y-45870500D02*
X56840150Y-45870500D01*
%TO.N,PMOD_ja_10*%
X93458500Y-64653000D02*
X93833640Y-64653000D01*
X80748500Y-63142500D02*
X91948000Y-63142500D01*
X76200000Y-77475000D02*
X79351500Y-74323500D01*
X79351500Y-64539500D02*
X80748500Y-63142500D01*
X91948000Y-63142500D02*
X92456000Y-63650500D01*
X92456000Y-63650500D02*
X93458500Y-64653000D01*
X94204000Y-65023360D02*
X94204000Y-65717500D01*
X79351500Y-74323500D02*
X79351500Y-64539500D01*
X93833640Y-64653000D02*
X94204000Y-65023360D01*
%TO.N,PMOD_ja_4*%
X94204000Y-47243360D02*
X93833640Y-46873000D01*
X80414500Y-45616500D02*
X92202000Y-45616500D01*
X76327000Y-75497470D02*
X76327000Y-49657000D01*
X74837000Y-78266000D02*
X74837000Y-76987470D01*
X76327000Y-49657000D02*
X80391000Y-45593000D01*
X76200000Y-79629000D02*
X74837000Y-78266000D01*
X76200000Y-80015000D02*
X76200000Y-79629000D01*
X80391000Y-45593000D02*
X80414500Y-45616500D01*
X92202000Y-45616500D02*
X92456000Y-45870500D01*
X93833640Y-46873000D02*
X93679500Y-46873000D01*
X74837000Y-76987470D02*
X76327000Y-75497470D01*
X94204000Y-47937500D02*
X94204000Y-47243360D01*
X92677000Y-45870500D02*
X92456000Y-45870500D01*
X93679500Y-46873000D02*
X92677000Y-45870500D01*
%TO.N,PMOD_ja_9*%
X99314000Y-77089000D02*
X99314000Y-74930000D01*
X99314000Y-74930000D02*
X97893500Y-73509500D01*
X97454000Y-71442500D02*
X97454000Y-73427500D01*
X80777000Y-75438000D02*
X87122000Y-75438000D01*
X97917000Y-78486000D02*
X99314000Y-77089000D01*
X87122000Y-75438000D02*
X90170000Y-78486000D01*
X97454000Y-73427500D02*
X97536000Y-73509500D01*
X97893500Y-73509500D02*
X97536000Y-73509500D01*
X90170000Y-78486000D02*
X97917000Y-78486000D01*
X78740000Y-77475000D02*
X80777000Y-75438000D01*
%TO.N,Net-(R3-Pad1)*%
X60538150Y-46236500D02*
X60538150Y-47937500D01*
X60904150Y-45870500D02*
X60538150Y-46236500D01*
%TO.N,Net-(R4-Pad1)*%
X59238150Y-46236500D02*
X59238150Y-47937500D01*
X58872150Y-45870500D02*
X59238150Y-46236500D01*
%TO.N,Net-(R5-Pad1)*%
X58588150Y-54926350D02*
X57785000Y-55729500D01*
X58588150Y-53662500D02*
X58588150Y-54926350D01*
%TO.N,Net-(R6-Pad1)*%
X59888150Y-53662500D02*
X59888150Y-55658350D01*
X59888150Y-55658350D02*
X59817000Y-55729500D01*
%TO.N,Net-(R9-Pad1)*%
X94854000Y-46236500D02*
X94854000Y-47937500D01*
X94488000Y-45870500D02*
X94854000Y-46236500D01*
%TO.N,Net-(R10-Pad1)*%
X96154000Y-46236500D02*
X96154000Y-47937500D01*
X96520000Y-45870500D02*
X96154000Y-46236500D01*
%TO.N,Net-(R11-Pad1)*%
X95504000Y-55729500D02*
X95504000Y-53662500D01*
%TO.N,Net-(R12-Pad1)*%
X93472000Y-55729500D02*
X94204000Y-54997500D01*
X94204000Y-54997500D02*
X94204000Y-53662500D01*
%TO.N,Net-(R15-Pad1)*%
X59294000Y-63889500D02*
X59294000Y-65463500D01*
X58801000Y-63396500D02*
X59294000Y-63889500D01*
%TO.N,Net-(R16-Pad1)*%
X60579000Y-65448500D02*
X60594000Y-65463500D01*
X60833000Y-63396500D02*
X60579000Y-63650500D01*
X60579000Y-63650500D02*
X60579000Y-65448500D01*
%TO.N,Net-(R17-Pad1)*%
X59944000Y-73255500D02*
X59944000Y-71188500D01*
%TO.N,Net-(R18-Pad1)*%
X58644000Y-72523500D02*
X57912000Y-73255500D01*
X58644000Y-71188500D02*
X58644000Y-72523500D01*
%TO.N,Net-(R21-Pad1)*%
X94488000Y-63650500D02*
X94854000Y-64016500D01*
X94854000Y-64016500D02*
X94854000Y-65717500D01*
%TO.N,Net-(R22-Pad1)*%
X96520000Y-63650500D02*
X96154000Y-64016500D01*
X96154000Y-64016500D02*
X96154000Y-65717500D01*
%TO.N,Net-(R23-Pad1)*%
X95504000Y-71442500D02*
X95504000Y-73509500D01*
%TO.N,Net-(R24-Pad1)*%
X94204000Y-71442500D02*
X94204000Y-72777500D01*
X94204000Y-72777500D02*
X93472000Y-73509500D01*
D23*
%TO.N,Net-(U1-Pad2)*%
X61188150Y-53662500D02*
X60538150Y-53662500D01*
X59238150Y-53662500D02*
X59238150Y-52851850D01*
X60317150Y-52624000D02*
X60538150Y-52845000D01*
X60538150Y-52845000D02*
X60538150Y-53662500D01*
X59238150Y-52851850D02*
X59466000Y-52624000D01*
X59466000Y-52624000D02*
X60317150Y-52624000D01*
D20*
%TO.N,Net-(U1-Pad11)*%
X59888150Y-48674999D02*
X59561149Y-49002000D01*
X59888150Y-48674999D02*
X59888150Y-47937500D01*
X58265151Y-49002000D02*
X57938150Y-48674999D01*
X61188150Y-48674999D02*
X60841149Y-49022000D01*
X57938150Y-48674999D02*
X57938150Y-47937500D01*
X61188150Y-47937500D02*
X61188150Y-48674999D01*
X59561149Y-49002000D02*
X58265151Y-49002000D01*
X60841149Y-49022000D02*
X60235151Y-49022000D01*
X60235151Y-49022000D02*
X59888150Y-48674999D01*
%TO.N,Net-(U2-Pad11)*%
X95851001Y-49022000D02*
X95504000Y-48674999D01*
X96804000Y-47937500D02*
X96804000Y-48674999D01*
X95504000Y-48674999D02*
X95504000Y-47937500D01*
X96456999Y-49022000D02*
X95851001Y-49022000D01*
X93554000Y-47937500D02*
X93554000Y-48674999D01*
X96804000Y-48674999D02*
X96456999Y-49022000D01*
X93554000Y-48674999D02*
X93901001Y-49022000D01*
X93901001Y-49022000D02*
X95156999Y-49022000D01*
X95156999Y-49022000D02*
X95504000Y-48674999D01*
%TO.N,Net-(U2-Pad2)*%
X95806999Y-52578000D02*
X96154000Y-52925001D01*
X96154000Y-52925001D02*
X96154000Y-53662500D01*
X94854000Y-52925001D02*
X95201001Y-52578000D01*
X95201001Y-52578000D02*
X95806999Y-52578000D01*
X94854000Y-53662500D02*
X94854000Y-52925001D01*
X96154000Y-53662500D02*
X96804000Y-53662500D01*
%TO.N,Net-(U3-Pad2)*%
X59294000Y-71188500D02*
X59294000Y-70494360D01*
X60266999Y-70124000D02*
X60594000Y-70451001D01*
X59664360Y-70124000D02*
X60266999Y-70124000D01*
X61244000Y-71188500D02*
X60594000Y-71188500D01*
X59294000Y-70494360D02*
X59664360Y-70124000D01*
X60594000Y-70451001D02*
X60594000Y-71188500D01*
%TO.N,Net-(U3-Pad11)*%
X61244000Y-65463500D02*
X61244000Y-66200999D01*
X61244000Y-66200999D02*
X60896999Y-66548000D01*
X57994000Y-66200999D02*
X58321001Y-66528000D01*
X58321001Y-66528000D02*
X59583000Y-66528000D01*
X60896999Y-66548000D02*
X60325000Y-66548000D01*
X59583000Y-66528000D02*
X59944000Y-66167000D01*
X59944000Y-66167000D02*
X59944000Y-65463500D01*
X60325000Y-66548000D02*
X59944000Y-66167000D01*
X57994000Y-65463500D02*
X57994000Y-66200999D01*
%TO.N,Net-(U4-Pad11)*%
X96476999Y-66782000D02*
X95831001Y-66782000D01*
X96804000Y-65717500D02*
X96804000Y-66454999D01*
X96804000Y-66454999D02*
X96476999Y-66782000D01*
X95831001Y-66782000D02*
X95504000Y-66454999D01*
X93554000Y-66454999D02*
X94028001Y-66929000D01*
X94028001Y-66929000D02*
X95029999Y-66929000D01*
X95504000Y-66454999D02*
X95504000Y-65717500D01*
X93554000Y-65717500D02*
X93554000Y-66454999D01*
X95029999Y-66929000D02*
X95504000Y-66454999D01*
%TO.N,Net-(U4-Pad2)*%
X96154000Y-71442500D02*
X96804000Y-71442500D01*
X95201001Y-70358000D02*
X94854000Y-70705001D01*
X94854000Y-70705001D02*
X94854000Y-71442500D01*
X96154000Y-70748360D02*
X95763640Y-70358000D01*
X96154000Y-71442500D02*
X96154000Y-70748360D01*
X95763640Y-70358000D02*
X95201001Y-70358000D01*
%TD*%
%TA.AperFunction,Conductor*%
%TO.N,GND*%
G36*
X54725758Y-59998185D02*
G01*
X54771513Y-60050989D01*
X54781457Y-60120147D01*
X54752432Y-60183703D01*
X54746400Y-60190181D01*
X54336992Y-60599589D01*
X54312395Y-60624186D01*
X54249586Y-60686994D01*
X54249585Y-60686996D01*
X54180233Y-60790789D01*
X54178586Y-60795393D01*
X54133614Y-60903964D01*
X54133612Y-60903972D01*
X54112903Y-61008081D01*
X54112904Y-61008082D01*
X54109500Y-61025196D01*
X54109500Y-62545807D01*
X54133612Y-62667028D01*
X54133615Y-62667038D01*
X54151214Y-62709525D01*
X54151216Y-62709529D01*
X54153625Y-62715344D01*
X54180917Y-62781233D01*
X54223703Y-62845267D01*
X54226975Y-62850165D01*
X54226979Y-62850171D01*
X54249585Y-62884003D01*
X54249591Y-62884011D01*
X55162089Y-63796508D01*
X55206037Y-63840456D01*
X55249494Y-63883913D01*
X55249496Y-63883914D01*
X55352256Y-63952576D01*
X55352260Y-63952578D01*
X55352267Y-63952583D01*
X55377436Y-63963008D01*
X55377437Y-63963009D01*
X55414314Y-63978283D01*
X55466465Y-63999886D01*
X55587692Y-64023999D01*
X55587696Y-64024000D01*
X55587697Y-64024000D01*
X55593146Y-64024000D01*
X55660185Y-64043685D01*
X55698684Y-64082903D01*
X55726288Y-64127656D01*
X55850344Y-64251712D01*
X55999666Y-64343814D01*
X56166203Y-64398999D01*
X56268991Y-64409500D01*
X56993718Y-64409499D01*
X57060757Y-64429183D01*
X57081399Y-64445818D01*
X57265234Y-64629653D01*
X57298719Y-64690976D01*
X57300493Y-64733517D01*
X57293500Y-64786639D01*
X57293500Y-64786642D01*
X57293500Y-64786643D01*
X57293500Y-66140363D01*
X57308953Y-66257753D01*
X57308956Y-66257762D01*
X57369464Y-66403842D01*
X57423315Y-66474022D01*
X57434392Y-66493203D01*
X57435043Y-66492856D01*
X57437914Y-66498226D01*
X57437915Y-66498228D01*
X57437917Y-66498232D01*
X57458664Y-66529282D01*
X57458665Y-66529283D01*
X57506590Y-66601009D01*
X57506591Y-66601010D01*
X57833590Y-66928008D01*
X57889928Y-66984346D01*
X57920994Y-67015412D01*
X58023761Y-67084079D01*
X58023774Y-67084086D01*
X58137961Y-67131383D01*
X58137966Y-67131385D01*
X58137970Y-67131385D01*
X58137971Y-67131386D01*
X58259195Y-67155500D01*
X58259198Y-67155500D01*
X59644804Y-67155500D01*
X59644805Y-67155499D01*
X59766035Y-67131386D01*
X59825899Y-67106588D01*
X59860966Y-67092064D01*
X59885858Y-67081753D01*
X59886327Y-67082885D01*
X59948409Y-67069952D01*
X60007367Y-67090452D01*
X60027768Y-67104084D01*
X60141960Y-67151383D01*
X60141965Y-67151385D01*
X60141969Y-67151385D01*
X60141970Y-67151386D01*
X60263193Y-67175500D01*
X60263196Y-67175500D01*
X60958803Y-67175500D01*
X60958804Y-67175499D01*
X61080034Y-67151386D01*
X61175034Y-67112035D01*
X61194232Y-67104083D01*
X61297007Y-67035411D01*
X61384410Y-66948008D01*
X61602071Y-66730345D01*
X61663394Y-66696861D01*
X61705937Y-66695088D01*
X61754639Y-66701500D01*
X62033360Y-66701499D01*
X62033363Y-66701499D01*
X62150753Y-66686046D01*
X62150757Y-66686044D01*
X62150762Y-66686044D01*
X62296841Y-66625536D01*
X62422282Y-66529282D01*
X62518536Y-66403841D01*
X62579044Y-66257762D01*
X62594500Y-66140361D01*
X62594499Y-66026125D01*
X62614183Y-65959086D01*
X62615356Y-65957295D01*
X62686402Y-65850968D01*
X62748065Y-65702102D01*
X62779500Y-65544066D01*
X62779500Y-64727688D01*
X62788144Y-64698247D01*
X62794668Y-64668261D01*
X62798422Y-64663245D01*
X62799185Y-64660649D01*
X62815815Y-64640011D01*
X62985008Y-64470817D01*
X63046331Y-64437333D01*
X63072689Y-64434499D01*
X63390002Y-64434499D01*
X63390008Y-64434499D01*
X63492797Y-64423999D01*
X63659334Y-64368814D01*
X63659343Y-64368808D01*
X63665882Y-64365760D01*
X63666707Y-64367530D01*
X63724583Y-64351688D01*
X63769751Y-64361106D01*
X63819364Y-64381656D01*
X63896398Y-64413564D01*
X63935098Y-64421262D01*
X64054431Y-64445000D01*
X64054434Y-64445000D01*
X64215567Y-64445000D01*
X64321885Y-64423851D01*
X64373602Y-64413564D01*
X64489012Y-64365760D01*
X64522461Y-64351905D01*
X64522461Y-64351904D01*
X64522468Y-64351902D01*
X64656444Y-64262382D01*
X64770382Y-64148444D01*
X64859902Y-64014468D01*
X64865943Y-63999885D01*
X64921562Y-63865606D01*
X64921564Y-63865602D01*
X64940581Y-63770000D01*
X64953000Y-63707567D01*
X64953000Y-63546431D01*
X64921565Y-63388404D01*
X64921564Y-63388398D01*
X64859902Y-63239531D01*
X64859900Y-63239529D01*
X64859900Y-63239527D01*
X64770382Y-63105555D01*
X64770379Y-63105551D01*
X64463448Y-62798620D01*
X64463444Y-62798617D01*
X64329474Y-62709100D01*
X64329461Y-62709093D01*
X64180606Y-62647436D01*
X64180594Y-62647433D01*
X64022570Y-62616000D01*
X64022566Y-62616000D01*
X63883010Y-62616000D01*
X63815971Y-62596315D01*
X63810674Y-62592533D01*
X63807932Y-62590842D01*
X63659334Y-62499186D01*
X63492797Y-62444001D01*
X63492795Y-62444000D01*
X63390010Y-62433500D01*
X62339998Y-62433500D01*
X62339980Y-62433501D01*
X62237203Y-62444000D01*
X62237200Y-62444001D01*
X62070668Y-62499185D01*
X62070659Y-62499189D01*
X61951962Y-62572402D01*
X61884570Y-62590842D01*
X61817906Y-62569919D01*
X61773137Y-62516277D01*
X61764476Y-62446946D01*
X61794673Y-62383939D01*
X61799148Y-62379219D01*
X61875712Y-62302656D01*
X61967814Y-62153334D01*
X62022999Y-61986797D01*
X62033500Y-61884009D01*
X62033499Y-61309780D01*
X62042144Y-61280335D01*
X62048667Y-61250354D01*
X62052420Y-61245340D01*
X62053183Y-61242742D01*
X62069813Y-61222105D01*
X62176101Y-61115817D01*
X62237423Y-61082334D01*
X62263781Y-61079500D01*
X64077719Y-61079500D01*
X64144758Y-61099185D01*
X64165400Y-61115819D01*
X67916181Y-64866600D01*
X67949666Y-64927923D01*
X67952500Y-64954281D01*
X67952500Y-67111631D01*
X67932815Y-67178670D01*
X67884796Y-67222115D01*
X67780465Y-67275274D01*
X67586201Y-67416416D01*
X67416416Y-67586201D01*
X67275276Y-67780463D01*
X67166265Y-67994406D01*
X67092063Y-68222777D01*
X67054500Y-68459941D01*
X67054500Y-68700058D01*
X67092063Y-68937222D01*
X67166265Y-69165593D01*
X67275276Y-69379536D01*
X67416414Y-69573796D01*
X67586204Y-69743586D01*
X67780464Y-69884724D01*
X67852943Y-69921654D01*
X67994406Y-69993734D01*
X67994408Y-69993734D01*
X67994411Y-69993736D01*
X68222778Y-70067937D01*
X68459941Y-70105500D01*
X68459942Y-70105500D01*
X68700058Y-70105500D01*
X68700059Y-70105500D01*
X68937222Y-70067937D01*
X69165589Y-69993736D01*
X69379536Y-69884724D01*
X69573796Y-69743586D01*
X69743586Y-69573796D01*
X69884724Y-69379536D01*
X69993736Y-69165589D01*
X70067937Y-68937222D01*
X70105500Y-68700059D01*
X70105500Y-68459941D01*
X70067937Y-68222778D01*
X69993736Y-67994411D01*
X69993734Y-67994408D01*
X69993734Y-67994406D01*
X69884723Y-67780463D01*
X69743586Y-67586204D01*
X69573796Y-67416414D01*
X69451960Y-67327895D01*
X69379534Y-67275274D01*
X69275204Y-67222115D01*
X69224409Y-67174141D01*
X69207500Y-67111631D01*
X69207500Y-64581199D01*
X69207500Y-64581197D01*
X69205671Y-64572000D01*
X69183386Y-64459965D01*
X69144364Y-64365760D01*
X69140532Y-64356508D01*
X69140527Y-64356497D01*
X69140514Y-64356465D01*
X69136083Y-64345767D01*
X69089097Y-64275447D01*
X69067414Y-64242996D01*
X69067413Y-64242994D01*
X69056750Y-64232331D01*
X68980008Y-64155589D01*
X65480600Y-60656181D01*
X65447115Y-60594858D01*
X65452099Y-60525166D01*
X65493971Y-60469233D01*
X65559435Y-60444816D01*
X65568281Y-60444500D01*
X70300719Y-60444500D01*
X70367758Y-60464185D01*
X70388400Y-60480819D01*
X74647181Y-64739600D01*
X74680666Y-64800923D01*
X74683500Y-64827281D01*
X74683500Y-72744063D01*
X74663815Y-72811102D01*
X74611011Y-72856857D01*
X74541853Y-72866801D01*
X74490609Y-72847165D01*
X74420185Y-72800109D01*
X74420172Y-72800102D01*
X74274501Y-72739764D01*
X74274489Y-72739761D01*
X74119845Y-72709000D01*
X74119842Y-72709000D01*
X73962158Y-72709000D01*
X73962155Y-72709000D01*
X73807510Y-72739761D01*
X73807498Y-72739764D01*
X73661827Y-72800102D01*
X73661814Y-72800109D01*
X73570534Y-72861102D01*
X73503857Y-72881980D01*
X73501643Y-72882000D01*
X63269390Y-72882000D01*
X63202351Y-72862315D01*
X63156596Y-72809511D01*
X63151684Y-72797004D01*
X63145500Y-72778342D01*
X63110814Y-72673666D01*
X63018712Y-72524344D01*
X62894656Y-72400288D01*
X62745334Y-72308186D01*
X62745332Y-72308185D01*
X62745330Y-72308184D01*
X62745329Y-72308183D01*
X62688495Y-72289350D01*
X62631050Y-72249577D01*
X62604228Y-72185061D01*
X62603500Y-72171645D01*
X62603500Y-71208695D01*
X62596882Y-71175427D01*
X62594499Y-71151234D01*
X62594499Y-70511636D01*
X62579046Y-70394246D01*
X62579044Y-70394239D01*
X62579044Y-70394238D01*
X62518536Y-70248159D01*
X62422282Y-70122718D01*
X62296841Y-70026464D01*
X62150762Y-69965956D01*
X62150760Y-69965955D01*
X62033361Y-69950500D01*
X61754636Y-69950500D01*
X61637246Y-69965953D01*
X61637234Y-69965957D01*
X61616450Y-69974566D01*
X61546981Y-69982033D01*
X61521550Y-69974566D01*
X61500765Y-69965957D01*
X61500760Y-69965955D01*
X61383361Y-69950500D01*
X61104637Y-69950500D01*
X61055937Y-69956912D01*
X60986902Y-69946146D01*
X60952072Y-69921654D01*
X60667010Y-69636591D01*
X60667006Y-69636588D01*
X60564238Y-69567920D01*
X60564225Y-69567913D01*
X60530784Y-69554062D01*
X60450034Y-69520614D01*
X60450026Y-69520612D01*
X60328806Y-69496500D01*
X60328802Y-69496500D01*
X59602557Y-69496500D01*
X59602555Y-69496500D01*
X59481330Y-69520613D01*
X59481320Y-69520616D01*
X59367133Y-69567913D01*
X59367120Y-69567920D01*
X59264352Y-69636588D01*
X59264348Y-69636591D01*
X58974242Y-69926697D01*
X58912919Y-69960182D01*
X58870377Y-69961955D01*
X58783363Y-69950500D01*
X58504636Y-69950500D01*
X58387246Y-69965953D01*
X58387237Y-69965956D01*
X58241160Y-70026463D01*
X58115718Y-70122718D01*
X58019463Y-70248160D01*
X57958956Y-70394237D01*
X57958955Y-70394239D01*
X57944748Y-70502159D01*
X57943501Y-70511636D01*
X57943500Y-70511645D01*
X57943500Y-71865363D01*
X57958953Y-71982753D01*
X57958956Y-71982762D01*
X57995525Y-72071047D01*
X58002994Y-72140517D01*
X57971719Y-72202996D01*
X57911630Y-72238648D01*
X57880964Y-72242500D01*
X57411998Y-72242500D01*
X57411980Y-72242501D01*
X57309203Y-72253000D01*
X57309200Y-72253001D01*
X57142668Y-72308185D01*
X57142663Y-72308187D01*
X56993342Y-72400289D01*
X56869289Y-72524342D01*
X56777187Y-72673663D01*
X56777186Y-72673666D01*
X56722001Y-72840203D01*
X56722001Y-72840204D01*
X56722000Y-72840204D01*
X56711500Y-72942983D01*
X56711500Y-73568001D01*
X56711501Y-73568019D01*
X56722000Y-73670796D01*
X56722001Y-73670799D01*
X56777185Y-73837331D01*
X56777187Y-73837336D01*
X56869289Y-73986657D01*
X56962951Y-74080319D01*
X56996436Y-74141642D01*
X56991452Y-74211334D01*
X56962951Y-74255681D01*
X56869289Y-74349342D01*
X56777187Y-74498663D01*
X56777185Y-74498668D01*
X56736316Y-74622004D01*
X56696543Y-74679449D01*
X56632027Y-74706272D01*
X56618610Y-74707000D01*
X53674781Y-74707000D01*
X53607742Y-74687315D01*
X53587100Y-74670681D01*
X51463819Y-72547400D01*
X51430334Y-72486077D01*
X51427500Y-72459719D01*
X51427500Y-70048368D01*
X51447185Y-69981329D01*
X51495203Y-69937884D01*
X51599536Y-69884724D01*
X51793796Y-69743586D01*
X51963586Y-69573796D01*
X52104724Y-69379536D01*
X52213736Y-69165589D01*
X52287937Y-68937222D01*
X52325500Y-68700059D01*
X52325500Y-68459941D01*
X52287937Y-68222778D01*
X52213736Y-67994411D01*
X52213734Y-67994408D01*
X52213734Y-67994406D01*
X52104723Y-67780463D01*
X51963586Y-67586204D01*
X51793796Y-67416414D01*
X51599536Y-67275276D01*
X51588025Y-67269411D01*
X51385593Y-67166265D01*
X51157222Y-67092063D01*
X51092127Y-67081753D01*
X50920059Y-67054500D01*
X50679941Y-67054500D01*
X50582381Y-67069952D01*
X50442777Y-67092063D01*
X50214406Y-67166265D01*
X50000463Y-67275276D01*
X49806201Y-67416416D01*
X49636416Y-67586201D01*
X49495276Y-67780463D01*
X49386265Y-67994406D01*
X49312063Y-68222777D01*
X49274500Y-68459941D01*
X49274500Y-68700058D01*
X49312063Y-68937222D01*
X49386265Y-69165593D01*
X49495276Y-69379536D01*
X49636414Y-69573796D01*
X49806204Y-69743586D01*
X50000464Y-69884724D01*
X50104796Y-69937884D01*
X50155591Y-69985857D01*
X50172500Y-70048368D01*
X50172500Y-72832807D01*
X50196612Y-72954028D01*
X50196614Y-72954035D01*
X50224804Y-73022089D01*
X50243917Y-73068233D01*
X50285403Y-73130321D01*
X50300071Y-73152274D01*
X50312587Y-73171006D01*
X50312591Y-73171011D01*
X52963487Y-75821907D01*
X52963491Y-75821910D01*
X53066260Y-75890579D01*
X53066273Y-75890586D01*
X53135589Y-75919297D01*
X53180465Y-75937885D01*
X53180469Y-75937885D01*
X53180470Y-75937886D01*
X53301693Y-75962000D01*
X53301696Y-75962000D01*
X53301697Y-75962000D01*
X57000797Y-75962000D01*
X57065893Y-75980461D01*
X57142659Y-76027810D01*
X57142660Y-76027810D01*
X57142666Y-76027814D01*
X57309203Y-76082999D01*
X57411991Y-76093500D01*
X58412008Y-76093499D01*
X58412016Y-76093498D01*
X58412019Y-76093498D01*
X58493397Y-76085185D01*
X58514797Y-76082999D01*
X58681334Y-76027814D01*
X58830656Y-75935712D01*
X58840319Y-75926049D01*
X58901642Y-75892564D01*
X58971334Y-75897548D01*
X59015681Y-75926049D01*
X59025344Y-75935712D01*
X59174666Y-76027814D01*
X59341203Y-76082999D01*
X59443991Y-76093500D01*
X60444008Y-76093499D01*
X60444016Y-76093498D01*
X60444019Y-76093498D01*
X60525397Y-76085185D01*
X60546797Y-76082999D01*
X60713334Y-76027814D01*
X60862656Y-75935712D01*
X60986712Y-75811656D01*
X61078814Y-75662334D01*
X61133999Y-75495797D01*
X61144500Y-75393009D01*
X61144499Y-74767992D01*
X61142933Y-74752666D01*
X61133999Y-74665203D01*
X61133998Y-74665200D01*
X61088700Y-74528501D01*
X61078814Y-74498666D01*
X60986712Y-74349344D01*
X60986710Y-74349342D01*
X60982920Y-74343197D01*
X60984210Y-74342400D01*
X60961184Y-74285320D01*
X60974226Y-74216678D01*
X61022308Y-74165984D01*
X61090165Y-74149333D01*
X61149685Y-74167668D01*
X61206666Y-74202814D01*
X61373203Y-74257999D01*
X61475991Y-74268500D01*
X62476008Y-74268499D01*
X62476016Y-74268498D01*
X62476019Y-74268498D01*
X62532302Y-74262748D01*
X62578797Y-74257999D01*
X62745334Y-74202814D01*
X62767550Y-74189110D01*
X62822107Y-74155461D01*
X62887203Y-74137000D01*
X73501643Y-74137000D01*
X73568682Y-74156685D01*
X73570534Y-74157898D01*
X73661814Y-74218890D01*
X73661827Y-74218897D01*
X73781579Y-74268499D01*
X73807503Y-74279237D01*
X73962153Y-74309999D01*
X73962156Y-74310000D01*
X73962158Y-74310000D01*
X74119844Y-74310000D01*
X74119845Y-74309999D01*
X74274497Y-74279237D01*
X74339049Y-74252498D01*
X74408516Y-74245030D01*
X74470995Y-74276305D01*
X74506648Y-74336394D01*
X74510500Y-74367060D01*
X74510500Y-74373846D01*
X74541261Y-74528489D01*
X74541264Y-74528501D01*
X74601602Y-74674172D01*
X74601609Y-74674185D01*
X74689210Y-74805288D01*
X74689213Y-74805292D01*
X74800707Y-74916786D01*
X74800711Y-74916789D01*
X74931814Y-75004390D01*
X74931827Y-75004397D01*
X75071315Y-75062174D01*
X75077503Y-75064737D01*
X75209535Y-75091000D01*
X75232153Y-75095499D01*
X75232156Y-75095500D01*
X75232158Y-75095500D01*
X75389844Y-75095500D01*
X75389845Y-75095499D01*
X75435831Y-75086352D01*
X75550472Y-75063549D01*
X75550989Y-75066151D01*
X75566458Y-75066011D01*
X75593147Y-75062174D01*
X75600869Y-75065700D01*
X75609359Y-75065624D01*
X75632175Y-75079997D01*
X75656703Y-75091199D01*
X75661292Y-75098340D01*
X75668476Y-75102866D01*
X75679898Y-75127292D01*
X75694477Y-75149977D01*
X75696239Y-75162236D01*
X75698073Y-75166157D01*
X75699500Y-75184912D01*
X75699500Y-75186189D01*
X75679815Y-75253228D01*
X75663181Y-75273870D01*
X74436992Y-76500059D01*
X74393289Y-76543762D01*
X74349586Y-76587464D01*
X74349585Y-76587466D01*
X74280233Y-76691259D01*
X74278586Y-76695863D01*
X74233615Y-76804432D01*
X74233612Y-76804442D01*
X74218609Y-76879869D01*
X74209500Y-76925662D01*
X74209500Y-78327807D01*
X74233612Y-78449027D01*
X74233614Y-78449035D01*
X74256839Y-78505105D01*
X74280917Y-78563234D01*
X74348576Y-78664494D01*
X74348577Y-78664494D01*
X74349590Y-78666010D01*
X74962955Y-79279374D01*
X74996440Y-79340697D01*
X74991456Y-79410388D01*
X74985759Y-79423349D01*
X74948441Y-79496589D01*
X74948441Y-79496591D01*
X74882753Y-79698759D01*
X74849500Y-79908713D01*
X74849500Y-80121287D01*
X74882754Y-80331243D01*
X74948443Y-80533412D01*
X75014078Y-80662229D01*
X75046676Y-80726205D01*
X75059572Y-80794874D01*
X75033296Y-80859615D01*
X74976189Y-80899872D01*
X74936191Y-80906500D01*
X72383809Y-80906500D01*
X72316770Y-80886815D01*
X72271015Y-80834011D01*
X72261071Y-80764853D01*
X72273324Y-80726205D01*
X72289316Y-80694819D01*
X72371557Y-80533412D01*
X72437246Y-80331243D01*
X72470500Y-80121287D01*
X72470500Y-79908713D01*
X72437246Y-79698757D01*
X72371557Y-79496588D01*
X72275051Y-79307184D01*
X72275049Y-79307182D01*
X72275046Y-79307175D01*
X72273774Y-79305099D01*
X72273508Y-79304156D01*
X72272839Y-79302843D01*
X72273100Y-79302709D01*
X72255500Y-79240308D01*
X72255500Y-78249691D01*
X72273101Y-78187290D01*
X72272839Y-78187157D01*
X72273511Y-78185837D01*
X72273778Y-78184892D01*
X72275037Y-78182834D01*
X72275051Y-78182816D01*
X72371557Y-77993412D01*
X72437246Y-77791243D01*
X72470500Y-77581287D01*
X72470500Y-77368713D01*
X72437246Y-77158757D01*
X72371557Y-76956588D01*
X72275051Y-76767184D01*
X72275049Y-76767181D01*
X72275048Y-76767179D01*
X72150109Y-76595213D01*
X71999786Y-76444890D01*
X71827820Y-76319951D01*
X71638414Y-76223444D01*
X71638413Y-76223443D01*
X71638412Y-76223443D01*
X71436243Y-76157754D01*
X71436241Y-76157753D01*
X71436240Y-76157753D01*
X71272863Y-76131877D01*
X71226287Y-76124500D01*
X71013713Y-76124500D01*
X70967137Y-76131877D01*
X70803760Y-76157753D01*
X70601585Y-76223444D01*
X70412179Y-76319951D01*
X70240213Y-76444890D01*
X70089890Y-76595213D01*
X69964951Y-76767179D01*
X69868444Y-76956585D01*
X69802753Y-77158760D01*
X69784813Y-77272029D01*
X69769500Y-77368713D01*
X69769500Y-77581287D01*
X69802754Y-77791243D01*
X69868443Y-77993412D01*
X69964949Y-78182816D01*
X69964955Y-78182825D01*
X69966222Y-78184892D01*
X69966488Y-78185837D01*
X69967161Y-78187157D01*
X69966898Y-78187290D01*
X69984500Y-78249691D01*
X69984500Y-78755500D01*
X69964815Y-78822539D01*
X69912011Y-78868294D01*
X69860500Y-78879500D01*
X68175021Y-78879500D01*
X68172161Y-78879037D01*
X68170653Y-78879423D01*
X68159304Y-78876957D01*
X68135917Y-78873173D01*
X68129638Y-78871086D01*
X68127881Y-78870191D01*
X68086193Y-78856646D01*
X68085852Y-78856535D01*
X68085716Y-78856490D01*
X67962476Y-78816447D01*
X67957897Y-78814959D01*
X67957895Y-78814958D01*
X67957894Y-78814958D01*
X67781370Y-78787000D01*
X67781366Y-78787000D01*
X65918134Y-78787000D01*
X65859290Y-78796320D01*
X65741601Y-78814960D01*
X65741598Y-78814960D01*
X65571621Y-78870189D01*
X65571618Y-78870191D01*
X65412367Y-78951333D01*
X65267770Y-79056390D01*
X65141390Y-79182770D01*
X65036333Y-79327367D01*
X64955191Y-79486618D01*
X64955189Y-79486621D01*
X64899960Y-79656598D01*
X64899960Y-79656601D01*
X64872000Y-79833134D01*
X64872000Y-80011865D01*
X64899960Y-80188398D01*
X64899960Y-80188401D01*
X64955189Y-80358378D01*
X64955191Y-80358381D01*
X65036333Y-80517632D01*
X65141390Y-80662229D01*
X65173980Y-80694819D01*
X65207465Y-80756142D01*
X65202481Y-80825834D01*
X65160609Y-80881767D01*
X65095145Y-80906184D01*
X65086299Y-80906500D01*
X55175281Y-80906500D01*
X55108242Y-80886815D01*
X55087600Y-80870181D01*
X45367819Y-71150400D01*
X45334334Y-71089077D01*
X45331500Y-71062719D01*
X45331500Y-62414281D01*
X45351185Y-62347242D01*
X45367819Y-62326600D01*
X47679600Y-60014819D01*
X47740923Y-59981334D01*
X47767281Y-59978500D01*
X54658719Y-59978500D01*
X54725758Y-59998185D01*
G37*
%TD.AperFunction*%
%TA.AperFunction,Conductor*%
G36*
X97374258Y-59871185D02*
G01*
X97420013Y-59923989D01*
X97429957Y-59993147D01*
X97400932Y-60056703D01*
X97394900Y-60063181D01*
X96681898Y-60776181D01*
X96620575Y-60809666D01*
X96594217Y-60812500D01*
X96019998Y-60812500D01*
X96019980Y-60812501D01*
X95917203Y-60823000D01*
X95917200Y-60823001D01*
X95750668Y-60878185D01*
X95750663Y-60878187D01*
X95601342Y-60970289D01*
X95591681Y-60979951D01*
X95530358Y-61013436D01*
X95460666Y-61008452D01*
X95416319Y-60979951D01*
X95406657Y-60970289D01*
X95406656Y-60970288D01*
X95257334Y-60878186D01*
X95090797Y-60823001D01*
X95090795Y-60823000D01*
X94988010Y-60812500D01*
X93987998Y-60812500D01*
X93987980Y-60812501D01*
X93885203Y-60823000D01*
X93885200Y-60823001D01*
X93718668Y-60878185D01*
X93718663Y-60878187D01*
X93569342Y-60970289D01*
X93445289Y-61094342D01*
X93353187Y-61243663D01*
X93353185Y-61243668D01*
X93331278Y-61309781D01*
X93298001Y-61410203D01*
X93298001Y-61410204D01*
X93298000Y-61410204D01*
X93287500Y-61512983D01*
X93287500Y-62138001D01*
X93287501Y-62138019D01*
X93298000Y-62240796D01*
X93298001Y-62240799D01*
X93353185Y-62407331D01*
X93353187Y-62407336D01*
X93365138Y-62426712D01*
X93438596Y-62545807D01*
X93449080Y-62562803D01*
X93447789Y-62563598D01*
X93470815Y-62620682D01*
X93457771Y-62689324D01*
X93409688Y-62740016D01*
X93341831Y-62756666D01*
X93282312Y-62738330D01*
X93225334Y-62703186D01*
X93058797Y-62648001D01*
X93058795Y-62648000D01*
X92956016Y-62637500D01*
X92956009Y-62637500D01*
X92359300Y-62637500D01*
X92344553Y-62633684D01*
X92332143Y-62634490D01*
X92308495Y-62624354D01*
X92299156Y-62621938D01*
X92294674Y-62619452D01*
X92245233Y-62586417D01*
X92211784Y-62572562D01*
X92205263Y-62569861D01*
X92205258Y-62569858D01*
X92131035Y-62539114D01*
X92131027Y-62539112D01*
X92009807Y-62515000D01*
X92009803Y-62515000D01*
X80810303Y-62515000D01*
X80686697Y-62515000D01*
X80686695Y-62515000D01*
X80565470Y-62539113D01*
X80565460Y-62539116D01*
X80451273Y-62586413D01*
X80451260Y-62586420D01*
X80348492Y-62655088D01*
X80348488Y-62655091D01*
X79296016Y-63707565D01*
X78951492Y-64052089D01*
X78920678Y-64082903D01*
X78864086Y-64139494D01*
X78864085Y-64139496D01*
X78795420Y-64242261D01*
X78795418Y-64242265D01*
X78791651Y-64251358D01*
X78791649Y-64251363D01*
X78789342Y-64256934D01*
X78748114Y-64356465D01*
X78727527Y-64459965D01*
X78726327Y-64465994D01*
X78726326Y-64466000D01*
X78724000Y-64477696D01*
X78724000Y-74012218D01*
X78704315Y-74079257D01*
X78687681Y-74099899D01*
X77928212Y-74859367D01*
X77908896Y-74869914D01*
X77892295Y-74884365D01*
X77878830Y-74886331D01*
X77866889Y-74892852D01*
X77844936Y-74891282D01*
X77823159Y-74894463D01*
X77810769Y-74888838D01*
X77797197Y-74887868D01*
X77779577Y-74874678D01*
X77759539Y-74865581D01*
X77744786Y-74848633D01*
X77741264Y-74845996D01*
X77736366Y-74838959D01*
X77736335Y-74838911D01*
X77716500Y-74771916D01*
X77716500Y-64185228D01*
X77736185Y-64118189D01*
X77752819Y-64097547D01*
X81962547Y-59887819D01*
X82023870Y-59854334D01*
X82050228Y-59851500D01*
X97307219Y-59851500D01*
X97374258Y-59871185D01*
G37*
%TD.AperFunction*%
%TA.AperFunction,Conductor*%
G36*
X57952784Y-60464185D02*
G01*
X57998539Y-60516989D01*
X58008483Y-60586147D01*
X57979458Y-60649703D01*
X57950841Y-60674039D01*
X57882344Y-60716287D01*
X57758289Y-60840342D01*
X57666187Y-60989663D01*
X57666185Y-60989668D01*
X57654412Y-61025197D01*
X57611001Y-61156203D01*
X57611001Y-61156204D01*
X57611000Y-61156204D01*
X57600500Y-61258983D01*
X57600500Y-61884001D01*
X57600501Y-61884019D01*
X57611000Y-61986796D01*
X57611001Y-61986799D01*
X57661105Y-62138001D01*
X57666186Y-62153334D01*
X57732224Y-62260400D01*
X57762080Y-62308803D01*
X57760789Y-62309598D01*
X57783815Y-62366682D01*
X57770771Y-62435324D01*
X57722688Y-62486016D01*
X57654831Y-62502666D01*
X57595312Y-62484330D01*
X57538334Y-62449186D01*
X57371797Y-62394001D01*
X57371795Y-62394000D01*
X57269010Y-62383500D01*
X56268998Y-62383500D01*
X56268980Y-62383501D01*
X56166203Y-62394000D01*
X56166200Y-62394001D01*
X55999668Y-62449185D01*
X55999663Y-62449187D01*
X55850336Y-62541293D01*
X55844672Y-62545772D01*
X55843070Y-62543745D01*
X55792313Y-62571424D01*
X55722624Y-62566400D01*
X55678343Y-62537924D01*
X55400819Y-62260400D01*
X55367334Y-62199077D01*
X55364500Y-62172719D01*
X55364500Y-61398281D01*
X55384185Y-61331242D01*
X55400819Y-61310600D01*
X56230600Y-60480819D01*
X56291923Y-60447334D01*
X56318281Y-60444500D01*
X57885745Y-60444500D01*
X57952784Y-60464185D01*
G37*
%TD.AperFunction*%
%TA.AperFunction,Conductor*%
G36*
X61022685Y-56641668D02*
G01*
X61079666Y-56676814D01*
X61246203Y-56731999D01*
X61348991Y-56742500D01*
X61923218Y-56742499D01*
X61990257Y-56762183D01*
X62010899Y-56778818D01*
X62836181Y-57604100D01*
X62850884Y-57631027D01*
X62867477Y-57656846D01*
X62868368Y-57663046D01*
X62869666Y-57665423D01*
X62872500Y-57691781D01*
X62872500Y-57854719D01*
X62852815Y-57921758D01*
X62836181Y-57942400D01*
X62091400Y-58687181D01*
X62030077Y-58720666D01*
X62003719Y-58723500D01*
X60664162Y-58723500D01*
X60597123Y-58703815D01*
X60551368Y-58651011D01*
X60541424Y-58581853D01*
X60570449Y-58518297D01*
X60599062Y-58493962D01*
X60735656Y-58409712D01*
X60859712Y-58285656D01*
X60951814Y-58136334D01*
X61006999Y-57969797D01*
X61017500Y-57867009D01*
X61017499Y-57241992D01*
X61006999Y-57139203D01*
X60951814Y-56972666D01*
X60859712Y-56823344D01*
X60859710Y-56823342D01*
X60855920Y-56817197D01*
X60857210Y-56816400D01*
X60834184Y-56759320D01*
X60847226Y-56690678D01*
X60895308Y-56639984D01*
X60963165Y-56623333D01*
X61022685Y-56641668D01*
G37*
%TD.AperFunction*%
%TA.AperFunction,Conductor*%
G36*
X96664785Y-56627836D02*
G01*
X96677317Y-56627605D01*
X96709683Y-56641666D01*
X96766666Y-56676814D01*
X96933203Y-56731999D01*
X97035991Y-56742500D01*
X98036008Y-56742499D01*
X98036016Y-56742498D01*
X98036019Y-56742498D01*
X98092302Y-56736748D01*
X98138797Y-56731999D01*
X98254563Y-56693637D01*
X98270125Y-56693102D01*
X98284717Y-56687660D01*
X98304327Y-56691925D01*
X98324386Y-56691236D01*
X98338710Y-56699405D01*
X98352990Y-56702512D01*
X98381244Y-56723663D01*
X98396181Y-56738600D01*
X98429666Y-56799923D01*
X98432500Y-56826281D01*
X98432500Y-58235719D01*
X98412815Y-58302758D01*
X98396181Y-58323400D01*
X98159400Y-58560181D01*
X98098077Y-58593666D01*
X98071719Y-58596500D01*
X96535230Y-58596500D01*
X96468191Y-58576815D01*
X96422436Y-58524011D01*
X96412492Y-58454853D01*
X96441517Y-58391297D01*
X96447549Y-58384819D01*
X96483339Y-58349029D01*
X96546712Y-58285656D01*
X96638814Y-58136334D01*
X96693999Y-57969797D01*
X96704500Y-57867009D01*
X96704499Y-57241992D01*
X96693999Y-57139203D01*
X96638814Y-56972666D01*
X96546712Y-56823344D01*
X96546710Y-56823342D01*
X96542920Y-56817197D01*
X96544210Y-56816400D01*
X96542103Y-56811176D01*
X96532769Y-56800799D01*
X96529289Y-56779411D01*
X96521184Y-56759320D01*
X96523789Y-56745609D01*
X96521548Y-56731836D01*
X96530181Y-56711966D01*
X96534226Y-56690678D01*
X96543830Y-56680551D01*
X96549391Y-56667754D01*
X96567395Y-56655706D01*
X96582308Y-56639984D01*
X96595863Y-56636657D01*
X96607460Y-56628898D01*
X96629120Y-56628497D01*
X96650165Y-56623333D01*
X96664785Y-56627836D01*
G37*
%TD.AperFunction*%
%TA.AperFunction,Conductor*%
G36*
X111001471Y-38600695D02*
G01*
X111038993Y-38602802D01*
X111304724Y-38617725D01*
X111318523Y-38619279D01*
X111613994Y-38669482D01*
X111614524Y-38669572D01*
X111628081Y-38672666D01*
X111916588Y-38755784D01*
X111929714Y-38760377D01*
X112207097Y-38875273D01*
X112219611Y-38881299D01*
X112426887Y-38995856D01*
X112482392Y-39026533D01*
X112494166Y-39033931D01*
X112739026Y-39207668D01*
X112749898Y-39216338D01*
X112943146Y-39389035D01*
X112973767Y-39416399D01*
X112983600Y-39426232D01*
X113183661Y-39650101D01*
X113192331Y-39660973D01*
X113366068Y-39905833D01*
X113373466Y-39917607D01*
X113518696Y-40180381D01*
X113524729Y-40192909D01*
X113639622Y-40470286D01*
X113644215Y-40483411D01*
X113727333Y-40771918D01*
X113730427Y-40785475D01*
X113780718Y-41081465D01*
X113782275Y-41095283D01*
X113799305Y-41398527D01*
X113799500Y-41405480D01*
X113799500Y-80514519D01*
X113799305Y-80521472D01*
X113782275Y-80824716D01*
X113780718Y-80838534D01*
X113730427Y-81134524D01*
X113727333Y-81148081D01*
X113644215Y-81436588D01*
X113639622Y-81449713D01*
X113524729Y-81727090D01*
X113518696Y-81739618D01*
X113373466Y-82002392D01*
X113366068Y-82014166D01*
X113192331Y-82259026D01*
X113183661Y-82269898D01*
X112983600Y-82493767D01*
X112973767Y-82503600D01*
X112749898Y-82703661D01*
X112739026Y-82712331D01*
X112494166Y-82886068D01*
X112482392Y-82893466D01*
X112219618Y-83038696D01*
X112207090Y-83044729D01*
X111929713Y-83159622D01*
X111916588Y-83164215D01*
X111628081Y-83247333D01*
X111614524Y-83250427D01*
X111318534Y-83300718D01*
X111304716Y-83302275D01*
X111001472Y-83319305D01*
X110994519Y-83319500D01*
X43945481Y-83319500D01*
X43938528Y-83319305D01*
X43635283Y-83302275D01*
X43621465Y-83300718D01*
X43325475Y-83250427D01*
X43311918Y-83247333D01*
X43023411Y-83164215D01*
X43010286Y-83159622D01*
X42732909Y-83044729D01*
X42720381Y-83038696D01*
X42457607Y-82893466D01*
X42445833Y-82886068D01*
X42200973Y-82712331D01*
X42190101Y-82703661D01*
X41966232Y-82503600D01*
X41956399Y-82493767D01*
X41874835Y-82402497D01*
X41756338Y-82269898D01*
X41747668Y-82259026D01*
X41573931Y-82014166D01*
X41566533Y-82002392D01*
X41528739Y-81934008D01*
X41421299Y-81739611D01*
X41415273Y-81727097D01*
X41300377Y-81449713D01*
X41295784Y-81436588D01*
X41212666Y-81148081D01*
X41209572Y-81134524D01*
X41159279Y-80838523D01*
X41157725Y-80824724D01*
X41140695Y-80521471D01*
X41140500Y-80514519D01*
X41140500Y-48261692D01*
X43187500Y-48261692D01*
X43187500Y-71435807D01*
X43211612Y-71557028D01*
X43211614Y-71557035D01*
X43224651Y-71588508D01*
X43258917Y-71671233D01*
X43262043Y-71675911D01*
X43267815Y-71684550D01*
X43267816Y-71684551D01*
X43327590Y-71774010D01*
X54209988Y-82656408D01*
X54209992Y-82656411D01*
X54312760Y-82725079D01*
X54312773Y-82725086D01*
X54426960Y-82772383D01*
X54426965Y-82772385D01*
X54426969Y-82772385D01*
X54426970Y-82772386D01*
X54548193Y-82796500D01*
X54548196Y-82796500D01*
X54548197Y-82796500D01*
X80359643Y-82796500D01*
X80426682Y-82816185D01*
X80428534Y-82817398D01*
X80519814Y-82878390D01*
X80519827Y-82878397D01*
X80665498Y-82938735D01*
X80665503Y-82938737D01*
X80820153Y-82969499D01*
X80820156Y-82969500D01*
X80820158Y-82969500D01*
X80977844Y-82969500D01*
X80977845Y-82969499D01*
X81132497Y-82938737D01*
X81278179Y-82878394D01*
X81409289Y-82790789D01*
X81520789Y-82679289D01*
X81608394Y-82548179D01*
X81668737Y-82402497D01*
X81695113Y-82269898D01*
X81696822Y-82261308D01*
X81729207Y-82199397D01*
X81789923Y-82164823D01*
X81818439Y-82161500D01*
X82362804Y-82161500D01*
X82362805Y-82161499D01*
X82484035Y-82137386D01*
X82564784Y-82103937D01*
X82598233Y-82090083D01*
X82701008Y-82021411D01*
X82788411Y-81934008D01*
X83320600Y-81401817D01*
X83381923Y-81368333D01*
X83408281Y-81365499D01*
X84717871Y-81365499D01*
X84717872Y-81365499D01*
X84777483Y-81359091D01*
X84912331Y-81308796D01*
X85027546Y-81222546D01*
X85113796Y-81107331D01*
X85164091Y-80972483D01*
X85170500Y-80912873D01*
X85170499Y-79117128D01*
X85164091Y-79057517D01*
X85163670Y-79056389D01*
X85113797Y-78922671D01*
X85113793Y-78922664D01*
X85027547Y-78807455D01*
X85027544Y-78807452D01*
X84912335Y-78721206D01*
X84912328Y-78721202D01*
X84780917Y-78672189D01*
X84724983Y-78630318D01*
X84700566Y-78564853D01*
X84715418Y-78496580D01*
X84736563Y-78468332D01*
X84850104Y-78354792D01*
X84975051Y-78182816D01*
X85071557Y-77993412D01*
X85137246Y-77791243D01*
X85170500Y-77581287D01*
X85170500Y-77368713D01*
X85137246Y-77158757D01*
X85071557Y-76956588D01*
X84975051Y-76767184D01*
X84975049Y-76767181D01*
X84975048Y-76767179D01*
X84850109Y-76595213D01*
X84699786Y-76444890D01*
X84527820Y-76319951D01*
X84488634Y-76299985D01*
X84437838Y-76252011D01*
X84421043Y-76184190D01*
X84443580Y-76118055D01*
X84498295Y-76074603D01*
X84544929Y-76065500D01*
X86810719Y-76065500D01*
X86877758Y-76085185D01*
X86898400Y-76101819D01*
X89682589Y-78886008D01*
X89747914Y-78951333D01*
X89769993Y-78973412D01*
X89872760Y-79042079D01*
X89872764Y-79042081D01*
X89872767Y-79042083D01*
X89898996Y-79052947D01*
X89898998Y-79052949D01*
X89898999Y-79052949D01*
X89935436Y-79068041D01*
X89986965Y-79089386D01*
X90108192Y-79113499D01*
X90108196Y-79113500D01*
X90108197Y-79113500D01*
X97978804Y-79113500D01*
X97978805Y-79113499D01*
X98100035Y-79089386D01*
X98188000Y-79052949D01*
X98214233Y-79042083D01*
X98317008Y-78973411D01*
X98404411Y-78886008D01*
X99801411Y-77489008D01*
X99870083Y-77386233D01*
X99917385Y-77272035D01*
X99925276Y-77232361D01*
X99941500Y-77150805D01*
X99941500Y-74868192D01*
X99937303Y-74847100D01*
X99937302Y-74847099D01*
X99937301Y-74847090D01*
X99917385Y-74746965D01*
X99900530Y-74706272D01*
X99870086Y-74632772D01*
X99870079Y-74632760D01*
X99801411Y-74529992D01*
X99801408Y-74529988D01*
X98772818Y-73501398D01*
X98739333Y-73440075D01*
X98736499Y-73413717D01*
X98736499Y-73196998D01*
X98736498Y-73196981D01*
X98725999Y-73094203D01*
X98725998Y-73094200D01*
X98704793Y-73030207D01*
X98670814Y-72927666D01*
X98578712Y-72778344D01*
X98454656Y-72654288D01*
X98305334Y-72562186D01*
X98167178Y-72516405D01*
X98109734Y-72476633D01*
X98082911Y-72412117D01*
X98091621Y-72351249D01*
X98139044Y-72236762D01*
X98154500Y-72119361D01*
X98154499Y-70765640D01*
X98154499Y-70765639D01*
X98154499Y-70765636D01*
X98139046Y-70648246D01*
X98139044Y-70648239D01*
X98139044Y-70648238D01*
X98078536Y-70502159D01*
X97982282Y-70376718D01*
X97856841Y-70280464D01*
X97778852Y-70248160D01*
X97710762Y-70219956D01*
X97710760Y-70219955D01*
X97593361Y-70204500D01*
X97314636Y-70204500D01*
X97197246Y-70219953D01*
X97197234Y-70219957D01*
X97176450Y-70228566D01*
X97106981Y-70236033D01*
X97081550Y-70228566D01*
X97060765Y-70219957D01*
X97060760Y-70219955D01*
X96943361Y-70204500D01*
X96664644Y-70204500D01*
X96577620Y-70215956D01*
X96508584Y-70205188D01*
X96473756Y-70180697D01*
X96163653Y-69870593D01*
X96163650Y-69870590D01*
X96129265Y-69847615D01*
X96060878Y-69801920D01*
X96060866Y-69801913D01*
X96027425Y-69788062D01*
X95946675Y-69754614D01*
X95946667Y-69754612D01*
X95825447Y-69730500D01*
X95825443Y-69730500D01*
X95262805Y-69730500D01*
X95139198Y-69730500D01*
X95139193Y-69730500D01*
X95017974Y-69754611D01*
X95017974Y-69754612D01*
X95017971Y-69754613D01*
X95017967Y-69754614D01*
X94951071Y-69782323D01*
X94951069Y-69782323D01*
X94903770Y-69801915D01*
X94903764Y-69801918D01*
X94835375Y-69847614D01*
X94835376Y-69847615D01*
X94800990Y-69870590D01*
X94800987Y-69870593D01*
X94495928Y-70175653D01*
X94434605Y-70209138D01*
X94392063Y-70210911D01*
X94343363Y-70204500D01*
X94064636Y-70204500D01*
X93947246Y-70219953D01*
X93947237Y-70219956D01*
X93801160Y-70280463D01*
X93675718Y-70376718D01*
X93579463Y-70502160D01*
X93518956Y-70648237D01*
X93518955Y-70648239D01*
X93503501Y-70765629D01*
X93503501Y-70765636D01*
X93503500Y-70765645D01*
X93503500Y-72119363D01*
X93518953Y-72236753D01*
X93518956Y-72236762D01*
X93548540Y-72308185D01*
X93555525Y-72325047D01*
X93562994Y-72394517D01*
X93531719Y-72456996D01*
X93471630Y-72492648D01*
X93440964Y-72496500D01*
X92971998Y-72496500D01*
X92971980Y-72496501D01*
X92869203Y-72507000D01*
X92869200Y-72507001D01*
X92702668Y-72562185D01*
X92702663Y-72562187D01*
X92553342Y-72654289D01*
X92429289Y-72778342D01*
X92337187Y-72927663D01*
X92337186Y-72927666D01*
X92282001Y-73094203D01*
X92282001Y-73094204D01*
X92282000Y-73094204D01*
X92271500Y-73196983D01*
X92271500Y-73822001D01*
X92271501Y-73822019D01*
X92282000Y-73924796D01*
X92282001Y-73924799D01*
X92333184Y-74079257D01*
X92337186Y-74091334D01*
X92414498Y-74216678D01*
X92429289Y-74240657D01*
X92522951Y-74334319D01*
X92556436Y-74395642D01*
X92551452Y-74465334D01*
X92522951Y-74509681D01*
X92429289Y-74603342D01*
X92337187Y-74752663D01*
X92337185Y-74752668D01*
X92318022Y-74810500D01*
X92282001Y-74919203D01*
X92282001Y-74919204D01*
X92282000Y-74919204D01*
X92271500Y-75021983D01*
X92271500Y-75091000D01*
X92251815Y-75158039D01*
X92199011Y-75203794D01*
X92147500Y-75215000D01*
X89996781Y-75215000D01*
X89929742Y-75195315D01*
X89909100Y-75178681D01*
X87023819Y-72293400D01*
X86990334Y-72232077D01*
X86987500Y-72205719D01*
X86987500Y-70048368D01*
X87007185Y-69981329D01*
X87055203Y-69937884D01*
X87159536Y-69884724D01*
X87353796Y-69743586D01*
X87523586Y-69573796D01*
X87664724Y-69379536D01*
X87773736Y-69165589D01*
X87847937Y-68937222D01*
X87885500Y-68700059D01*
X87885500Y-68459941D01*
X87847937Y-68222778D01*
X87773736Y-67994411D01*
X87773734Y-67994408D01*
X87773734Y-67994406D01*
X87664723Y-67780463D01*
X87523586Y-67586204D01*
X87353796Y-67416414D01*
X87159536Y-67275276D01*
X87148025Y-67269411D01*
X86945593Y-67166265D01*
X86717222Y-67092063D01*
X86652127Y-67081753D01*
X86480059Y-67054500D01*
X86239941Y-67054500D01*
X86142381Y-67069952D01*
X86002777Y-67092063D01*
X85774406Y-67166265D01*
X85560463Y-67275276D01*
X85366201Y-67416416D01*
X85196416Y-67586201D01*
X85055276Y-67780463D01*
X84946265Y-67994406D01*
X84872063Y-68222777D01*
X84834500Y-68459941D01*
X84834500Y-68700058D01*
X84872063Y-68937222D01*
X84946265Y-69165593D01*
X85055276Y-69379536D01*
X85196414Y-69573796D01*
X85366204Y-69743586D01*
X85560464Y-69884724D01*
X85664796Y-69937884D01*
X85715591Y-69985857D01*
X85732500Y-70048368D01*
X85732500Y-72578807D01*
X85756612Y-72700028D01*
X85756614Y-72700035D01*
X85784804Y-72768089D01*
X85803917Y-72814233D01*
X85865310Y-72906114D01*
X85867580Y-72909511D01*
X85867581Y-72909513D01*
X85872591Y-72917011D01*
X85872593Y-72917013D01*
X89198089Y-76242508D01*
X89255566Y-76299985D01*
X89285493Y-76329912D01*
X89388260Y-76398579D01*
X89388273Y-76398586D01*
X89500077Y-76444896D01*
X89502465Y-76445885D01*
X89532773Y-76451913D01*
X89623694Y-76470000D01*
X89623697Y-76470000D01*
X93025804Y-76470000D01*
X93025805Y-76469999D01*
X93147035Y-76445886D01*
X93227784Y-76412437D01*
X93261233Y-76398583D01*
X93310669Y-76365549D01*
X93315159Y-76363060D01*
X93344450Y-76356485D01*
X93373087Y-76347519D01*
X93375301Y-76347499D01*
X93972002Y-76347499D01*
X93972008Y-76347499D01*
X94074797Y-76336999D01*
X94241334Y-76281814D01*
X94390656Y-76189712D01*
X94400319Y-76180049D01*
X94461642Y-76146564D01*
X94531334Y-76151548D01*
X94575681Y-76180049D01*
X94585344Y-76189712D01*
X94734666Y-76281814D01*
X94901203Y-76336999D01*
X95003991Y-76347500D01*
X96004008Y-76347499D01*
X96004016Y-76347498D01*
X96004019Y-76347498D01*
X96060302Y-76341748D01*
X96106797Y-76336999D01*
X96273334Y-76281814D01*
X96422656Y-76189712D01*
X96546712Y-76065656D01*
X96638814Y-75916334D01*
X96693999Y-75749797D01*
X96704500Y-75647009D01*
X96704499Y-75021992D01*
X96702701Y-75004394D01*
X96693999Y-74919203D01*
X96693998Y-74919200D01*
X96683937Y-74888838D01*
X96638814Y-74752666D01*
X96546712Y-74603344D01*
X96546710Y-74603342D01*
X96542920Y-74597197D01*
X96544210Y-74596400D01*
X96521184Y-74539320D01*
X96534226Y-74470678D01*
X96582308Y-74419984D01*
X96650165Y-74403333D01*
X96709685Y-74421668D01*
X96766666Y-74456814D01*
X96933203Y-74511999D01*
X97035991Y-74522500D01*
X97967718Y-74522499D01*
X98034757Y-74542183D01*
X98055399Y-74558818D01*
X98650181Y-75153600D01*
X98683666Y-75214923D01*
X98686500Y-75241281D01*
X98686500Y-76777719D01*
X98666815Y-76844758D01*
X98650181Y-76865400D01*
X97693400Y-77822181D01*
X97632077Y-77855666D01*
X97605719Y-77858500D01*
X90481281Y-77858500D01*
X90414242Y-77838815D01*
X90393600Y-77822181D01*
X87522011Y-74950591D01*
X87522009Y-74950589D01*
X87510769Y-74943079D01*
X87497917Y-74934492D01*
X87419233Y-74881917D01*
X87385784Y-74868062D01*
X87378024Y-74864847D01*
X87378023Y-74864847D01*
X87305035Y-74834614D01*
X87305027Y-74834612D01*
X87183807Y-74810500D01*
X87183803Y-74810500D01*
X80838803Y-74810500D01*
X80715197Y-74810500D01*
X80715192Y-74810500D01*
X80593972Y-74834612D01*
X80593964Y-74834614D01*
X80513215Y-74868062D01*
X80479766Y-74881917D01*
X80479764Y-74881918D01*
X80401082Y-74934492D01*
X80401082Y-74934493D01*
X80376989Y-74950590D01*
X79195702Y-76131877D01*
X79134379Y-76165362D01*
X79069707Y-76162128D01*
X79056245Y-76157754D01*
X79056240Y-76157753D01*
X78892863Y-76131877D01*
X78846287Y-76124500D01*
X78737280Y-76124500D01*
X78670241Y-76104815D01*
X78624486Y-76052011D01*
X78614542Y-75982853D01*
X78643567Y-75919297D01*
X78649599Y-75912819D01*
X79169403Y-75393016D01*
X79838911Y-74723508D01*
X79867653Y-74680492D01*
X79907583Y-74620733D01*
X79921437Y-74587284D01*
X79954886Y-74506535D01*
X79979000Y-74385303D01*
X79979000Y-74261697D01*
X79979000Y-64850781D01*
X79998685Y-64783742D01*
X80015319Y-64763100D01*
X80972100Y-63806319D01*
X81033423Y-63772834D01*
X81059781Y-63770000D01*
X91131501Y-63770000D01*
X91198540Y-63789685D01*
X91244295Y-63842489D01*
X91255501Y-63894000D01*
X91255501Y-63963007D01*
X91266000Y-64065796D01*
X91266001Y-64065799D01*
X91321185Y-64232331D01*
X91321187Y-64232336D01*
X91327760Y-64242992D01*
X91413288Y-64381656D01*
X91537344Y-64505712D01*
X91686666Y-64597814D01*
X91853203Y-64652999D01*
X91955991Y-64663500D01*
X92530218Y-64663499D01*
X92597257Y-64683183D01*
X92617899Y-64699818D01*
X92822500Y-64904419D01*
X92855985Y-64965742D01*
X92857759Y-65008281D01*
X92853500Y-65040640D01*
X92853500Y-66394363D01*
X92868953Y-66511753D01*
X92868956Y-66511762D01*
X92929464Y-66657842D01*
X92983315Y-66728022D01*
X92994392Y-66747203D01*
X92995043Y-66746856D01*
X92997914Y-66752226D01*
X92997915Y-66752228D01*
X92997917Y-66752232D01*
X93018664Y-66783282D01*
X93018665Y-66783283D01*
X93066590Y-66855009D01*
X93066591Y-66855010D01*
X93540590Y-67329008D01*
X93585504Y-67373922D01*
X93627995Y-67416413D01*
X93627997Y-67416414D01*
X93730757Y-67485076D01*
X93730759Y-67485077D01*
X93730768Y-67485083D01*
X93755773Y-67495440D01*
X93778072Y-67504677D01*
X93820255Y-67522149D01*
X93844967Y-67532386D01*
X93966193Y-67556499D01*
X93966197Y-67556500D01*
X93966198Y-67556500D01*
X95091803Y-67556500D01*
X95091804Y-67556499D01*
X95213034Y-67532386D01*
X95293783Y-67498937D01*
X95327232Y-67485083D01*
X95430007Y-67416411D01*
X95465754Y-67380663D01*
X95475805Y-67373922D01*
X95498046Y-67366914D01*
X95518519Y-67355735D01*
X95530750Y-67356609D01*
X95542445Y-67352925D01*
X95564947Y-67359055D01*
X95588211Y-67360719D01*
X95592292Y-67362324D01*
X95647966Y-67385385D01*
X95647970Y-67385385D01*
X95647971Y-67385386D01*
X95769195Y-67409500D01*
X95769198Y-67409500D01*
X96538803Y-67409500D01*
X96538804Y-67409499D01*
X96660034Y-67385386D01*
X96740783Y-67351937D01*
X96774232Y-67338083D01*
X96877007Y-67269411D01*
X96964410Y-67182008D01*
X97162071Y-66984345D01*
X97223394Y-66950861D01*
X97265937Y-66949088D01*
X97314639Y-66955500D01*
X97593360Y-66955499D01*
X97593363Y-66955499D01*
X97710753Y-66940046D01*
X97710757Y-66940044D01*
X97710762Y-66940044D01*
X97856841Y-66879536D01*
X97982282Y-66783282D01*
X98078536Y-66657841D01*
X98139044Y-66511762D01*
X98154500Y-66394361D01*
X98154499Y-66280125D01*
X98174183Y-66213086D01*
X98175356Y-66211295D01*
X98246402Y-66104968D01*
X98308065Y-65956102D01*
X98339500Y-65798066D01*
X98339500Y-65108688D01*
X98359185Y-65041649D01*
X98375815Y-65021011D01*
X98672008Y-64724817D01*
X98733331Y-64691333D01*
X98759689Y-64688499D01*
X99077002Y-64688499D01*
X99077008Y-64688499D01*
X99179797Y-64677999D01*
X99346334Y-64622814D01*
X99467383Y-64548150D01*
X99534774Y-64529710D01*
X99579933Y-64539129D01*
X99583392Y-64540562D01*
X99583395Y-64540562D01*
X99583398Y-64540564D01*
X99583402Y-64540564D01*
X99583403Y-64540565D01*
X99741431Y-64572000D01*
X99741434Y-64572000D01*
X99902568Y-64572000D01*
X100022460Y-64548151D01*
X100060602Y-64540564D01*
X100144743Y-64505712D01*
X100209464Y-64478904D01*
X100209465Y-64478903D01*
X100209468Y-64478902D01*
X100343445Y-64389382D01*
X100457382Y-64275445D01*
X100546902Y-64141468D01*
X100547721Y-64139492D01*
X100587405Y-64043685D01*
X100608564Y-63992602D01*
X100630184Y-63883913D01*
X100640000Y-63834568D01*
X100640000Y-63673431D01*
X100608565Y-63515403D01*
X100608564Y-63515402D01*
X100608564Y-63515398D01*
X100555962Y-63388404D01*
X100546904Y-63366535D01*
X100457380Y-63232552D01*
X100277448Y-63052620D01*
X100277444Y-63052617D01*
X100143474Y-62963100D01*
X100143461Y-62963093D01*
X99994606Y-62901436D01*
X99994594Y-62901433D01*
X99836570Y-62870000D01*
X99836566Y-62870000D01*
X99570010Y-62870000D01*
X99502971Y-62850315D01*
X99497674Y-62846533D01*
X99495621Y-62845267D01*
X99374043Y-62770277D01*
X99346336Y-62753187D01*
X99346331Y-62753185D01*
X99344862Y-62752698D01*
X99179797Y-62698001D01*
X99179795Y-62698000D01*
X99077010Y-62687500D01*
X98026998Y-62687500D01*
X98026980Y-62687501D01*
X97924203Y-62698000D01*
X97924200Y-62698001D01*
X97757668Y-62753185D01*
X97757659Y-62753189D01*
X97638962Y-62826402D01*
X97571570Y-62844842D01*
X97504906Y-62823919D01*
X97460137Y-62770277D01*
X97451476Y-62700946D01*
X97481673Y-62637939D01*
X97486148Y-62633219D01*
X97562712Y-62556656D01*
X97654814Y-62407334D01*
X97709999Y-62240797D01*
X97720500Y-62138009D01*
X97720499Y-61563779D01*
X97740183Y-61496741D01*
X97756813Y-61476104D01*
X98625100Y-60607819D01*
X98686423Y-60574334D01*
X98712781Y-60571500D01*
X100526719Y-60571500D01*
X100593758Y-60591185D01*
X100614400Y-60607819D01*
X103476181Y-63469600D01*
X103509666Y-63530923D01*
X103512500Y-63557281D01*
X103512500Y-67111631D01*
X103492815Y-67178670D01*
X103444796Y-67222115D01*
X103340465Y-67275274D01*
X103146201Y-67416416D01*
X102976416Y-67586201D01*
X102835276Y-67780463D01*
X102726265Y-67994406D01*
X102652063Y-68222777D01*
X102614500Y-68459941D01*
X102614500Y-68700058D01*
X102652063Y-68937222D01*
X102726265Y-69165593D01*
X102835276Y-69379536D01*
X102976414Y-69573796D01*
X103146204Y-69743586D01*
X103340464Y-69884724D01*
X103412943Y-69921654D01*
X103554406Y-69993734D01*
X103554408Y-69993734D01*
X103554411Y-69993736D01*
X103782778Y-70067937D01*
X104019941Y-70105500D01*
X104019942Y-70105500D01*
X104260058Y-70105500D01*
X104260059Y-70105500D01*
X104497222Y-70067937D01*
X104725589Y-69993736D01*
X104939536Y-69884724D01*
X105133796Y-69743586D01*
X105303586Y-69573796D01*
X105444724Y-69379536D01*
X105553736Y-69165589D01*
X105627937Y-68937222D01*
X105665500Y-68700059D01*
X105665500Y-68459941D01*
X105627937Y-68222778D01*
X105553736Y-67994411D01*
X105553734Y-67994408D01*
X105553734Y-67994406D01*
X105444723Y-67780463D01*
X105303586Y-67586204D01*
X105133796Y-67416414D01*
X105011960Y-67327895D01*
X104939534Y-67275274D01*
X104835204Y-67222115D01*
X104784409Y-67174141D01*
X104767500Y-67111631D01*
X104767500Y-63184194D01*
X104743386Y-63062970D01*
X104743385Y-63062969D01*
X104743385Y-63062965D01*
X104702017Y-62963093D01*
X104696086Y-62948773D01*
X104696079Y-62948760D01*
X104627412Y-62845993D01*
X104603084Y-62821665D01*
X104540008Y-62758589D01*
X102897237Y-61115818D01*
X101238011Y-59456591D01*
X101238007Y-59456588D01*
X101135239Y-59387920D01*
X101135226Y-59387913D01*
X101101785Y-59374062D01*
X101021035Y-59340614D01*
X101021027Y-59340612D01*
X100899807Y-59316500D01*
X100899803Y-59316500D01*
X99477282Y-59316500D01*
X99410243Y-59296815D01*
X99364488Y-59244011D01*
X99354544Y-59174853D01*
X99383569Y-59111297D01*
X99389601Y-59104819D01*
X99547408Y-58947011D01*
X99547409Y-58947010D01*
X99547411Y-58947008D01*
X99560935Y-58926768D01*
X99616083Y-58844233D01*
X99647086Y-58769385D01*
X99663386Y-58730034D01*
X99687500Y-58608803D01*
X99687500Y-58485196D01*
X99687500Y-56453197D01*
X99663386Y-56331966D01*
X99618407Y-56223379D01*
X99616763Y-56218784D01*
X99547414Y-56114996D01*
X99547413Y-56114994D01*
X99511318Y-56078899D01*
X99460008Y-56027589D01*
X98736559Y-55304140D01*
X98706534Y-55255463D01*
X98670814Y-55147666D01*
X98578712Y-54998344D01*
X98454656Y-54874288D01*
X98305334Y-54782186D01*
X98305332Y-54782185D01*
X98305330Y-54782184D01*
X98305329Y-54782183D01*
X98248495Y-54763350D01*
X98191050Y-54723577D01*
X98164228Y-54659061D01*
X98163500Y-54645645D01*
X98163500Y-53682695D01*
X98156882Y-53649427D01*
X98154499Y-53625234D01*
X98154499Y-52985636D01*
X98139046Y-52868246D01*
X98139044Y-52868239D01*
X98139044Y-52868238D01*
X98078536Y-52722159D01*
X97982282Y-52596718D01*
X97856841Y-52500464D01*
X97710762Y-52439956D01*
X97710760Y-52439955D01*
X97593361Y-52424500D01*
X97314636Y-52424500D01*
X97197246Y-52439953D01*
X97197234Y-52439957D01*
X97176450Y-52448566D01*
X97106981Y-52456033D01*
X97081550Y-52448566D01*
X97060765Y-52439957D01*
X97060760Y-52439955D01*
X96943361Y-52424500D01*
X96664637Y-52424500D01*
X96615937Y-52430912D01*
X96546902Y-52420146D01*
X96512072Y-52395654D01*
X96207009Y-52090590D01*
X96207006Y-52090588D01*
X96104238Y-52021920D01*
X96104225Y-52021913D01*
X96070784Y-52008062D01*
X95990034Y-51974614D01*
X95990026Y-51974612D01*
X95868806Y-51950500D01*
X95868802Y-51950500D01*
X95262805Y-51950500D01*
X95139198Y-51950500D01*
X95139193Y-51950500D01*
X95017974Y-51974611D01*
X95017974Y-51974612D01*
X95017971Y-51974613D01*
X95017967Y-51974614D01*
X94951071Y-52002323D01*
X94951069Y-52002323D01*
X94903771Y-52021915D01*
X94800989Y-52090591D01*
X94495928Y-52395653D01*
X94434605Y-52429138D01*
X94392063Y-52430911D01*
X94343363Y-52424500D01*
X94064636Y-52424500D01*
X93947246Y-52439953D01*
X93947237Y-52439956D01*
X93801160Y-52500463D01*
X93675718Y-52596718D01*
X93579463Y-52722160D01*
X93518956Y-52868237D01*
X93518955Y-52868239D01*
X93503501Y-52985629D01*
X93503501Y-52985636D01*
X93503500Y-52985645D01*
X93503500Y-54339363D01*
X93518953Y-54456753D01*
X93518956Y-54456762D01*
X93555525Y-54545047D01*
X93562994Y-54614517D01*
X93531719Y-54676996D01*
X93471630Y-54712648D01*
X93440964Y-54716500D01*
X92971998Y-54716500D01*
X92971980Y-54716501D01*
X92869203Y-54727000D01*
X92869200Y-54727001D01*
X92702668Y-54782185D01*
X92702663Y-54782187D01*
X92553342Y-54874289D01*
X92429289Y-54998342D01*
X92337187Y-55147663D01*
X92337185Y-55147668D01*
X92312030Y-55223583D01*
X92282001Y-55314203D01*
X92282001Y-55314204D01*
X92282000Y-55314204D01*
X92271500Y-55416983D01*
X92271500Y-56042001D01*
X92271501Y-56042019D01*
X92282000Y-56144796D01*
X92282001Y-56144799D01*
X92337185Y-56311331D01*
X92337186Y-56311334D01*
X92424687Y-56453197D01*
X92429289Y-56460657D01*
X92522951Y-56554319D01*
X92556436Y-56615642D01*
X92551452Y-56685334D01*
X92522951Y-56729681D01*
X92429289Y-56823342D01*
X92337187Y-56972663D01*
X92337185Y-56972668D01*
X92334592Y-56980494D01*
X92300537Y-57083267D01*
X92296316Y-57096004D01*
X92256543Y-57153449D01*
X92192027Y-57180272D01*
X92178610Y-57181000D01*
X89361781Y-57181000D01*
X89294742Y-57161315D01*
X89274100Y-57144681D01*
X87023819Y-54894400D01*
X86990334Y-54833077D01*
X86987500Y-54806719D01*
X86987500Y-52268368D01*
X87007185Y-52201329D01*
X87055203Y-52157884D01*
X87159536Y-52104724D01*
X87353796Y-51963586D01*
X87523586Y-51793796D01*
X87664724Y-51599536D01*
X87773736Y-51385589D01*
X87847937Y-51157222D01*
X87885500Y-50920059D01*
X87885500Y-50679941D01*
X87847937Y-50442778D01*
X87773736Y-50214411D01*
X87773734Y-50214408D01*
X87773734Y-50214406D01*
X87664723Y-50000463D01*
X87523586Y-49806204D01*
X87353796Y-49636414D01*
X87159536Y-49495276D01*
X87117709Y-49473964D01*
X86945593Y-49386265D01*
X86717222Y-49312063D01*
X86480059Y-49274500D01*
X86239941Y-49274500D01*
X86121359Y-49293281D01*
X86002777Y-49312063D01*
X85774406Y-49386265D01*
X85560463Y-49495276D01*
X85366201Y-49636416D01*
X85196416Y-49806201D01*
X85055276Y-50000463D01*
X84946265Y-50214406D01*
X84872063Y-50442777D01*
X84834500Y-50679941D01*
X84834500Y-50920058D01*
X84872063Y-51157222D01*
X84946265Y-51385593D01*
X85055276Y-51599536D01*
X85196414Y-51793796D01*
X85366204Y-51963586D01*
X85560464Y-52104724D01*
X85664796Y-52157884D01*
X85715591Y-52205857D01*
X85732500Y-52268368D01*
X85732500Y-55179807D01*
X85756612Y-55301029D01*
X85756614Y-55301035D01*
X85762067Y-55314200D01*
X85768400Y-55329486D01*
X85768401Y-55329493D01*
X85768402Y-55329493D01*
X85803913Y-55415226D01*
X85803920Y-55415239D01*
X85872588Y-55518007D01*
X85872591Y-55518011D01*
X88563089Y-58208508D01*
X88640237Y-58285656D01*
X88650494Y-58295913D01*
X88650496Y-58295914D01*
X88758332Y-58367968D01*
X88757203Y-58369656D01*
X88800418Y-58412110D01*
X88815875Y-58480248D01*
X88792039Y-58545927D01*
X88736480Y-58588293D01*
X88692117Y-58596500D01*
X81677142Y-58596500D01*
X81555917Y-58620613D01*
X81555907Y-58620616D01*
X81441720Y-58667913D01*
X81441707Y-58667920D01*
X81360650Y-58722082D01*
X81338939Y-58736588D01*
X81338933Y-58736593D01*
X77166181Y-62909346D01*
X77104858Y-62942831D01*
X77035166Y-62937847D01*
X76979233Y-62895975D01*
X76954816Y-62830511D01*
X76954500Y-62821665D01*
X76954500Y-49968281D01*
X76974185Y-49901242D01*
X76990819Y-49880600D01*
X80591100Y-46280319D01*
X80652423Y-46246834D01*
X80678781Y-46244000D01*
X91162610Y-46244000D01*
X91229649Y-46263685D01*
X91275404Y-46316489D01*
X91280314Y-46328992D01*
X91321186Y-46452334D01*
X91413288Y-46601656D01*
X91537344Y-46725712D01*
X91686666Y-46817814D01*
X91853203Y-46872999D01*
X91955991Y-46883500D01*
X92751218Y-46883499D01*
X92780664Y-46892145D01*
X92810645Y-46898667D01*
X92815658Y-46902419D01*
X92818257Y-46903183D01*
X92838899Y-46919818D01*
X92867003Y-46947922D01*
X92900488Y-47009245D01*
X92895504Y-47078937D01*
X92893884Y-47083053D01*
X92868956Y-47143238D01*
X92853501Y-47260629D01*
X92853500Y-47260645D01*
X92853500Y-48614363D01*
X92868953Y-48731753D01*
X92868956Y-48731762D01*
X92929464Y-48877842D01*
X92983315Y-48948022D01*
X92994392Y-48967203D01*
X92995043Y-48966856D01*
X92997914Y-48972226D01*
X92997915Y-48972228D01*
X92997917Y-48972232D01*
X93052295Y-49053615D01*
X93066589Y-49075007D01*
X93066592Y-49075011D01*
X93066593Y-49075012D01*
X93413590Y-49422008D01*
X93465546Y-49473964D01*
X93500994Y-49509412D01*
X93603761Y-49578079D01*
X93603774Y-49578086D01*
X93645084Y-49595197D01*
X93645085Y-49595197D01*
X93717967Y-49625386D01*
X93839193Y-49649499D01*
X93839197Y-49649500D01*
X93839198Y-49649500D01*
X95218803Y-49649500D01*
X95218804Y-49649499D01*
X95340034Y-49625386D01*
X95448901Y-49580291D01*
X95454232Y-49578083D01*
X95454236Y-49578080D01*
X95456560Y-49577118D01*
X95526030Y-49569658D01*
X95551451Y-49577124D01*
X95595084Y-49595197D01*
X95595085Y-49595197D01*
X95667967Y-49625386D01*
X95789193Y-49649499D01*
X95789197Y-49649500D01*
X95789198Y-49649500D01*
X96518803Y-49649500D01*
X96518804Y-49649499D01*
X96640034Y-49625386D01*
X96748901Y-49580291D01*
X96754232Y-49578083D01*
X96857007Y-49509411D01*
X96944410Y-49422008D01*
X97162071Y-49204345D01*
X97223394Y-49170861D01*
X97265937Y-49169088D01*
X97314639Y-49175500D01*
X97593360Y-49175499D01*
X97593363Y-49175499D01*
X97710753Y-49160046D01*
X97710757Y-49160044D01*
X97710762Y-49160044D01*
X97856841Y-49099536D01*
X97982282Y-49003282D01*
X98078536Y-48877841D01*
X98139044Y-48731762D01*
X98154500Y-48614361D01*
X98154499Y-48500125D01*
X98174183Y-48433086D01*
X98175356Y-48431295D01*
X98246402Y-48324968D01*
X98308065Y-48176102D01*
X98339500Y-48018066D01*
X98339500Y-47328688D01*
X98359185Y-47261649D01*
X98375815Y-47241011D01*
X98672008Y-46944817D01*
X98733331Y-46911333D01*
X98759689Y-46908499D01*
X99077002Y-46908499D01*
X99077008Y-46908499D01*
X99179797Y-46897999D01*
X99346334Y-46842814D01*
X99467383Y-46768150D01*
X99534774Y-46749710D01*
X99579933Y-46759129D01*
X99583392Y-46760562D01*
X99583395Y-46760562D01*
X99583398Y-46760564D01*
X99583402Y-46760564D01*
X99583403Y-46760565D01*
X99741431Y-46792000D01*
X99741434Y-46792000D01*
X99902568Y-46792000D01*
X100022460Y-46768151D01*
X100060602Y-46760564D01*
X100144743Y-46725712D01*
X100209464Y-46698904D01*
X100209465Y-46698903D01*
X100209468Y-46698902D01*
X100343445Y-46609382D01*
X100457382Y-46495445D01*
X100546902Y-46361468D01*
X100608564Y-46212602D01*
X100640000Y-46054566D01*
X100640000Y-45893434D01*
X100640000Y-45893431D01*
X100608565Y-45735403D01*
X100608564Y-45735402D01*
X100608564Y-45735398D01*
X100584281Y-45676773D01*
X100546904Y-45586535D01*
X100457380Y-45452552D01*
X100277448Y-45272620D01*
X100277444Y-45272617D01*
X100143474Y-45183100D01*
X100143461Y-45183093D01*
X99994606Y-45121436D01*
X99994594Y-45121433D01*
X99836570Y-45090000D01*
X99836566Y-45090000D01*
X99570010Y-45090000D01*
X99502971Y-45070315D01*
X99497674Y-45066533D01*
X99494932Y-45064842D01*
X99371973Y-44989000D01*
X99346336Y-44973187D01*
X99346331Y-44973185D01*
X99323139Y-44965500D01*
X99179797Y-44918001D01*
X99179795Y-44918000D01*
X99077010Y-44907500D01*
X98026998Y-44907500D01*
X98026980Y-44907501D01*
X97924203Y-44918000D01*
X97924200Y-44918001D01*
X97757668Y-44973185D01*
X97757659Y-44973189D01*
X97638962Y-45046402D01*
X97571570Y-45064842D01*
X97504906Y-45043919D01*
X97460137Y-44990277D01*
X97451476Y-44920946D01*
X97481673Y-44857939D01*
X97486148Y-44853219D01*
X97562712Y-44776656D01*
X97654814Y-44627334D01*
X97709999Y-44460797D01*
X97720500Y-44358009D01*
X97720499Y-43783779D01*
X97740183Y-43716741D01*
X97756813Y-43696104D01*
X98625100Y-42827819D01*
X98686423Y-42794334D01*
X98712781Y-42791500D01*
X100399719Y-42791500D01*
X100466758Y-42811185D01*
X100487400Y-42827819D01*
X103476181Y-45816600D01*
X103509666Y-45877923D01*
X103512500Y-45904281D01*
X103512500Y-49331631D01*
X103492815Y-49398670D01*
X103444796Y-49442115D01*
X103340465Y-49495274D01*
X103146201Y-49636416D01*
X102976416Y-49806201D01*
X102835276Y-50000463D01*
X102726265Y-50214406D01*
X102652063Y-50442777D01*
X102614500Y-50679941D01*
X102614500Y-50920058D01*
X102652063Y-51157222D01*
X102726265Y-51385593D01*
X102835276Y-51599536D01*
X102976414Y-51793796D01*
X103146204Y-51963586D01*
X103340464Y-52104724D01*
X103416517Y-52143475D01*
X103554406Y-52213734D01*
X103554408Y-52213734D01*
X103554411Y-52213736D01*
X103782778Y-52287937D01*
X104019941Y-52325500D01*
X104019942Y-52325500D01*
X104260058Y-52325500D01*
X104260059Y-52325500D01*
X104497222Y-52287937D01*
X104725589Y-52213736D01*
X104939536Y-52104724D01*
X105133796Y-51963586D01*
X105303586Y-51793796D01*
X105444724Y-51599536D01*
X105553736Y-51385589D01*
X105627937Y-51157222D01*
X105665500Y-50920059D01*
X105665500Y-50679941D01*
X105627937Y-50442778D01*
X105553736Y-50214411D01*
X105553734Y-50214408D01*
X105553734Y-50214406D01*
X105444723Y-50000463D01*
X105303586Y-49806204D01*
X105133796Y-49636414D01*
X105003172Y-49541510D01*
X104939534Y-49495274D01*
X104835204Y-49442115D01*
X104784409Y-49394141D01*
X104767500Y-49331631D01*
X104767500Y-45531194D01*
X104743386Y-45409970D01*
X104743385Y-45409969D01*
X104743385Y-45409965D01*
X104743383Y-45409960D01*
X104696086Y-45295773D01*
X104696079Y-45295760D01*
X104627412Y-45192993D01*
X104586685Y-45152266D01*
X104540008Y-45105589D01*
X102898082Y-43463663D01*
X101111198Y-41676778D01*
X101111195Y-41676776D01*
X101111008Y-41676589D01*
X101109378Y-41675500D01*
X101008233Y-41607917D01*
X100974784Y-41594062D01*
X100966507Y-41590633D01*
X100966503Y-41590631D01*
X100894035Y-41560614D01*
X100894027Y-41560612D01*
X100772807Y-41536500D01*
X100772803Y-41536500D01*
X98463303Y-41536500D01*
X98339697Y-41536500D01*
X98339692Y-41536500D01*
X98218473Y-41560611D01*
X98218473Y-41560612D01*
X98218470Y-41560613D01*
X98218466Y-41560614D01*
X98151570Y-41588323D01*
X98151568Y-41588323D01*
X98104269Y-41607915D01*
X98003128Y-41675496D01*
X98003119Y-41675502D01*
X98001492Y-41676588D01*
X96681898Y-42996181D01*
X96620575Y-43029666D01*
X96594217Y-43032500D01*
X96019998Y-43032500D01*
X96019980Y-43032501D01*
X95917203Y-43043000D01*
X95917200Y-43043001D01*
X95750668Y-43098185D01*
X95750663Y-43098187D01*
X95601342Y-43190289D01*
X95591681Y-43199951D01*
X95530358Y-43233436D01*
X95460666Y-43228452D01*
X95416319Y-43199951D01*
X95406657Y-43190289D01*
X95406656Y-43190288D01*
X95257334Y-43098186D01*
X95090797Y-43043001D01*
X95090795Y-43043000D01*
X94988010Y-43032500D01*
X93987998Y-43032500D01*
X93987980Y-43032501D01*
X93885203Y-43043000D01*
X93885200Y-43043001D01*
X93718668Y-43098185D01*
X93718663Y-43098187D01*
X93569342Y-43190289D01*
X93445289Y-43314342D01*
X93353187Y-43463663D01*
X93353186Y-43463666D01*
X93298001Y-43630203D01*
X93298001Y-43630204D01*
X93298000Y-43630204D01*
X93287500Y-43732983D01*
X93287500Y-44358001D01*
X93287501Y-44358019D01*
X93298000Y-44460796D01*
X93298001Y-44460799D01*
X93353185Y-44627331D01*
X93353187Y-44627336D01*
X93449080Y-44782803D01*
X93447789Y-44783598D01*
X93470815Y-44840682D01*
X93457771Y-44909324D01*
X93409688Y-44960016D01*
X93341831Y-44976666D01*
X93282312Y-44958330D01*
X93225334Y-44923186D01*
X93058797Y-44868001D01*
X93058795Y-44868000D01*
X92956010Y-44857500D01*
X91955998Y-44857500D01*
X91955980Y-44857501D01*
X91853203Y-44868000D01*
X91853200Y-44868001D01*
X91686668Y-44923185D01*
X91686659Y-44923189D01*
X91609893Y-44970539D01*
X91544797Y-44989000D01*
X80583159Y-44989000D01*
X80558968Y-44986617D01*
X80452807Y-44965500D01*
X80452803Y-44965500D01*
X80329197Y-44965500D01*
X80329192Y-44965500D01*
X80207972Y-44989612D01*
X80207964Y-44989614D01*
X80093766Y-45036917D01*
X79990993Y-45105587D01*
X79990986Y-45105593D01*
X76920487Y-48176094D01*
X75926992Y-49169589D01*
X75892235Y-49204346D01*
X75839586Y-49256994D01*
X75839585Y-49256996D01*
X75770233Y-49360789D01*
X75768586Y-49365393D01*
X75723614Y-49473964D01*
X75723612Y-49473972D01*
X75702903Y-49578081D01*
X75702904Y-49578082D01*
X75699500Y-49595196D01*
X75699500Y-63717718D01*
X75679815Y-63784757D01*
X75627011Y-63830512D01*
X75557853Y-63840456D01*
X75494297Y-63811431D01*
X75487819Y-63805399D01*
X71012010Y-59329590D01*
X71004331Y-59324459D01*
X70992419Y-59316500D01*
X70909233Y-59260917D01*
X70875784Y-59247062D01*
X70867909Y-59243800D01*
X70867904Y-59243797D01*
X70795035Y-59213614D01*
X70795027Y-59213612D01*
X70673807Y-59189500D01*
X70673803Y-59189500D01*
X63663281Y-59189500D01*
X63596242Y-59169815D01*
X63550487Y-59117011D01*
X63540543Y-59047853D01*
X63569568Y-58984297D01*
X63575600Y-58977819D01*
X63987408Y-58566011D01*
X63987411Y-58566008D01*
X64001903Y-58544318D01*
X64030304Y-58501815D01*
X64030305Y-58501813D01*
X64056078Y-58463241D01*
X64056079Y-58463238D01*
X64056083Y-58463233D01*
X64103385Y-58349035D01*
X64115992Y-58285656D01*
X64127500Y-58227805D01*
X64127500Y-57318695D01*
X64123197Y-57297065D01*
X64114316Y-57252417D01*
X64103386Y-57197466D01*
X64056801Y-57085002D01*
X64056352Y-57083669D01*
X63987414Y-56980496D01*
X63987413Y-56980494D01*
X63979582Y-56972663D01*
X63900008Y-56893089D01*
X63085818Y-56078899D01*
X63052333Y-56017576D01*
X63049499Y-55991226D01*
X63049499Y-55416992D01*
X63049319Y-55415233D01*
X63038999Y-55314203D01*
X63038998Y-55314200D01*
X63035664Y-55304140D01*
X62983814Y-55147666D01*
X62891712Y-54998344D01*
X62767656Y-54874288D01*
X62618334Y-54782186D01*
X62550644Y-54759755D01*
X62530611Y-54745885D01*
X62508447Y-54735763D01*
X62502398Y-54726351D01*
X62493201Y-54719983D01*
X62483847Y-54697484D01*
X62470673Y-54676985D01*
X62468214Y-54659883D01*
X62466378Y-54655467D01*
X62465650Y-54642050D01*
X62465650Y-54620350D01*
X62475089Y-54572897D01*
X62486625Y-54545047D01*
X62523194Y-54456762D01*
X62538650Y-54339361D01*
X62538649Y-52985640D01*
X62538649Y-52985639D01*
X62538649Y-52985636D01*
X62523196Y-52868246D01*
X62523194Y-52868239D01*
X62523194Y-52868238D01*
X62462686Y-52722159D01*
X62366432Y-52596718D01*
X62240991Y-52500464D01*
X62094912Y-52439956D01*
X62094910Y-52439955D01*
X61977511Y-52424500D01*
X61698786Y-52424500D01*
X61581396Y-52439953D01*
X61581384Y-52439957D01*
X61560600Y-52448566D01*
X61491131Y-52456033D01*
X61465700Y-52448566D01*
X61444915Y-52439957D01*
X61444910Y-52439955D01*
X61327511Y-52424500D01*
X61048791Y-52424500D01*
X61037037Y-52426048D01*
X61033274Y-52425461D01*
X61029707Y-52426792D01*
X60999024Y-52420118D01*
X60968002Y-52415279D01*
X60964072Y-52412515D01*
X60961434Y-52411942D01*
X60933195Y-52390803D01*
X60933179Y-52390792D01*
X60913715Y-52371329D01*
X60906866Y-52364480D01*
X60906863Y-52364478D01*
X60804740Y-52262355D01*
X60804738Y-52262352D01*
X60685867Y-52143481D01*
X60685866Y-52143480D01*
X60594255Y-52090589D01*
X60594254Y-52090588D01*
X60548933Y-52064422D01*
X60493031Y-52049443D01*
X60396207Y-52023499D01*
X60238093Y-52023499D01*
X60230497Y-52023499D01*
X60230481Y-52023500D01*
X59552670Y-52023500D01*
X59552654Y-52023499D01*
X59545058Y-52023499D01*
X59386943Y-52023499D01*
X59310579Y-52043961D01*
X59234214Y-52064423D01*
X59234209Y-52064426D01*
X59097290Y-52143475D01*
X59097282Y-52143481D01*
X58978412Y-52262352D01*
X58869435Y-52371329D01*
X58869434Y-52371330D01*
X58857378Y-52383384D01*
X58849173Y-52391590D01*
X58803216Y-52416681D01*
X58787851Y-52425071D01*
X58787849Y-52425071D01*
X58787848Y-52425072D01*
X58787840Y-52425071D01*
X58745313Y-52426843D01*
X58727514Y-52424500D01*
X58448786Y-52424500D01*
X58331396Y-52439953D01*
X58331387Y-52439956D01*
X58185310Y-52500463D01*
X58059868Y-52596718D01*
X57963613Y-52722160D01*
X57903106Y-52868237D01*
X57903105Y-52868239D01*
X57887651Y-52985629D01*
X57887651Y-52985636D01*
X57887650Y-52985645D01*
X57887650Y-54339363D01*
X57903103Y-54456753D01*
X57903106Y-54456762D01*
X57939675Y-54545047D01*
X57947144Y-54614517D01*
X57915869Y-54676996D01*
X57855780Y-54712648D01*
X57825114Y-54716500D01*
X57284998Y-54716500D01*
X57284980Y-54716501D01*
X57182203Y-54727000D01*
X57182200Y-54727001D01*
X57015668Y-54782185D01*
X57015663Y-54782187D01*
X56866342Y-54874289D01*
X56742289Y-54998342D01*
X56650187Y-55147663D01*
X56650185Y-55147668D01*
X56625030Y-55223583D01*
X56595001Y-55314203D01*
X56595001Y-55314204D01*
X56595000Y-55314204D01*
X56584500Y-55416983D01*
X56584500Y-56042001D01*
X56584501Y-56042019D01*
X56595000Y-56144796D01*
X56595001Y-56144799D01*
X56650185Y-56311331D01*
X56650186Y-56311334D01*
X56737687Y-56453197D01*
X56742289Y-56460657D01*
X56835951Y-56554319D01*
X56869436Y-56615642D01*
X56864452Y-56685334D01*
X56835951Y-56729681D01*
X56742289Y-56823342D01*
X56650187Y-56972663D01*
X56650185Y-56972668D01*
X56647592Y-56980494D01*
X56595001Y-57139203D01*
X56595001Y-57139204D01*
X56595000Y-57139204D01*
X56584500Y-57241983D01*
X56584500Y-57311000D01*
X56564815Y-57378039D01*
X56512011Y-57423794D01*
X56460500Y-57435000D01*
X54182781Y-57435000D01*
X54115742Y-57415315D01*
X54095100Y-57398681D01*
X51463819Y-54767400D01*
X51430334Y-54706077D01*
X51427500Y-54679719D01*
X51427500Y-52268368D01*
X51447185Y-52201329D01*
X51495203Y-52157884D01*
X51599536Y-52104724D01*
X51793796Y-51963586D01*
X51963586Y-51793796D01*
X52104724Y-51599536D01*
X52213736Y-51385589D01*
X52287937Y-51157222D01*
X52325500Y-50920059D01*
X52325500Y-50679941D01*
X52287937Y-50442778D01*
X52213736Y-50214411D01*
X52213734Y-50214408D01*
X52213734Y-50214406D01*
X52104723Y-50000463D01*
X51963586Y-49806204D01*
X51793796Y-49636414D01*
X51599536Y-49495276D01*
X51557709Y-49473964D01*
X51385593Y-49386265D01*
X51157222Y-49312063D01*
X50920059Y-49274500D01*
X50679941Y-49274500D01*
X50561359Y-49293281D01*
X50442777Y-49312063D01*
X50214406Y-49386265D01*
X50000463Y-49495276D01*
X49806201Y-49636416D01*
X49636416Y-49806201D01*
X49495276Y-50000463D01*
X49386265Y-50214406D01*
X49312063Y-50442777D01*
X49274500Y-50679941D01*
X49274500Y-50920058D01*
X49312063Y-51157222D01*
X49386265Y-51385593D01*
X49495276Y-51599536D01*
X49636414Y-51793796D01*
X49806204Y-51963586D01*
X50000464Y-52104724D01*
X50104796Y-52157884D01*
X50155591Y-52205857D01*
X50172500Y-52268368D01*
X50172500Y-55052807D01*
X50196612Y-55174027D01*
X50196614Y-55174035D01*
X50217138Y-55223584D01*
X50243916Y-55288232D01*
X50292617Y-55361118D01*
X50292617Y-55361119D01*
X50312585Y-55391003D01*
X50312591Y-55391011D01*
X53384089Y-58462508D01*
X53384090Y-58462509D01*
X53433400Y-58511820D01*
X53466884Y-58573143D01*
X53461899Y-58642835D01*
X53420027Y-58698768D01*
X53354563Y-58723184D01*
X53345718Y-58723500D01*
X47394192Y-58723500D01*
X47272973Y-58747612D01*
X47272965Y-58747614D01*
X47220407Y-58769385D01*
X47220406Y-58769385D01*
X47158773Y-58794913D01*
X47158760Y-58794920D01*
X47055992Y-58863588D01*
X47055988Y-58863591D01*
X44654181Y-61265399D01*
X44592858Y-61298884D01*
X44523166Y-61293900D01*
X44467233Y-61252028D01*
X44442816Y-61186564D01*
X44442500Y-61177718D01*
X44442500Y-48634781D01*
X44462185Y-48567742D01*
X44478819Y-48547100D01*
X46491600Y-46534319D01*
X46552923Y-46500834D01*
X46579281Y-46498000D01*
X55664296Y-46498000D01*
X55731335Y-46517685D01*
X55769834Y-46556903D01*
X55797438Y-46601656D01*
X55921494Y-46725712D01*
X56070816Y-46817814D01*
X56237353Y-46872999D01*
X56340141Y-46883500D01*
X56930218Y-46883499D01*
X56997257Y-46903183D01*
X57017899Y-46919818D01*
X57208494Y-47110413D01*
X57241979Y-47171736D01*
X57243753Y-47214276D01*
X57237652Y-47260629D01*
X57237650Y-47260642D01*
X57237650Y-48614363D01*
X57253103Y-48731753D01*
X57253106Y-48731762D01*
X57313614Y-48877842D01*
X57367465Y-48948022D01*
X57378542Y-48967203D01*
X57379193Y-48966856D01*
X57382064Y-48972226D01*
X57382065Y-48972228D01*
X57382067Y-48972232D01*
X57436445Y-49053615D01*
X57450739Y-49075007D01*
X57450742Y-49075011D01*
X57450743Y-49075012D01*
X57777740Y-49402008D01*
X57849696Y-49473964D01*
X57865144Y-49489412D01*
X57967911Y-49558079D01*
X57967924Y-49558086D01*
X58082111Y-49605383D01*
X58082116Y-49605385D01*
X58082120Y-49605385D01*
X58082121Y-49605386D01*
X58203345Y-49629500D01*
X58203348Y-49629500D01*
X59622953Y-49629500D01*
X59622954Y-49629499D01*
X59744184Y-49605386D01*
X59824933Y-49571937D01*
X59824933Y-49571938D01*
X59824942Y-49571933D01*
X59827954Y-49570685D01*
X59897422Y-49563232D01*
X59933843Y-49575904D01*
X59937912Y-49578079D01*
X59937918Y-49578083D01*
X59937924Y-49578085D01*
X59937925Y-49578086D01*
X59979234Y-49595197D01*
X59979235Y-49595197D01*
X60052117Y-49625386D01*
X60173343Y-49649499D01*
X60173347Y-49649500D01*
X60173348Y-49649500D01*
X60902953Y-49649500D01*
X60902954Y-49649499D01*
X61024184Y-49625386D01*
X61133051Y-49580291D01*
X61138382Y-49578083D01*
X61241157Y-49509411D01*
X61328560Y-49422008D01*
X61546221Y-49204345D01*
X61607544Y-49170861D01*
X61650087Y-49169088D01*
X61698789Y-49175500D01*
X61977510Y-49175499D01*
X61977513Y-49175499D01*
X62094903Y-49160046D01*
X62094907Y-49160044D01*
X62094912Y-49160044D01*
X62240991Y-49099536D01*
X62366432Y-49003282D01*
X62462686Y-48877841D01*
X62523194Y-48731762D01*
X62538650Y-48614361D01*
X62538649Y-48500125D01*
X62558333Y-48433086D01*
X62559506Y-48431295D01*
X62630552Y-48324968D01*
X62692215Y-48176102D01*
X62723650Y-48018066D01*
X62723650Y-47328688D01*
X62743335Y-47261649D01*
X62759965Y-47241011D01*
X63056158Y-46944817D01*
X63117481Y-46911333D01*
X63143839Y-46908499D01*
X63461152Y-46908499D01*
X63461158Y-46908499D01*
X63563947Y-46897999D01*
X63730484Y-46842814D01*
X63873971Y-46754310D01*
X63941362Y-46735870D01*
X63986515Y-46745286D01*
X64023398Y-46760564D01*
X64023402Y-46760564D01*
X64023403Y-46760565D01*
X64181431Y-46792000D01*
X64181434Y-46792000D01*
X64342568Y-46792000D01*
X64462460Y-46768151D01*
X64500602Y-46760564D01*
X64584743Y-46725712D01*
X64649464Y-46698904D01*
X64649465Y-46698903D01*
X64649468Y-46698902D01*
X64783445Y-46609382D01*
X64897382Y-46495445D01*
X64986902Y-46361468D01*
X65048564Y-46212602D01*
X65080000Y-46054566D01*
X65080000Y-45893434D01*
X65080000Y-45893431D01*
X65048565Y-45735403D01*
X65048564Y-45735402D01*
X65048564Y-45735398D01*
X65024281Y-45676773D01*
X64986904Y-45586535D01*
X64897380Y-45452552D01*
X64717448Y-45272620D01*
X64717444Y-45272617D01*
X64583474Y-45183100D01*
X64583461Y-45183093D01*
X64434606Y-45121436D01*
X64434594Y-45121433D01*
X64276570Y-45090000D01*
X64276566Y-45090000D01*
X63954160Y-45090000D01*
X63887121Y-45070315D01*
X63881824Y-45066533D01*
X63879082Y-45064842D01*
X63756123Y-44989000D01*
X63730486Y-44973187D01*
X63730481Y-44973185D01*
X63707289Y-44965500D01*
X63563947Y-44918001D01*
X63563945Y-44918000D01*
X63461160Y-44907500D01*
X62411148Y-44907500D01*
X62411130Y-44907501D01*
X62308353Y-44918000D01*
X62308350Y-44918001D01*
X62141818Y-44973185D01*
X62141809Y-44973189D01*
X62023112Y-45046402D01*
X61955720Y-45064842D01*
X61889056Y-45043919D01*
X61844287Y-44990277D01*
X61835626Y-44920946D01*
X61865823Y-44857939D01*
X61870298Y-44853219D01*
X61946862Y-44776656D01*
X62038964Y-44627334D01*
X62094149Y-44460797D01*
X62104650Y-44358009D01*
X62104649Y-43783780D01*
X62124333Y-43716742D01*
X62140963Y-43696105D01*
X62628251Y-43208819D01*
X62689574Y-43175334D01*
X62715932Y-43172500D01*
X64839719Y-43172500D01*
X64906758Y-43192185D01*
X64927400Y-43208819D01*
X67916181Y-46197600D01*
X67949666Y-46258923D01*
X67952500Y-46285281D01*
X67952500Y-49331631D01*
X67932815Y-49398670D01*
X67884796Y-49442115D01*
X67780465Y-49495274D01*
X67586201Y-49636416D01*
X67416416Y-49806201D01*
X67275276Y-50000463D01*
X67166265Y-50214406D01*
X67092063Y-50442777D01*
X67054500Y-50679941D01*
X67054500Y-50920058D01*
X67092063Y-51157222D01*
X67166265Y-51385593D01*
X67275276Y-51599536D01*
X67416414Y-51793796D01*
X67586204Y-51963586D01*
X67780464Y-52104724D01*
X67856517Y-52143475D01*
X67994406Y-52213734D01*
X67994408Y-52213734D01*
X67994411Y-52213736D01*
X68222778Y-52287937D01*
X68459941Y-52325500D01*
X68459942Y-52325500D01*
X68700058Y-52325500D01*
X68700059Y-52325500D01*
X68937222Y-52287937D01*
X69165589Y-52213736D01*
X69379536Y-52104724D01*
X69573796Y-51963586D01*
X69743586Y-51793796D01*
X69884724Y-51599536D01*
X69993736Y-51385589D01*
X70067937Y-51157222D01*
X70105500Y-50920059D01*
X70105500Y-50679941D01*
X70067937Y-50442778D01*
X69993736Y-50214411D01*
X69993734Y-50214408D01*
X69993734Y-50214406D01*
X69884723Y-50000463D01*
X69743586Y-49806204D01*
X69573796Y-49636414D01*
X69443172Y-49541510D01*
X69379534Y-49495274D01*
X69275204Y-49442115D01*
X69224409Y-49394141D01*
X69207500Y-49331631D01*
X69207500Y-45912194D01*
X69183386Y-45790970D01*
X69183385Y-45790969D01*
X69183385Y-45790965D01*
X69160369Y-45735398D01*
X69136086Y-45676773D01*
X69136079Y-45676760D01*
X69067412Y-45573993D01*
X69024613Y-45531194D01*
X68980008Y-45486589D01*
X67277199Y-43783780D01*
X65551011Y-42057591D01*
X65551007Y-42057588D01*
X65448239Y-41988920D01*
X65448226Y-41988913D01*
X65414785Y-41975062D01*
X65334035Y-41941614D01*
X65334027Y-41941612D01*
X65212807Y-41917500D01*
X65212803Y-41917500D01*
X62466453Y-41917500D01*
X62342846Y-41917500D01*
X62342844Y-41917500D01*
X62221620Y-41941613D01*
X62221610Y-41941616D01*
X62107424Y-41988913D01*
X62107406Y-41988923D01*
X62004642Y-42057587D01*
X62004635Y-42057593D01*
X61066048Y-42996181D01*
X61004725Y-43029666D01*
X60978367Y-43032500D01*
X60404148Y-43032500D01*
X60404130Y-43032501D01*
X60301353Y-43043000D01*
X60301350Y-43043001D01*
X60134818Y-43098185D01*
X60134813Y-43098187D01*
X59985492Y-43190289D01*
X59975831Y-43199951D01*
X59914508Y-43233436D01*
X59844816Y-43228452D01*
X59800469Y-43199951D01*
X59790807Y-43190289D01*
X59790806Y-43190288D01*
X59641484Y-43098186D01*
X59474947Y-43043001D01*
X59474945Y-43043000D01*
X59372160Y-43032500D01*
X58372148Y-43032500D01*
X58372130Y-43032501D01*
X58269353Y-43043000D01*
X58269350Y-43043001D01*
X58102818Y-43098185D01*
X58102813Y-43098187D01*
X57953492Y-43190289D01*
X57829439Y-43314342D01*
X57737337Y-43463663D01*
X57737336Y-43463666D01*
X57682151Y-43630203D01*
X57682151Y-43630204D01*
X57682150Y-43630204D01*
X57671650Y-43732983D01*
X57671650Y-44358001D01*
X57671651Y-44358019D01*
X57682150Y-44460796D01*
X57682151Y-44460799D01*
X57737335Y-44627331D01*
X57737337Y-44627336D01*
X57833230Y-44782803D01*
X57831939Y-44783598D01*
X57854965Y-44840682D01*
X57841921Y-44909324D01*
X57793838Y-44960016D01*
X57725981Y-44976666D01*
X57666462Y-44958330D01*
X57609484Y-44923186D01*
X57442947Y-44868001D01*
X57442945Y-44868000D01*
X57340160Y-44857500D01*
X56340148Y-44857500D01*
X56340130Y-44857501D01*
X56237353Y-44868000D01*
X56237350Y-44868001D01*
X56070818Y-44923185D01*
X56070813Y-44923187D01*
X55921492Y-45015289D01*
X55797439Y-45139342D01*
X55797437Y-45139345D01*
X55769834Y-45184097D01*
X55717886Y-45230822D01*
X55664296Y-45243000D01*
X46206192Y-45243000D01*
X46084973Y-45267112D01*
X46084965Y-45267114D01*
X46032935Y-45288666D01*
X45970769Y-45314415D01*
X45970760Y-45314420D01*
X45886662Y-45370614D01*
X45867992Y-45383088D01*
X45867986Y-45383093D01*
X44010074Y-47241007D01*
X43414992Y-47836089D01*
X43327589Y-47923492D01*
X43258916Y-48026269D01*
X43245061Y-48059714D01*
X43245062Y-48059715D01*
X43211614Y-48140464D01*
X43211612Y-48140472D01*
X43187500Y-48261692D01*
X41140500Y-48261692D01*
X41140500Y-41278480D01*
X41140695Y-41271527D01*
X41156927Y-40982490D01*
X41158481Y-40968696D01*
X41206389Y-40686730D01*
X41209482Y-40673178D01*
X41266014Y-40476954D01*
X41288658Y-40398353D01*
X41293250Y-40385232D01*
X41402699Y-40120997D01*
X41408719Y-40108498D01*
X41547076Y-39858159D01*
X41554463Y-39846404D01*
X41719968Y-39613147D01*
X41728614Y-39602304D01*
X41919212Y-39389024D01*
X41929024Y-39379212D01*
X42142304Y-39188614D01*
X42153147Y-39179968D01*
X42386404Y-39014463D01*
X42398159Y-39007076D01*
X42648498Y-38868719D01*
X42660997Y-38862699D01*
X42925236Y-38753248D01*
X42938353Y-38748658D01*
X43213184Y-38669480D01*
X43226730Y-38666389D01*
X43508696Y-38618481D01*
X43522490Y-38616927D01*
X43811528Y-38600695D01*
X43818481Y-38600500D01*
X43880892Y-38600500D01*
X110932108Y-38600500D01*
X110994519Y-38600500D01*
X111001471Y-38600695D01*
G37*
%TD.AperFunction*%
%TD*%
M02*
