%TF.GenerationSoftware,KiCad,Pcbnew,9.0.2*%
%TF.CreationDate,2025-07-07T19:49:13-04:00*%
%TF.ProjectId,PMOD_buffer,504d4f44-5f62-4756-9666-65722e6b6963,v1.0*%
%TF.SameCoordinates,Original*%
%TF.FileFunction,Copper,L2,Inr*%
%TF.FilePolarity,Positive*%
%FSLAX46Y46*%
G04 Gerber Fmt 4.6, Leading zero omitted, Abs format (unit mm)*
G04 Created by KiCad (PCBNEW 9.0.2) date 2025-07-07 19:49:13*
%MOMM*%
%LPD*%
G01*
G04 APERTURE LIST*
%TA.AperFunction,ComponentPad*%
%ADD10R,1.700000X1.700000*%
%TD*%
%TA.AperFunction,ComponentPad*%
%ADD11O,1.700000X1.700000*%
%TD*%
%TA.AperFunction,ComponentPad*%
%ADD12C,2.050000*%
%TD*%
%TA.AperFunction,ComponentPad*%
%ADD13C,2.250000*%
%TD*%
%TA.AperFunction,ComponentPad*%
%ADD14C,5.562600*%
%TD*%
%TA.AperFunction,ViaPad*%
%ADD15C,0.600000*%
%TD*%
%TA.AperFunction,Conductor*%
%ADD16C,1.270000*%
%TD*%
G04 APERTURE END LIST*
D10*
%TO.N,PMOD_ja_1*%
%TO.C,J9*%
X83820000Y-80015000D03*
D11*
%TO.N,PMOD_ja_2*%
X81280000Y-80015000D03*
%TO.N,PMOD_ja_3*%
X78740000Y-80015000D03*
%TO.N,PMOD_ja_4*%
X76200000Y-80015000D03*
%TO.N,GND*%
X73660000Y-80015000D03*
%TO.N,+3.3V*%
X71120000Y-80015000D03*
%TO.N,PMOD_ja_7*%
X83820000Y-77475000D03*
%TO.N,PMOD_ja_8*%
X81280000Y-77475000D03*
%TO.N,PMOD_ja_9*%
X78740000Y-77475000D03*
%TO.N,PMOD_ja_10*%
X76200000Y-77475000D03*
%TO.N,GND*%
X73660000Y-77475000D03*
%TO.N,+3.3V*%
X71120000Y-77475000D03*
%TD*%
D12*
%TO.N,CH5_ja_5*%
%TO.C,J6*%
X68580000Y-68580000D03*
D13*
%TO.N,GND*%
X66040000Y-66040000D03*
X66040000Y-71120000D03*
X71120000Y-66040000D03*
X71120000Y-71120000D03*
%TD*%
D12*
%TO.N,CH1_ja_1*%
%TO.C,J2*%
X68580000Y-50800000D03*
D13*
%TO.N,GND*%
X66040000Y-48260000D03*
X66040000Y-53340000D03*
X71120000Y-48260000D03*
X71120000Y-53340000D03*
%TD*%
D14*
%TO.N,GND*%
%TO.C,H3*%
X110998000Y-80518000D03*
%TD*%
%TO.N,GND*%
%TO.C,H4*%
X110998000Y-41402000D03*
%TD*%
%TO.N,GND*%
%TO.C,H2*%
X43942000Y-80518000D03*
%TD*%
D12*
%TO.N,CH2_ja_2*%
%TO.C,J3*%
X86360000Y-50800000D03*
D13*
%TO.N,GND*%
X83820000Y-48260000D03*
X83820000Y-53340000D03*
X88900000Y-48260000D03*
X88900000Y-53340000D03*
%TD*%
D12*
%TO.N,CH6_ja_6*%
%TO.C,J7*%
X86360000Y-68580000D03*
D13*
%TO.N,GND*%
X83820000Y-66040000D03*
X83820000Y-71120000D03*
X88900000Y-66040000D03*
X88900000Y-71120000D03*
%TD*%
D12*
%TO.N,CH7_ja_7*%
%TO.C,J8*%
X104140000Y-68580000D03*
D13*
%TO.N,GND*%
X101600000Y-66040000D03*
X101600000Y-71120000D03*
X106680000Y-66040000D03*
X106680000Y-71120000D03*
%TD*%
D12*
%TO.N,CH0_ja_0*%
%TO.C,J1*%
X50800000Y-50800000D03*
D13*
%TO.N,GND*%
X48260000Y-48260000D03*
X48260000Y-53340000D03*
X53340000Y-48260000D03*
X53340000Y-53340000D03*
%TD*%
D14*
%TO.N,GND*%
%TO.C,H1*%
X43942000Y-41402000D03*
%TD*%
D12*
%TO.N,CH3_ja_3*%
%TO.C,J4*%
X104140000Y-50800000D03*
D13*
%TO.N,GND*%
X101600000Y-48260000D03*
X101600000Y-53340000D03*
X106680000Y-48260000D03*
X106680000Y-53340000D03*
%TD*%
D12*
%TO.N,CH4_ja_4*%
%TO.C,J5*%
X50800000Y-68580000D03*
D13*
%TO.N,GND*%
X48260000Y-66040000D03*
X48260000Y-71120000D03*
X53340000Y-66040000D03*
X53340000Y-71120000D03*
%TD*%
D15*
%TO.N,GND*%
X78740000Y-58420000D03*
X73660000Y-58420000D03*
X43180000Y-76200000D03*
X111760000Y-55880000D03*
X111760000Y-60960000D03*
X111760000Y-73660000D03*
X111760000Y-50800000D03*
X101600000Y-40640000D03*
X96520000Y-40640000D03*
X91440000Y-40640000D03*
X86360000Y-40640000D03*
X81280000Y-40640000D03*
X76200000Y-40640000D03*
X71120000Y-40640000D03*
X66040000Y-40640000D03*
X55880000Y-40640000D03*
X60960000Y-40640000D03*
X50800000Y-40640000D03*
X58420000Y-78740000D03*
X62230000Y-78740000D03*
X96520000Y-77470000D03*
X93980000Y-77470000D03*
X91440000Y-77470000D03*
X56896000Y-43053000D03*
X92456000Y-43180000D03*
X97536000Y-58419988D03*
X61976000Y-76200000D03*
X56769000Y-60579000D03*
X64135000Y-44069000D03*
X59944000Y-68326000D03*
X92456000Y-60833000D03*
X63373000Y-75184000D03*
X67691000Y-77089000D03*
X61849000Y-58420000D03*
X64135000Y-61595000D03*
X99822000Y-44069000D03*
X99822000Y-61722000D03*
X97536000Y-76454000D03*
%TO.N,+3.3V*%
X65960000Y-79970000D03*
X99822000Y-63754000D03*
X64262000Y-45974000D03*
X64135000Y-63627000D03*
X99822000Y-45974000D03*
%TO.N,PMOD_ja_7*%
X74041000Y-73509500D03*
%TO.N,PMOD_ja_8*%
X75311000Y-74295000D03*
%TO.N,PMOD_ja_3*%
X77089000Y-75310996D03*
%TO.N,PMOD_ja_2*%
X80899000Y-82169000D03*
%TD*%
D16*
%TO.N,+3.3V*%
X63380000Y-64382000D02*
X63380000Y-72800000D01*
X65850000Y-79860000D02*
X65960000Y-79970000D01*
X65850000Y-75270000D02*
X65850000Y-79860000D01*
X63380000Y-72800000D02*
X65850000Y-75270000D01*
X64135000Y-63627000D02*
X63380000Y-64382000D01*
%TD*%
%TA.AperFunction,Conductor*%
%TO.N,+3.3V*%
G36*
X108958988Y-38620185D02*
G01*
X109004743Y-38672989D01*
X109014687Y-38742147D01*
X108985662Y-38805703D01*
X108970614Y-38820353D01*
X108791414Y-38967418D01*
X108563418Y-39195414D01*
X108358858Y-39444670D01*
X108358848Y-39444684D01*
X108179715Y-39712776D01*
X108179704Y-39712794D01*
X108027713Y-39997149D01*
X108027711Y-39997154D01*
X107904314Y-40295059D01*
X107810710Y-40603631D01*
X107747804Y-40919879D01*
X107738024Y-41019185D01*
X107718720Y-41215195D01*
X107716200Y-41240778D01*
X107716200Y-41563221D01*
X107747804Y-41884120D01*
X107810710Y-42200368D01*
X107904314Y-42508940D01*
X108027711Y-42806845D01*
X108027713Y-42806850D01*
X108179704Y-43091205D01*
X108179715Y-43091223D01*
X108358848Y-43359315D01*
X108358858Y-43359329D01*
X108563418Y-43608585D01*
X108791414Y-43836581D01*
X108791419Y-43836585D01*
X108791420Y-43836586D01*
X109040676Y-44041146D01*
X109308783Y-44220289D01*
X109308792Y-44220294D01*
X109308794Y-44220295D01*
X109593149Y-44372286D01*
X109593151Y-44372286D01*
X109593157Y-44372290D01*
X109891061Y-44495686D01*
X110199626Y-44589288D01*
X110515879Y-44652195D01*
X110836775Y-44683800D01*
X110836778Y-44683800D01*
X111159222Y-44683800D01*
X111159225Y-44683800D01*
X111480121Y-44652195D01*
X111796374Y-44589288D01*
X112104939Y-44495686D01*
X112402843Y-44372290D01*
X112687217Y-44220289D01*
X112955324Y-44041146D01*
X113204580Y-43836586D01*
X113432586Y-43608580D01*
X113579647Y-43429385D01*
X113637393Y-43390052D01*
X113707237Y-43388181D01*
X113767005Y-43424369D01*
X113797721Y-43487124D01*
X113799500Y-43508051D01*
X113799500Y-78411948D01*
X113779815Y-78478987D01*
X113727011Y-78524742D01*
X113657853Y-78534686D01*
X113594297Y-78505661D01*
X113579647Y-78490613D01*
X113432581Y-78311414D01*
X113204585Y-78083418D01*
X112955329Y-77878858D01*
X112955328Y-77878857D01*
X112955324Y-77878854D01*
X112687217Y-77699711D01*
X112687212Y-77699708D01*
X112687205Y-77699704D01*
X112402850Y-77547713D01*
X112402845Y-77547711D01*
X112104940Y-77424314D01*
X111796368Y-77330710D01*
X111480119Y-77267804D01*
X111480120Y-77267804D01*
X111238434Y-77244001D01*
X111159225Y-77236200D01*
X110836775Y-77236200D01*
X110763587Y-77243408D01*
X110515879Y-77267804D01*
X110199631Y-77330710D01*
X109891059Y-77424314D01*
X109593154Y-77547711D01*
X109593149Y-77547713D01*
X109308794Y-77699704D01*
X109308776Y-77699715D01*
X109040684Y-77878848D01*
X109040670Y-77878858D01*
X108791414Y-78083418D01*
X108563418Y-78311414D01*
X108358858Y-78560670D01*
X108358848Y-78560684D01*
X108179715Y-78828776D01*
X108179704Y-78828794D01*
X108027713Y-79113149D01*
X108027711Y-79113154D01*
X107904314Y-79411059D01*
X107810710Y-79719631D01*
X107747804Y-80035879D01*
X107739393Y-80121286D01*
X107716200Y-80356775D01*
X107716200Y-80679225D01*
X107719631Y-80714056D01*
X107747804Y-81000120D01*
X107810710Y-81316368D01*
X107904314Y-81624940D01*
X108027711Y-81922845D01*
X108027713Y-81922850D01*
X108179704Y-82207205D01*
X108179715Y-82207223D01*
X108358848Y-82475315D01*
X108358858Y-82475329D01*
X108563418Y-82724585D01*
X108791414Y-82952581D01*
X108791419Y-82952585D01*
X108791420Y-82952586D01*
X108812028Y-82969499D01*
X108970614Y-83099647D01*
X109009948Y-83157393D01*
X109011819Y-83227237D01*
X108975631Y-83287005D01*
X108912876Y-83317721D01*
X108891949Y-83319500D01*
X46048051Y-83319500D01*
X45981012Y-83299815D01*
X45935257Y-83247011D01*
X45925313Y-83177853D01*
X45954338Y-83114297D01*
X45969386Y-83099647D01*
X46148580Y-82952586D01*
X46376586Y-82724580D01*
X46581146Y-82475324D01*
X46760289Y-82207217D01*
X46912290Y-81922843D01*
X47035686Y-81624939D01*
X47129288Y-81316374D01*
X47192195Y-81000121D01*
X47223800Y-80679225D01*
X47223800Y-80356775D01*
X47192195Y-80035879D01*
X47129288Y-79719626D01*
X47035686Y-79411061D01*
X46912290Y-79113157D01*
X46904418Y-79098430D01*
X46760295Y-78828794D01*
X46760294Y-78828792D01*
X46760289Y-78828783D01*
X46648282Y-78661153D01*
X57619500Y-78661153D01*
X57619500Y-78818846D01*
X57650261Y-78973489D01*
X57650264Y-78973501D01*
X57710602Y-79119172D01*
X57710609Y-79119185D01*
X57798210Y-79250288D01*
X57798213Y-79250292D01*
X57909707Y-79361786D01*
X57909711Y-79361789D01*
X58040814Y-79449390D01*
X58040827Y-79449397D01*
X58154751Y-79496585D01*
X58186503Y-79509737D01*
X58341153Y-79540499D01*
X58341156Y-79540500D01*
X58341158Y-79540500D01*
X58498844Y-79540500D01*
X58498845Y-79540499D01*
X58653497Y-79509737D01*
X58799179Y-79449394D01*
X58930289Y-79361789D01*
X59041789Y-79250289D01*
X59129394Y-79119179D01*
X59189737Y-78973497D01*
X59220500Y-78818842D01*
X59220500Y-78661158D01*
X59220500Y-78661155D01*
X59220499Y-78661153D01*
X61429500Y-78661153D01*
X61429500Y-78818846D01*
X61460261Y-78973489D01*
X61460264Y-78973501D01*
X61520602Y-79119172D01*
X61520609Y-79119185D01*
X61608210Y-79250288D01*
X61608213Y-79250292D01*
X61719707Y-79361786D01*
X61719711Y-79361789D01*
X61850814Y-79449390D01*
X61850827Y-79449397D01*
X61964751Y-79496585D01*
X61996503Y-79509737D01*
X62151153Y-79540499D01*
X62151156Y-79540500D01*
X62151158Y-79540500D01*
X62308844Y-79540500D01*
X62308845Y-79540499D01*
X62463497Y-79509737D01*
X62609179Y-79449394D01*
X62740289Y-79361789D01*
X62851789Y-79250289D01*
X62939394Y-79119179D01*
X62999737Y-78973497D01*
X63030500Y-78818842D01*
X63030500Y-78661158D01*
X63030500Y-78661155D01*
X63030499Y-78661153D01*
X63029330Y-78655274D01*
X62999737Y-78506503D01*
X62969239Y-78432874D01*
X62939397Y-78360827D01*
X62939390Y-78360814D01*
X62851789Y-78229711D01*
X62851786Y-78229707D01*
X62740292Y-78118213D01*
X62740288Y-78118210D01*
X62609185Y-78030609D01*
X62609172Y-78030602D01*
X62463501Y-77970264D01*
X62463489Y-77970261D01*
X62308845Y-77939500D01*
X62308842Y-77939500D01*
X62151158Y-77939500D01*
X62151155Y-77939500D01*
X61996510Y-77970261D01*
X61996498Y-77970264D01*
X61850827Y-78030602D01*
X61850814Y-78030609D01*
X61719711Y-78118210D01*
X61719707Y-78118213D01*
X61608213Y-78229707D01*
X61608210Y-78229711D01*
X61520609Y-78360814D01*
X61520602Y-78360827D01*
X61460264Y-78506498D01*
X61460261Y-78506510D01*
X61429500Y-78661153D01*
X59220499Y-78661153D01*
X59219330Y-78655274D01*
X59189737Y-78506503D01*
X59159239Y-78432874D01*
X59129397Y-78360827D01*
X59129390Y-78360814D01*
X59041789Y-78229711D01*
X59041786Y-78229707D01*
X58930292Y-78118213D01*
X58930288Y-78118210D01*
X58799185Y-78030609D01*
X58799172Y-78030602D01*
X58653501Y-77970264D01*
X58653489Y-77970261D01*
X58498845Y-77939500D01*
X58498842Y-77939500D01*
X58341158Y-77939500D01*
X58341155Y-77939500D01*
X58186510Y-77970261D01*
X58186498Y-77970264D01*
X58040827Y-78030602D01*
X58040814Y-78030609D01*
X57909711Y-78118210D01*
X57909707Y-78118213D01*
X57798213Y-78229707D01*
X57798210Y-78229711D01*
X57710609Y-78360814D01*
X57710602Y-78360827D01*
X57650264Y-78506498D01*
X57650261Y-78506510D01*
X57619500Y-78661153D01*
X46648282Y-78661153D01*
X46581146Y-78560676D01*
X46376586Y-78311420D01*
X46376585Y-78311419D01*
X46376581Y-78311414D01*
X46148585Y-78083418D01*
X45899329Y-77878858D01*
X45899328Y-77878857D01*
X45899324Y-77878854D01*
X45631217Y-77699711D01*
X45631212Y-77699708D01*
X45631205Y-77699704D01*
X45346850Y-77547713D01*
X45346845Y-77547711D01*
X45048940Y-77424314D01*
X44740368Y-77330710D01*
X44424119Y-77267804D01*
X44424120Y-77267804D01*
X44182434Y-77244001D01*
X44103225Y-77236200D01*
X43780775Y-77236200D01*
X43707587Y-77243408D01*
X43459879Y-77267804D01*
X43143631Y-77330710D01*
X42835059Y-77424314D01*
X42537154Y-77547711D01*
X42537149Y-77547713D01*
X42252794Y-77699704D01*
X42252776Y-77699715D01*
X41984684Y-77878848D01*
X41984670Y-77878858D01*
X41735414Y-78083418D01*
X41507418Y-78311414D01*
X41360353Y-78490613D01*
X41302607Y-78529947D01*
X41232762Y-78531818D01*
X41172994Y-78495630D01*
X41142279Y-78432874D01*
X41140500Y-78411948D01*
X41140500Y-77010153D01*
X66890500Y-77010153D01*
X66890500Y-77167846D01*
X66921261Y-77322489D01*
X66921264Y-77322501D01*
X66981602Y-77468172D01*
X66981609Y-77468185D01*
X67069210Y-77599288D01*
X67069213Y-77599292D01*
X67180707Y-77710786D01*
X67180711Y-77710789D01*
X67311814Y-77798390D01*
X67311827Y-77798397D01*
X67434442Y-77849185D01*
X67457503Y-77858737D01*
X67612153Y-77889499D01*
X67612156Y-77889500D01*
X67612158Y-77889500D01*
X67769844Y-77889500D01*
X67769845Y-77889499D01*
X67924497Y-77858737D01*
X68070179Y-77798394D01*
X68201289Y-77710789D01*
X68312789Y-77599289D01*
X68400394Y-77468179D01*
X68441594Y-77368713D01*
X72309500Y-77368713D01*
X72309500Y-77581286D01*
X72328255Y-77699704D01*
X72342754Y-77791243D01*
X72400921Y-77970263D01*
X72408444Y-77993414D01*
X72504951Y-78182820D01*
X72629890Y-78354786D01*
X72780213Y-78505109D01*
X72952182Y-78630050D01*
X72960946Y-78634516D01*
X73011742Y-78682491D01*
X73028536Y-78750312D01*
X73005998Y-78816447D01*
X72960946Y-78855484D01*
X72952182Y-78859949D01*
X72780213Y-78984890D01*
X72629890Y-79135213D01*
X72504951Y-79307179D01*
X72408444Y-79496585D01*
X72342753Y-79698760D01*
X72309500Y-79908713D01*
X72309500Y-80121287D01*
X72342754Y-80331243D01*
X72403435Y-80518000D01*
X72408444Y-80533414D01*
X72504951Y-80722820D01*
X72629890Y-80894786D01*
X72780213Y-81045109D01*
X72952179Y-81170048D01*
X72952181Y-81170049D01*
X72952184Y-81170051D01*
X73141588Y-81266557D01*
X73343757Y-81332246D01*
X73553713Y-81365500D01*
X73553714Y-81365500D01*
X73766286Y-81365500D01*
X73766287Y-81365500D01*
X73976243Y-81332246D01*
X74178412Y-81266557D01*
X74367816Y-81170051D01*
X74454138Y-81107335D01*
X74539786Y-81045109D01*
X74539788Y-81045106D01*
X74539792Y-81045104D01*
X74690104Y-80894792D01*
X74690106Y-80894788D01*
X74690109Y-80894786D01*
X74815048Y-80722820D01*
X74815047Y-80722820D01*
X74815051Y-80722816D01*
X74819514Y-80714054D01*
X74867488Y-80663259D01*
X74935308Y-80646463D01*
X75001444Y-80668999D01*
X75040486Y-80714056D01*
X75044951Y-80722820D01*
X75169890Y-80894786D01*
X75320213Y-81045109D01*
X75492179Y-81170048D01*
X75492181Y-81170049D01*
X75492184Y-81170051D01*
X75681588Y-81266557D01*
X75883757Y-81332246D01*
X76093713Y-81365500D01*
X76093714Y-81365500D01*
X76306286Y-81365500D01*
X76306287Y-81365500D01*
X76516243Y-81332246D01*
X76718412Y-81266557D01*
X76907816Y-81170051D01*
X76994138Y-81107335D01*
X77079786Y-81045109D01*
X77079788Y-81045106D01*
X77079792Y-81045104D01*
X77230104Y-80894792D01*
X77230106Y-80894788D01*
X77230109Y-80894786D01*
X77355048Y-80722820D01*
X77355047Y-80722820D01*
X77355051Y-80722816D01*
X77359514Y-80714054D01*
X77407488Y-80663259D01*
X77475308Y-80646463D01*
X77541444Y-80668999D01*
X77580486Y-80714056D01*
X77584951Y-80722820D01*
X77709890Y-80894786D01*
X77860213Y-81045109D01*
X78032179Y-81170048D01*
X78032181Y-81170049D01*
X78032184Y-81170051D01*
X78221588Y-81266557D01*
X78423757Y-81332246D01*
X78633713Y-81365500D01*
X78633714Y-81365500D01*
X78846286Y-81365500D01*
X78846287Y-81365500D01*
X79056243Y-81332246D01*
X79258412Y-81266557D01*
X79447816Y-81170051D01*
X79534138Y-81107335D01*
X79619786Y-81045109D01*
X79619788Y-81045106D01*
X79619792Y-81045104D01*
X79770104Y-80894792D01*
X79770106Y-80894788D01*
X79770109Y-80894786D01*
X79895048Y-80722820D01*
X79895047Y-80722820D01*
X79895051Y-80722816D01*
X79899514Y-80714054D01*
X79947488Y-80663259D01*
X80015308Y-80646463D01*
X80081444Y-80668999D01*
X80120486Y-80714056D01*
X80124951Y-80722820D01*
X80249890Y-80894786D01*
X80400213Y-81045109D01*
X80561134Y-81162023D01*
X80572184Y-81170051D01*
X80612760Y-81190725D01*
X80622503Y-81195690D01*
X80673299Y-81243665D01*
X80690094Y-81311486D01*
X80667556Y-81377621D01*
X80613661Y-81420736D01*
X80519823Y-81459604D01*
X80519814Y-81459609D01*
X80388711Y-81547210D01*
X80388707Y-81547213D01*
X80277213Y-81658707D01*
X80277210Y-81658711D01*
X80189609Y-81789814D01*
X80189602Y-81789827D01*
X80129264Y-81935498D01*
X80129261Y-81935510D01*
X80098500Y-82090153D01*
X80098500Y-82247846D01*
X80129261Y-82402489D01*
X80129264Y-82402501D01*
X80189602Y-82548172D01*
X80189609Y-82548185D01*
X80277210Y-82679288D01*
X80277213Y-82679292D01*
X80388707Y-82790786D01*
X80388711Y-82790789D01*
X80519814Y-82878390D01*
X80519827Y-82878397D01*
X80665498Y-82938735D01*
X80665503Y-82938737D01*
X80820153Y-82969499D01*
X80820156Y-82969500D01*
X80820158Y-82969500D01*
X80977844Y-82969500D01*
X80977845Y-82969499D01*
X81132497Y-82938737D01*
X81278179Y-82878394D01*
X81409289Y-82790789D01*
X81520789Y-82679289D01*
X81608394Y-82548179D01*
X81668737Y-82402497D01*
X81699500Y-82247842D01*
X81699500Y-82090158D01*
X81699500Y-82090155D01*
X81699499Y-82090153D01*
X81668738Y-81935510D01*
X81668737Y-81935503D01*
X81612846Y-81800569D01*
X81608397Y-81789827D01*
X81608390Y-81789814D01*
X81520789Y-81658711D01*
X81520786Y-81658707D01*
X81421362Y-81559283D01*
X81387877Y-81497960D01*
X81392861Y-81428268D01*
X81434733Y-81372335D01*
X81489644Y-81349129D01*
X81561272Y-81337784D01*
X81596238Y-81332247D01*
X81596238Y-81332246D01*
X81596243Y-81332246D01*
X81798412Y-81266557D01*
X81987816Y-81170051D01*
X82159792Y-81045104D01*
X82273329Y-80931566D01*
X82334648Y-80898084D01*
X82404340Y-80903068D01*
X82460274Y-80944939D01*
X82477189Y-80975917D01*
X82526202Y-81107328D01*
X82526206Y-81107335D01*
X82612452Y-81222544D01*
X82612455Y-81222547D01*
X82727664Y-81308793D01*
X82727671Y-81308797D01*
X82862517Y-81359091D01*
X82862516Y-81359091D01*
X82869444Y-81359835D01*
X82922127Y-81365500D01*
X84717872Y-81365499D01*
X84777483Y-81359091D01*
X84912331Y-81308796D01*
X85027546Y-81222546D01*
X85113796Y-81107331D01*
X85164091Y-80972483D01*
X85170500Y-80912873D01*
X85170499Y-79117128D01*
X85164091Y-79057517D01*
X85162810Y-79054083D01*
X85113797Y-78922671D01*
X85113793Y-78922664D01*
X85027547Y-78807455D01*
X85027544Y-78807452D01*
X84912335Y-78721206D01*
X84912328Y-78721202D01*
X84780917Y-78672189D01*
X84724983Y-78630318D01*
X84700566Y-78564853D01*
X84715418Y-78496580D01*
X84736563Y-78468332D01*
X84850104Y-78354792D01*
X84975051Y-78182816D01*
X85071557Y-77993412D01*
X85137246Y-77791243D01*
X85170500Y-77581287D01*
X85170500Y-77391153D01*
X90639500Y-77391153D01*
X90639500Y-77548846D01*
X90670261Y-77703489D01*
X90670264Y-77703501D01*
X90730602Y-77849172D01*
X90730609Y-77849185D01*
X90818210Y-77980288D01*
X90818213Y-77980292D01*
X90929707Y-78091786D01*
X90929711Y-78091789D01*
X91060814Y-78179390D01*
X91060827Y-78179397D01*
X91182288Y-78229707D01*
X91206503Y-78239737D01*
X91361153Y-78270499D01*
X91361156Y-78270500D01*
X91361158Y-78270500D01*
X91518844Y-78270500D01*
X91518845Y-78270499D01*
X91673497Y-78239737D01*
X91810908Y-78182820D01*
X91819172Y-78179397D01*
X91819172Y-78179396D01*
X91819179Y-78179394D01*
X91950289Y-78091789D01*
X92061789Y-77980289D01*
X92149394Y-77849179D01*
X92209737Y-77703497D01*
X92240500Y-77548842D01*
X92240500Y-77391158D01*
X92240500Y-77391155D01*
X92240499Y-77391153D01*
X93179500Y-77391153D01*
X93179500Y-77548846D01*
X93210261Y-77703489D01*
X93210264Y-77703501D01*
X93270602Y-77849172D01*
X93270609Y-77849185D01*
X93358210Y-77980288D01*
X93358213Y-77980292D01*
X93469707Y-78091786D01*
X93469711Y-78091789D01*
X93600814Y-78179390D01*
X93600827Y-78179397D01*
X93722288Y-78229707D01*
X93746503Y-78239737D01*
X93901153Y-78270499D01*
X93901156Y-78270500D01*
X93901158Y-78270500D01*
X94058844Y-78270500D01*
X94058845Y-78270499D01*
X94213497Y-78239737D01*
X94350908Y-78182820D01*
X94359172Y-78179397D01*
X94359172Y-78179396D01*
X94359179Y-78179394D01*
X94490289Y-78091789D01*
X94601789Y-77980289D01*
X94689394Y-77849179D01*
X94749737Y-77703497D01*
X94780500Y-77548842D01*
X94780500Y-77391158D01*
X94780500Y-77391155D01*
X94780499Y-77391153D01*
X95719500Y-77391153D01*
X95719500Y-77548846D01*
X95750261Y-77703489D01*
X95750264Y-77703501D01*
X95810602Y-77849172D01*
X95810609Y-77849185D01*
X95898210Y-77980288D01*
X95898213Y-77980292D01*
X96009707Y-78091786D01*
X96009711Y-78091789D01*
X96140814Y-78179390D01*
X96140827Y-78179397D01*
X96262288Y-78229707D01*
X96286503Y-78239737D01*
X96441153Y-78270499D01*
X96441156Y-78270500D01*
X96441158Y-78270500D01*
X96598844Y-78270500D01*
X96598845Y-78270499D01*
X96753497Y-78239737D01*
X96890908Y-78182820D01*
X96899172Y-78179397D01*
X96899172Y-78179396D01*
X96899179Y-78179394D01*
X97030289Y-78091789D01*
X97141789Y-77980289D01*
X97229394Y-77849179D01*
X97289737Y-77703497D01*
X97320500Y-77548842D01*
X97320500Y-77391158D01*
X97320499Y-77391153D01*
X97320380Y-77389946D01*
X97320500Y-77389312D01*
X97320500Y-77385066D01*
X97321305Y-77385066D01*
X97333393Y-77321299D01*
X97381454Y-77270585D01*
X97449304Y-77253905D01*
X97455946Y-77254380D01*
X97457153Y-77254499D01*
X97457158Y-77254500D01*
X97457163Y-77254500D01*
X97614844Y-77254500D01*
X97614845Y-77254499D01*
X97769497Y-77223737D01*
X97904436Y-77167844D01*
X97915172Y-77163397D01*
X97915172Y-77163396D01*
X97915179Y-77163394D01*
X98046289Y-77075789D01*
X98157789Y-76964289D01*
X98245394Y-76833179D01*
X98250440Y-76820998D01*
X98259067Y-76800166D01*
X98305737Y-76687497D01*
X98336500Y-76532842D01*
X98336500Y-76375158D01*
X98336500Y-76375155D01*
X98336499Y-76375153D01*
X98328639Y-76335639D01*
X98305737Y-76220503D01*
X98279746Y-76157754D01*
X98245397Y-76074827D01*
X98245390Y-76074814D01*
X98157789Y-75943711D01*
X98157786Y-75943707D01*
X98046292Y-75832213D01*
X98046288Y-75832210D01*
X97915185Y-75744609D01*
X97915172Y-75744602D01*
X97769501Y-75684264D01*
X97769489Y-75684261D01*
X97614845Y-75653500D01*
X97614842Y-75653500D01*
X97457158Y-75653500D01*
X97457155Y-75653500D01*
X97302510Y-75684261D01*
X97302498Y-75684264D01*
X97156827Y-75744602D01*
X97156814Y-75744609D01*
X97025711Y-75832210D01*
X97025707Y-75832213D01*
X96914213Y-75943707D01*
X96914210Y-75943711D01*
X96826609Y-76074814D01*
X96826602Y-76074827D01*
X96766264Y-76220498D01*
X96766261Y-76220510D01*
X96735500Y-76375153D01*
X96735500Y-76532849D01*
X96735620Y-76534068D01*
X96735500Y-76534700D01*
X96735500Y-76538934D01*
X96734697Y-76538934D01*
X96722599Y-76602714D01*
X96674532Y-76653422D01*
X96606680Y-76670093D01*
X96600068Y-76669620D01*
X96598849Y-76669500D01*
X96598842Y-76669500D01*
X96441158Y-76669500D01*
X96441155Y-76669500D01*
X96286510Y-76700261D01*
X96286498Y-76700264D01*
X96140827Y-76760602D01*
X96140814Y-76760609D01*
X96009711Y-76848210D01*
X96009707Y-76848213D01*
X95898213Y-76959707D01*
X95898210Y-76959711D01*
X95810609Y-77090814D01*
X95810602Y-77090827D01*
X95750264Y-77236498D01*
X95750261Y-77236510D01*
X95719500Y-77391153D01*
X94780499Y-77391153D01*
X94766843Y-77322501D01*
X94749737Y-77236503D01*
X94749735Y-77236498D01*
X94689397Y-77090827D01*
X94689390Y-77090814D01*
X94601789Y-76959711D01*
X94601786Y-76959707D01*
X94490292Y-76848213D01*
X94490288Y-76848210D01*
X94359185Y-76760609D01*
X94359172Y-76760602D01*
X94213501Y-76700264D01*
X94213489Y-76700261D01*
X94058845Y-76669500D01*
X94058842Y-76669500D01*
X93901158Y-76669500D01*
X93901155Y-76669500D01*
X93746510Y-76700261D01*
X93746498Y-76700264D01*
X93600827Y-76760602D01*
X93600814Y-76760609D01*
X93469711Y-76848210D01*
X93469707Y-76848213D01*
X93358213Y-76959707D01*
X93358210Y-76959711D01*
X93270609Y-77090814D01*
X93270602Y-77090827D01*
X93210264Y-77236498D01*
X93210261Y-77236510D01*
X93179500Y-77391153D01*
X92240499Y-77391153D01*
X92226843Y-77322501D01*
X92209737Y-77236503D01*
X92209735Y-77236498D01*
X92149397Y-77090827D01*
X92149390Y-77090814D01*
X92061789Y-76959711D01*
X92061786Y-76959707D01*
X91950292Y-76848213D01*
X91950288Y-76848210D01*
X91819185Y-76760609D01*
X91819172Y-76760602D01*
X91673501Y-76700264D01*
X91673489Y-76700261D01*
X91518845Y-76669500D01*
X91518842Y-76669500D01*
X91361158Y-76669500D01*
X91361155Y-76669500D01*
X91206510Y-76700261D01*
X91206498Y-76700264D01*
X91060827Y-76760602D01*
X91060814Y-76760609D01*
X90929711Y-76848210D01*
X90929707Y-76848213D01*
X90818213Y-76959707D01*
X90818210Y-76959711D01*
X90730609Y-77090814D01*
X90730602Y-77090827D01*
X90670264Y-77236498D01*
X90670261Y-77236510D01*
X90639500Y-77391153D01*
X85170500Y-77391153D01*
X85170500Y-77368713D01*
X85137246Y-77158757D01*
X85071557Y-76956588D01*
X84975051Y-76767184D01*
X84975049Y-76767181D01*
X84975048Y-76767179D01*
X84850109Y-76595213D01*
X84699786Y-76444890D01*
X84527820Y-76319951D01*
X84338414Y-76223444D01*
X84338413Y-76223443D01*
X84338412Y-76223443D01*
X84136243Y-76157754D01*
X84136241Y-76157753D01*
X84136240Y-76157753D01*
X83974957Y-76132208D01*
X83926287Y-76124500D01*
X83713713Y-76124500D01*
X83665042Y-76132208D01*
X83503760Y-76157753D01*
X83301585Y-76223444D01*
X83112179Y-76319951D01*
X82940213Y-76444890D01*
X82789890Y-76595213D01*
X82664949Y-76767182D01*
X82660484Y-76775946D01*
X82612509Y-76826742D01*
X82544688Y-76843536D01*
X82478553Y-76820998D01*
X82439516Y-76775946D01*
X82435050Y-76767182D01*
X82310109Y-76595213D01*
X82159786Y-76444890D01*
X81987820Y-76319951D01*
X81798414Y-76223444D01*
X81798413Y-76223443D01*
X81798412Y-76223443D01*
X81596243Y-76157754D01*
X81596241Y-76157753D01*
X81596240Y-76157753D01*
X81434957Y-76132208D01*
X81386287Y-76124500D01*
X81173713Y-76124500D01*
X81125042Y-76132208D01*
X80963760Y-76157753D01*
X80761585Y-76223444D01*
X80572179Y-76319951D01*
X80400213Y-76444890D01*
X80249890Y-76595213D01*
X80124949Y-76767182D01*
X80120484Y-76775946D01*
X80072509Y-76826742D01*
X80004688Y-76843536D01*
X79938553Y-76820998D01*
X79899516Y-76775946D01*
X79895050Y-76767182D01*
X79770109Y-76595213D01*
X79619786Y-76444890D01*
X79447820Y-76319951D01*
X79258414Y-76223444D01*
X79258413Y-76223443D01*
X79258412Y-76223443D01*
X79056243Y-76157754D01*
X79056241Y-76157753D01*
X79056240Y-76157753D01*
X78894957Y-76132208D01*
X78846287Y-76124500D01*
X78633713Y-76124500D01*
X78585042Y-76132208D01*
X78423760Y-76157753D01*
X78221585Y-76223444D01*
X78032179Y-76319951D01*
X77860213Y-76444890D01*
X77709890Y-76595213D01*
X77584949Y-76767182D01*
X77580484Y-76775946D01*
X77532509Y-76826742D01*
X77464688Y-76843536D01*
X77398553Y-76820998D01*
X77359516Y-76775946D01*
X77355050Y-76767182D01*
X77230109Y-76595213D01*
X77079790Y-76444894D01*
X77079785Y-76444890D01*
X76929413Y-76335639D01*
X76886747Y-76280310D01*
X76880768Y-76210696D01*
X76913373Y-76148901D01*
X76974212Y-76114544D01*
X77004066Y-76112603D01*
X77004066Y-76111496D01*
X77167844Y-76111496D01*
X77167845Y-76111495D01*
X77322497Y-76080733D01*
X77468179Y-76020390D01*
X77599289Y-75932785D01*
X77710789Y-75821285D01*
X77798394Y-75690175D01*
X77858737Y-75544493D01*
X77889500Y-75389838D01*
X77889500Y-75232154D01*
X77889500Y-75232151D01*
X77889499Y-75232149D01*
X77858737Y-75077499D01*
X77853450Y-75064735D01*
X77798397Y-74931823D01*
X77798390Y-74931810D01*
X77710789Y-74800707D01*
X77710786Y-74800703D01*
X77599292Y-74689209D01*
X77599288Y-74689206D01*
X77468185Y-74601605D01*
X77468172Y-74601598D01*
X77322501Y-74541260D01*
X77322489Y-74541257D01*
X77167845Y-74510496D01*
X77167842Y-74510496D01*
X77010158Y-74510496D01*
X77010155Y-74510496D01*
X76855510Y-74541257D01*
X76855498Y-74541260D01*
X76709827Y-74601598D01*
X76709814Y-74601605D01*
X76578711Y-74689206D01*
X76578707Y-74689209D01*
X76467213Y-74800703D01*
X76467210Y-74800707D01*
X76379609Y-74931810D01*
X76379602Y-74931823D01*
X76319264Y-75077494D01*
X76319261Y-75077506D01*
X76288500Y-75232149D01*
X76288500Y-75389842D01*
X76319261Y-75544485D01*
X76319264Y-75544497D01*
X76379602Y-75690168D01*
X76379609Y-75690181D01*
X76467210Y-75821284D01*
X76467213Y-75821288D01*
X76578711Y-75932786D01*
X76580229Y-75934032D01*
X76580810Y-75934885D01*
X76583018Y-75937093D01*
X76582599Y-75937511D01*
X76619562Y-75991779D01*
X76621431Y-76061623D01*
X76585242Y-76121391D01*
X76522485Y-76152105D01*
X76482164Y-76152356D01*
X76358192Y-76132721D01*
X76306287Y-76124500D01*
X76093713Y-76124500D01*
X76045042Y-76132208D01*
X75883760Y-76157753D01*
X75681585Y-76223444D01*
X75492179Y-76319951D01*
X75320213Y-76444890D01*
X75169890Y-76595213D01*
X75044949Y-76767182D01*
X75040484Y-76775946D01*
X74992509Y-76826742D01*
X74924688Y-76843536D01*
X74858553Y-76820998D01*
X74819516Y-76775946D01*
X74815050Y-76767182D01*
X74690109Y-76595213D01*
X74539786Y-76444890D01*
X74367820Y-76319951D01*
X74178414Y-76223444D01*
X74178413Y-76223443D01*
X74178412Y-76223443D01*
X73976243Y-76157754D01*
X73976241Y-76157753D01*
X73976240Y-76157753D01*
X73814957Y-76132208D01*
X73766287Y-76124500D01*
X73553713Y-76124500D01*
X73505042Y-76132208D01*
X73343760Y-76157753D01*
X73141585Y-76223444D01*
X72952179Y-76319951D01*
X72780213Y-76444890D01*
X72629890Y-76595213D01*
X72504951Y-76767179D01*
X72408444Y-76956585D01*
X72342753Y-77158760D01*
X72309500Y-77368713D01*
X68441594Y-77368713D01*
X68460737Y-77322497D01*
X68491500Y-77167842D01*
X68491500Y-77010158D01*
X68491500Y-77010155D01*
X68491499Y-77010153D01*
X68481465Y-76959711D01*
X68460737Y-76855503D01*
X68427784Y-76775946D01*
X68400397Y-76709827D01*
X68400390Y-76709814D01*
X68312789Y-76578711D01*
X68312786Y-76578707D01*
X68201292Y-76467213D01*
X68201288Y-76467210D01*
X68070185Y-76379609D01*
X68070172Y-76379602D01*
X67924501Y-76319264D01*
X67924489Y-76319261D01*
X67769845Y-76288500D01*
X67769842Y-76288500D01*
X67612158Y-76288500D01*
X67612155Y-76288500D01*
X67457510Y-76319261D01*
X67457498Y-76319264D01*
X67311827Y-76379602D01*
X67311814Y-76379609D01*
X67180711Y-76467210D01*
X67180707Y-76467213D01*
X67069213Y-76578707D01*
X67069210Y-76578711D01*
X66981609Y-76709814D01*
X66981602Y-76709827D01*
X66921264Y-76855498D01*
X66921261Y-76855510D01*
X66890500Y-77010153D01*
X41140500Y-77010153D01*
X41140500Y-76121153D01*
X42379500Y-76121153D01*
X42379500Y-76278846D01*
X42410261Y-76433489D01*
X42410264Y-76433501D01*
X42470602Y-76579172D01*
X42470609Y-76579185D01*
X42558210Y-76710288D01*
X42558213Y-76710292D01*
X42669707Y-76821786D01*
X42669711Y-76821789D01*
X42800814Y-76909390D01*
X42800827Y-76909397D01*
X42946498Y-76969735D01*
X42946503Y-76969737D01*
X43101153Y-77000499D01*
X43101156Y-77000500D01*
X43101158Y-77000500D01*
X43258844Y-77000500D01*
X43258845Y-77000499D01*
X43413497Y-76969737D01*
X43559179Y-76909394D01*
X43690289Y-76821789D01*
X43801789Y-76710289D01*
X43889394Y-76579179D01*
X43949737Y-76433497D01*
X43980500Y-76278842D01*
X43980500Y-76121158D01*
X43980500Y-76121155D01*
X43980499Y-76121153D01*
X61175500Y-76121153D01*
X61175500Y-76278846D01*
X61206261Y-76433489D01*
X61206264Y-76433501D01*
X61266602Y-76579172D01*
X61266609Y-76579185D01*
X61354210Y-76710288D01*
X61354213Y-76710292D01*
X61465707Y-76821786D01*
X61465711Y-76821789D01*
X61596814Y-76909390D01*
X61596827Y-76909397D01*
X61742498Y-76969735D01*
X61742503Y-76969737D01*
X61897153Y-77000499D01*
X61897156Y-77000500D01*
X61897158Y-77000500D01*
X62054844Y-77000500D01*
X62054845Y-77000499D01*
X62209497Y-76969737D01*
X62355179Y-76909394D01*
X62486289Y-76821789D01*
X62597789Y-76710289D01*
X62685394Y-76579179D01*
X62745737Y-76433497D01*
X62776500Y-76278842D01*
X62776500Y-76121158D01*
X62776500Y-76121155D01*
X62749342Y-75984626D01*
X62755569Y-75915034D01*
X62798432Y-75859857D01*
X62864321Y-75836612D01*
X62932319Y-75852680D01*
X62939850Y-75857332D01*
X62993814Y-75893390D01*
X62993827Y-75893397D01*
X63115288Y-75943707D01*
X63139503Y-75953737D01*
X63294153Y-75984499D01*
X63294156Y-75984500D01*
X63294158Y-75984500D01*
X63451844Y-75984500D01*
X63451845Y-75984499D01*
X63606497Y-75953737D01*
X63752179Y-75893394D01*
X63883289Y-75805789D01*
X63994789Y-75694289D01*
X64082394Y-75563179D01*
X64142737Y-75417497D01*
X64173500Y-75262842D01*
X64173500Y-75105158D01*
X64173500Y-75105155D01*
X64173499Y-75105153D01*
X64153457Y-75004397D01*
X64142737Y-74950503D01*
X64128771Y-74916786D01*
X64082397Y-74804827D01*
X64082390Y-74804814D01*
X63994789Y-74673711D01*
X63994786Y-74673707D01*
X63883292Y-74562213D01*
X63883288Y-74562210D01*
X63752185Y-74474609D01*
X63752172Y-74474602D01*
X63606501Y-74414264D01*
X63606489Y-74414261D01*
X63451845Y-74383500D01*
X63451842Y-74383500D01*
X63294158Y-74383500D01*
X63294155Y-74383500D01*
X63139510Y-74414261D01*
X63139498Y-74414264D01*
X62993827Y-74474602D01*
X62993814Y-74474609D01*
X62862711Y-74562210D01*
X62862707Y-74562213D01*
X62751213Y-74673707D01*
X62751210Y-74673711D01*
X62663609Y-74804814D01*
X62663602Y-74804827D01*
X62603264Y-74950498D01*
X62603261Y-74950510D01*
X62572500Y-75105153D01*
X62572500Y-75262846D01*
X62599657Y-75399374D01*
X62593430Y-75468966D01*
X62550567Y-75524143D01*
X62484677Y-75547387D01*
X62416680Y-75531319D01*
X62409149Y-75526667D01*
X62355185Y-75490609D01*
X62355172Y-75490602D01*
X62209501Y-75430264D01*
X62209489Y-75430261D01*
X62054845Y-75399500D01*
X62054842Y-75399500D01*
X61897158Y-75399500D01*
X61897155Y-75399500D01*
X61742510Y-75430261D01*
X61742498Y-75430264D01*
X61596827Y-75490602D01*
X61596814Y-75490609D01*
X61465711Y-75578210D01*
X61465707Y-75578213D01*
X61354213Y-75689707D01*
X61354210Y-75689711D01*
X61266609Y-75820814D01*
X61266602Y-75820827D01*
X61206264Y-75966498D01*
X61206261Y-75966510D01*
X61175500Y-76121153D01*
X43980499Y-76121153D01*
X43972459Y-76080733D01*
X43949737Y-75966503D01*
X43937555Y-75937093D01*
X43889397Y-75820827D01*
X43889390Y-75820814D01*
X43801789Y-75689711D01*
X43801786Y-75689707D01*
X43690292Y-75578213D01*
X43690288Y-75578210D01*
X43559185Y-75490609D01*
X43559172Y-75490602D01*
X43413501Y-75430264D01*
X43413489Y-75430261D01*
X43258845Y-75399500D01*
X43258842Y-75399500D01*
X43101158Y-75399500D01*
X43101155Y-75399500D01*
X42946510Y-75430261D01*
X42946498Y-75430264D01*
X42800827Y-75490602D01*
X42800814Y-75490609D01*
X42669711Y-75578210D01*
X42669707Y-75578213D01*
X42558213Y-75689707D01*
X42558210Y-75689711D01*
X42470609Y-75820814D01*
X42470602Y-75820827D01*
X42410264Y-75966498D01*
X42410261Y-75966510D01*
X42379500Y-76121153D01*
X41140500Y-76121153D01*
X41140500Y-73430653D01*
X73240500Y-73430653D01*
X73240500Y-73588346D01*
X73271261Y-73742989D01*
X73271264Y-73743001D01*
X73331602Y-73888672D01*
X73331609Y-73888685D01*
X73419210Y-74019788D01*
X73419213Y-74019792D01*
X73530707Y-74131286D01*
X73530711Y-74131289D01*
X73661814Y-74218890D01*
X73661827Y-74218897D01*
X73724919Y-74245030D01*
X73807503Y-74279237D01*
X73962153Y-74309999D01*
X73962156Y-74310000D01*
X73962158Y-74310000D01*
X74119844Y-74310000D01*
X74119845Y-74309999D01*
X74274497Y-74279237D01*
X74339049Y-74252498D01*
X74408516Y-74245030D01*
X74470995Y-74276305D01*
X74506648Y-74336394D01*
X74510500Y-74367060D01*
X74510500Y-74373846D01*
X74541261Y-74528489D01*
X74541264Y-74528501D01*
X74601602Y-74674172D01*
X74601609Y-74674185D01*
X74689210Y-74805288D01*
X74689213Y-74805292D01*
X74800707Y-74916786D01*
X74800711Y-74916789D01*
X74931814Y-75004390D01*
X74931827Y-75004397D01*
X75077498Y-75064735D01*
X75077503Y-75064737D01*
X75232153Y-75095499D01*
X75232156Y-75095500D01*
X75232158Y-75095500D01*
X75389844Y-75095500D01*
X75389845Y-75095499D01*
X75544497Y-75064737D01*
X75690179Y-75004394D01*
X75821289Y-74916789D01*
X75932789Y-74805289D01*
X76020394Y-74674179D01*
X76080737Y-74528497D01*
X76111500Y-74373842D01*
X76111500Y-74216158D01*
X76111500Y-74216155D01*
X76111499Y-74216153D01*
X76080738Y-74061510D01*
X76080737Y-74061503D01*
X76063458Y-74019788D01*
X76020397Y-73915827D01*
X76020390Y-73915814D01*
X75932789Y-73784711D01*
X75932786Y-73784707D01*
X75821290Y-73673211D01*
X75690185Y-73585609D01*
X75690172Y-73585602D01*
X75679431Y-73581153D01*
X110959500Y-73581153D01*
X110959500Y-73738846D01*
X110990261Y-73893489D01*
X110990264Y-73893501D01*
X111050602Y-74039172D01*
X111050609Y-74039185D01*
X111138210Y-74170288D01*
X111138213Y-74170292D01*
X111249707Y-74281786D01*
X111249711Y-74281789D01*
X111380814Y-74369390D01*
X111380827Y-74369397D01*
X111526498Y-74429735D01*
X111526503Y-74429737D01*
X111681153Y-74460499D01*
X111681156Y-74460500D01*
X111681158Y-74460500D01*
X111838844Y-74460500D01*
X111838845Y-74460499D01*
X111993497Y-74429737D01*
X112128436Y-74373844D01*
X112139172Y-74369397D01*
X112139172Y-74369396D01*
X112139179Y-74369394D01*
X112270289Y-74281789D01*
X112381789Y-74170289D01*
X112469394Y-74039179D01*
X112529737Y-73893497D01*
X112560500Y-73738842D01*
X112560500Y-73581158D01*
X112560500Y-73581155D01*
X112560499Y-73581153D01*
X112554700Y-73552000D01*
X112529737Y-73426503D01*
X112529735Y-73426498D01*
X112469397Y-73280827D01*
X112469390Y-73280814D01*
X112381789Y-73149711D01*
X112381786Y-73149707D01*
X112270292Y-73038213D01*
X112270288Y-73038210D01*
X112139185Y-72950609D01*
X112139172Y-72950602D01*
X111993501Y-72890264D01*
X111993489Y-72890261D01*
X111838845Y-72859500D01*
X111838842Y-72859500D01*
X111681158Y-72859500D01*
X111681155Y-72859500D01*
X111526510Y-72890261D01*
X111526498Y-72890264D01*
X111380827Y-72950602D01*
X111380814Y-72950609D01*
X111249711Y-73038210D01*
X111249707Y-73038213D01*
X111138213Y-73149707D01*
X111138210Y-73149711D01*
X111050609Y-73280814D01*
X111050602Y-73280827D01*
X110990264Y-73426498D01*
X110990261Y-73426510D01*
X110959500Y-73581153D01*
X75679431Y-73581153D01*
X75544501Y-73525264D01*
X75544489Y-73525261D01*
X75389845Y-73494500D01*
X75389842Y-73494500D01*
X75232158Y-73494500D01*
X75232155Y-73494500D01*
X75077510Y-73525261D01*
X75077498Y-73525264D01*
X75012952Y-73552000D01*
X74943482Y-73559469D01*
X74881003Y-73528193D01*
X74845352Y-73468104D01*
X74841500Y-73437439D01*
X74841500Y-73430655D01*
X74841499Y-73430653D01*
X74840675Y-73426510D01*
X74810737Y-73276003D01*
X74758424Y-73149707D01*
X74750397Y-73130327D01*
X74750390Y-73130314D01*
X74662789Y-72999211D01*
X74662786Y-72999207D01*
X74551292Y-72887713D01*
X74551288Y-72887710D01*
X74420185Y-72800109D01*
X74420172Y-72800102D01*
X74274501Y-72739764D01*
X74274489Y-72739761D01*
X74119845Y-72709000D01*
X74119842Y-72709000D01*
X73962158Y-72709000D01*
X73962155Y-72709000D01*
X73807510Y-72739761D01*
X73807498Y-72739764D01*
X73661827Y-72800102D01*
X73661814Y-72800109D01*
X73530711Y-72887710D01*
X73530707Y-72887713D01*
X73419213Y-72999207D01*
X73419210Y-72999211D01*
X73331609Y-73130314D01*
X73331602Y-73130327D01*
X73271264Y-73275998D01*
X73271261Y-73276010D01*
X73240500Y-73430653D01*
X41140500Y-73430653D01*
X41140500Y-70992070D01*
X46634500Y-70992070D01*
X46634500Y-71247929D01*
X46674526Y-71500640D01*
X46753588Y-71743972D01*
X46753589Y-71743975D01*
X46869750Y-71971950D01*
X47020132Y-72178935D01*
X47020136Y-72178940D01*
X47201059Y-72359863D01*
X47201064Y-72359867D01*
X47381607Y-72491038D01*
X47408053Y-72510252D01*
X47557080Y-72586185D01*
X47636024Y-72626410D01*
X47636027Y-72626411D01*
X47757693Y-72665942D01*
X47879361Y-72705474D01*
X48132070Y-72745500D01*
X48132071Y-72745500D01*
X48387929Y-72745500D01*
X48387930Y-72745500D01*
X48640639Y-72705474D01*
X48883975Y-72626410D01*
X49111947Y-72510252D01*
X49318942Y-72359862D01*
X49499862Y-72178942D01*
X49650252Y-71971947D01*
X49766410Y-71743975D01*
X49845474Y-71500639D01*
X49885500Y-71247930D01*
X49885500Y-70992070D01*
X51714500Y-70992070D01*
X51714500Y-71247929D01*
X51754526Y-71500640D01*
X51833588Y-71743972D01*
X51833589Y-71743975D01*
X51949750Y-71971950D01*
X52100132Y-72178935D01*
X52100136Y-72178940D01*
X52281059Y-72359863D01*
X52281064Y-72359867D01*
X52461607Y-72491038D01*
X52488053Y-72510252D01*
X52637080Y-72586185D01*
X52716024Y-72626410D01*
X52716027Y-72626411D01*
X52837693Y-72665942D01*
X52959361Y-72705474D01*
X53212070Y-72745500D01*
X53212071Y-72745500D01*
X53467929Y-72745500D01*
X53467930Y-72745500D01*
X53720639Y-72705474D01*
X53963975Y-72626410D01*
X54191947Y-72510252D01*
X54398942Y-72359862D01*
X54579862Y-72178942D01*
X54730252Y-71971947D01*
X54846410Y-71743975D01*
X54925474Y-71500639D01*
X54965500Y-71247930D01*
X54965500Y-70992070D01*
X64414500Y-70992070D01*
X64414500Y-71247929D01*
X64454526Y-71500640D01*
X64533588Y-71743972D01*
X64533589Y-71743975D01*
X64649750Y-71971950D01*
X64800132Y-72178935D01*
X64800136Y-72178940D01*
X64981059Y-72359863D01*
X64981064Y-72359867D01*
X65161607Y-72491038D01*
X65188053Y-72510252D01*
X65337080Y-72586185D01*
X65416024Y-72626410D01*
X65416027Y-72626411D01*
X65537693Y-72665942D01*
X65659361Y-72705474D01*
X65912070Y-72745500D01*
X65912071Y-72745500D01*
X66167929Y-72745500D01*
X66167930Y-72745500D01*
X66420639Y-72705474D01*
X66663975Y-72626410D01*
X66891947Y-72510252D01*
X67098942Y-72359862D01*
X67279862Y-72178942D01*
X67430252Y-71971947D01*
X67546410Y-71743975D01*
X67625474Y-71500639D01*
X67665500Y-71247930D01*
X67665500Y-70992070D01*
X69494500Y-70992070D01*
X69494500Y-71247929D01*
X69534526Y-71500640D01*
X69613588Y-71743972D01*
X69613589Y-71743975D01*
X69729750Y-71971950D01*
X69880132Y-72178935D01*
X69880136Y-72178940D01*
X70061059Y-72359863D01*
X70061064Y-72359867D01*
X70241607Y-72491038D01*
X70268053Y-72510252D01*
X70417080Y-72586185D01*
X70496024Y-72626410D01*
X70496027Y-72626411D01*
X70617693Y-72665942D01*
X70739361Y-72705474D01*
X70992070Y-72745500D01*
X70992071Y-72745500D01*
X71247929Y-72745500D01*
X71247930Y-72745500D01*
X71500639Y-72705474D01*
X71743975Y-72626410D01*
X71971947Y-72510252D01*
X72178942Y-72359862D01*
X72359862Y-72178942D01*
X72510252Y-71971947D01*
X72626410Y-71743975D01*
X72705474Y-71500639D01*
X72745500Y-71247930D01*
X72745500Y-70992070D01*
X82194500Y-70992070D01*
X82194500Y-71247929D01*
X82234526Y-71500640D01*
X82313588Y-71743972D01*
X82313589Y-71743975D01*
X82429750Y-71971950D01*
X82580132Y-72178935D01*
X82580136Y-72178940D01*
X82761059Y-72359863D01*
X82761064Y-72359867D01*
X82941607Y-72491038D01*
X82968053Y-72510252D01*
X83117080Y-72586185D01*
X83196024Y-72626410D01*
X83196027Y-72626411D01*
X83317693Y-72665942D01*
X83439361Y-72705474D01*
X83692070Y-72745500D01*
X83692071Y-72745500D01*
X83947929Y-72745500D01*
X83947930Y-72745500D01*
X84200639Y-72705474D01*
X84443975Y-72626410D01*
X84671947Y-72510252D01*
X84878942Y-72359862D01*
X85059862Y-72178942D01*
X85210252Y-71971947D01*
X85326410Y-71743975D01*
X85405474Y-71500639D01*
X85445500Y-71247930D01*
X85445500Y-70992070D01*
X87274500Y-70992070D01*
X87274500Y-71247929D01*
X87314526Y-71500640D01*
X87393588Y-71743972D01*
X87393589Y-71743975D01*
X87509750Y-71971950D01*
X87660132Y-72178935D01*
X87660136Y-72178940D01*
X87841059Y-72359863D01*
X87841064Y-72359867D01*
X88021607Y-72491038D01*
X88048053Y-72510252D01*
X88197080Y-72586185D01*
X88276024Y-72626410D01*
X88276027Y-72626411D01*
X88397693Y-72665942D01*
X88519361Y-72705474D01*
X88772070Y-72745500D01*
X88772071Y-72745500D01*
X89027929Y-72745500D01*
X89027930Y-72745500D01*
X89280639Y-72705474D01*
X89523975Y-72626410D01*
X89751947Y-72510252D01*
X89958942Y-72359862D01*
X90139862Y-72178942D01*
X90290252Y-71971947D01*
X90406410Y-71743975D01*
X90485474Y-71500639D01*
X90525500Y-71247930D01*
X90525500Y-70992070D01*
X99974500Y-70992070D01*
X99974500Y-71247929D01*
X100014526Y-71500640D01*
X100093588Y-71743972D01*
X100093589Y-71743975D01*
X100209750Y-71971950D01*
X100360132Y-72178935D01*
X100360136Y-72178940D01*
X100541059Y-72359863D01*
X100541064Y-72359867D01*
X100721607Y-72491038D01*
X100748053Y-72510252D01*
X100897080Y-72586185D01*
X100976024Y-72626410D01*
X100976027Y-72626411D01*
X101097693Y-72665942D01*
X101219361Y-72705474D01*
X101472070Y-72745500D01*
X101472071Y-72745500D01*
X101727929Y-72745500D01*
X101727930Y-72745500D01*
X101980639Y-72705474D01*
X102223975Y-72626410D01*
X102451947Y-72510252D01*
X102658942Y-72359862D01*
X102839862Y-72178942D01*
X102990252Y-71971947D01*
X103106410Y-71743975D01*
X103185474Y-71500639D01*
X103225500Y-71247930D01*
X103225500Y-70992070D01*
X105054500Y-70992070D01*
X105054500Y-71247929D01*
X105094526Y-71500640D01*
X105173588Y-71743972D01*
X105173589Y-71743975D01*
X105289750Y-71971950D01*
X105440132Y-72178935D01*
X105440136Y-72178940D01*
X105621059Y-72359863D01*
X105621064Y-72359867D01*
X105801607Y-72491038D01*
X105828053Y-72510252D01*
X105977080Y-72586185D01*
X106056024Y-72626410D01*
X106056027Y-72626411D01*
X106177693Y-72665942D01*
X106299361Y-72705474D01*
X106552070Y-72745500D01*
X106552071Y-72745500D01*
X106807929Y-72745500D01*
X106807930Y-72745500D01*
X107060639Y-72705474D01*
X107303975Y-72626410D01*
X107531947Y-72510252D01*
X107738942Y-72359862D01*
X107919862Y-72178942D01*
X108070252Y-71971947D01*
X108186410Y-71743975D01*
X108265474Y-71500639D01*
X108305500Y-71247930D01*
X108305500Y-70992070D01*
X108265474Y-70739361D01*
X108186410Y-70496025D01*
X108186410Y-70496024D01*
X108146185Y-70417080D01*
X108070252Y-70268053D01*
X107924860Y-70067937D01*
X107919867Y-70061064D01*
X107919863Y-70061059D01*
X107738940Y-69880136D01*
X107738935Y-69880132D01*
X107531950Y-69729750D01*
X107531949Y-69729749D01*
X107531947Y-69729748D01*
X107458910Y-69692533D01*
X107303975Y-69613589D01*
X107303972Y-69613588D01*
X107060640Y-69534526D01*
X106934284Y-69514513D01*
X106807930Y-69494500D01*
X106552070Y-69494500D01*
X106467833Y-69507842D01*
X106299359Y-69534526D01*
X106056027Y-69613588D01*
X106056024Y-69613589D01*
X105828049Y-69729750D01*
X105621064Y-69880132D01*
X105621059Y-69880136D01*
X105440136Y-70061059D01*
X105440132Y-70061064D01*
X105289750Y-70268049D01*
X105173589Y-70496024D01*
X105173588Y-70496027D01*
X105094526Y-70739359D01*
X105054500Y-70992070D01*
X103225500Y-70992070D01*
X103185474Y-70739361D01*
X103106410Y-70496025D01*
X103106410Y-70496024D01*
X103066185Y-70417080D01*
X102990252Y-70268053D01*
X102844860Y-70067937D01*
X102839867Y-70061064D01*
X102839863Y-70061059D01*
X102658940Y-69880136D01*
X102658935Y-69880132D01*
X102451950Y-69729750D01*
X102451949Y-69729749D01*
X102451947Y-69729748D01*
X102378910Y-69692533D01*
X102223975Y-69613589D01*
X102223972Y-69613588D01*
X101980640Y-69534526D01*
X101854284Y-69514513D01*
X101727930Y-69494500D01*
X101472070Y-69494500D01*
X101387833Y-69507842D01*
X101219359Y-69534526D01*
X100976027Y-69613588D01*
X100976024Y-69613589D01*
X100748049Y-69729750D01*
X100541064Y-69880132D01*
X100541059Y-69880136D01*
X100360136Y-70061059D01*
X100360132Y-70061064D01*
X100209750Y-70268049D01*
X100093589Y-70496024D01*
X100093588Y-70496027D01*
X100014526Y-70739359D01*
X99974500Y-70992070D01*
X90525500Y-70992070D01*
X90485474Y-70739361D01*
X90406410Y-70496025D01*
X90406410Y-70496024D01*
X90366185Y-70417080D01*
X90290252Y-70268053D01*
X90144860Y-70067937D01*
X90139867Y-70061064D01*
X90139863Y-70061059D01*
X89958940Y-69880136D01*
X89958935Y-69880132D01*
X89751950Y-69729750D01*
X89751949Y-69729749D01*
X89751947Y-69729748D01*
X89678910Y-69692533D01*
X89523975Y-69613589D01*
X89523972Y-69613588D01*
X89280640Y-69534526D01*
X89154284Y-69514513D01*
X89027930Y-69494500D01*
X88772070Y-69494500D01*
X88687833Y-69507842D01*
X88519359Y-69534526D01*
X88276027Y-69613588D01*
X88276024Y-69613589D01*
X88048049Y-69729750D01*
X87841064Y-69880132D01*
X87841059Y-69880136D01*
X87660136Y-70061059D01*
X87660132Y-70061064D01*
X87509750Y-70268049D01*
X87393589Y-70496024D01*
X87393588Y-70496027D01*
X87314526Y-70739359D01*
X87274500Y-70992070D01*
X85445500Y-70992070D01*
X85405474Y-70739361D01*
X85326410Y-70496025D01*
X85326410Y-70496024D01*
X85286185Y-70417080D01*
X85210252Y-70268053D01*
X85064860Y-70067937D01*
X85059867Y-70061064D01*
X85059863Y-70061059D01*
X84878940Y-69880136D01*
X84878935Y-69880132D01*
X84671950Y-69729750D01*
X84671949Y-69729749D01*
X84671947Y-69729748D01*
X84598910Y-69692533D01*
X84443975Y-69613589D01*
X84443972Y-69613588D01*
X84200640Y-69534526D01*
X84074284Y-69514513D01*
X83947930Y-69494500D01*
X83692070Y-69494500D01*
X83607833Y-69507842D01*
X83439359Y-69534526D01*
X83196027Y-69613588D01*
X83196024Y-69613589D01*
X82968049Y-69729750D01*
X82761064Y-69880132D01*
X82761059Y-69880136D01*
X82580136Y-70061059D01*
X82580132Y-70061064D01*
X82429750Y-70268049D01*
X82313589Y-70496024D01*
X82313588Y-70496027D01*
X82234526Y-70739359D01*
X82194500Y-70992070D01*
X72745500Y-70992070D01*
X72705474Y-70739361D01*
X72626410Y-70496025D01*
X72626410Y-70496024D01*
X72586185Y-70417080D01*
X72510252Y-70268053D01*
X72364860Y-70067937D01*
X72359867Y-70061064D01*
X72359863Y-70061059D01*
X72178940Y-69880136D01*
X72178935Y-69880132D01*
X71971950Y-69729750D01*
X71971949Y-69729749D01*
X71971947Y-69729748D01*
X71898910Y-69692533D01*
X71743975Y-69613589D01*
X71743972Y-69613588D01*
X71500640Y-69534526D01*
X71374284Y-69514513D01*
X71247930Y-69494500D01*
X70992070Y-69494500D01*
X70907833Y-69507842D01*
X70739359Y-69534526D01*
X70496027Y-69613588D01*
X70496024Y-69613589D01*
X70268049Y-69729750D01*
X70061064Y-69880132D01*
X70061059Y-69880136D01*
X69880136Y-70061059D01*
X69880132Y-70061064D01*
X69729750Y-70268049D01*
X69613589Y-70496024D01*
X69613588Y-70496027D01*
X69534526Y-70739359D01*
X69494500Y-70992070D01*
X67665500Y-70992070D01*
X67625474Y-70739361D01*
X67546410Y-70496025D01*
X67546410Y-70496024D01*
X67506185Y-70417080D01*
X67430252Y-70268053D01*
X67284860Y-70067937D01*
X67279867Y-70061064D01*
X67279863Y-70061059D01*
X67098940Y-69880136D01*
X67098935Y-69880132D01*
X66891950Y-69729750D01*
X66891949Y-69729749D01*
X66891947Y-69729748D01*
X66818910Y-69692533D01*
X66663975Y-69613589D01*
X66663972Y-69613588D01*
X66420640Y-69534526D01*
X66294284Y-69514513D01*
X66167930Y-69494500D01*
X65912070Y-69494500D01*
X65827833Y-69507842D01*
X65659359Y-69534526D01*
X65416027Y-69613588D01*
X65416024Y-69613589D01*
X65188049Y-69729750D01*
X64981064Y-69880132D01*
X64981059Y-69880136D01*
X64800136Y-70061059D01*
X64800132Y-70061064D01*
X64649750Y-70268049D01*
X64533589Y-70496024D01*
X64533588Y-70496027D01*
X64454526Y-70739359D01*
X64414500Y-70992070D01*
X54965500Y-70992070D01*
X54925474Y-70739361D01*
X54846410Y-70496025D01*
X54846410Y-70496024D01*
X54806185Y-70417080D01*
X54730252Y-70268053D01*
X54584860Y-70067937D01*
X54579867Y-70061064D01*
X54579863Y-70061059D01*
X54398940Y-69880136D01*
X54398935Y-69880132D01*
X54191950Y-69729750D01*
X54191949Y-69729749D01*
X54191947Y-69729748D01*
X54118910Y-69692533D01*
X53963975Y-69613589D01*
X53963972Y-69613588D01*
X53720640Y-69534526D01*
X53594284Y-69514513D01*
X53467930Y-69494500D01*
X53212070Y-69494500D01*
X53127833Y-69507842D01*
X52959359Y-69534526D01*
X52716027Y-69613588D01*
X52716024Y-69613589D01*
X52488049Y-69729750D01*
X52281064Y-69880132D01*
X52281059Y-69880136D01*
X52100136Y-70061059D01*
X52100132Y-70061064D01*
X51949750Y-70268049D01*
X51833589Y-70496024D01*
X51833588Y-70496027D01*
X51754526Y-70739359D01*
X51714500Y-70992070D01*
X49885500Y-70992070D01*
X49845474Y-70739361D01*
X49766410Y-70496025D01*
X49766410Y-70496024D01*
X49726185Y-70417080D01*
X49650252Y-70268053D01*
X49504860Y-70067937D01*
X49499867Y-70061064D01*
X49499863Y-70061059D01*
X49318940Y-69880136D01*
X49318935Y-69880132D01*
X49111950Y-69729750D01*
X49111949Y-69729749D01*
X49111947Y-69729748D01*
X49038910Y-69692533D01*
X48883975Y-69613589D01*
X48883972Y-69613588D01*
X48640640Y-69534526D01*
X48514284Y-69514513D01*
X48387930Y-69494500D01*
X48132070Y-69494500D01*
X48047833Y-69507842D01*
X47879359Y-69534526D01*
X47636027Y-69613588D01*
X47636024Y-69613589D01*
X47408049Y-69729750D01*
X47201064Y-69880132D01*
X47201059Y-69880136D01*
X47020136Y-70061059D01*
X47020132Y-70061064D01*
X46869750Y-70268049D01*
X46753589Y-70496024D01*
X46753588Y-70496027D01*
X46674526Y-70739359D01*
X46634500Y-70992070D01*
X41140500Y-70992070D01*
X41140500Y-68459941D01*
X49274500Y-68459941D01*
X49274500Y-68700058D01*
X49312063Y-68937222D01*
X49386265Y-69165593D01*
X49495276Y-69379536D01*
X49636414Y-69573796D01*
X49806204Y-69743586D01*
X50000464Y-69884724D01*
X50101543Y-69936226D01*
X50214406Y-69993734D01*
X50214408Y-69993734D01*
X50214411Y-69993736D01*
X50442778Y-70067937D01*
X50679941Y-70105500D01*
X50679942Y-70105500D01*
X50920058Y-70105500D01*
X50920059Y-70105500D01*
X51157222Y-70067937D01*
X51385589Y-69993736D01*
X51599536Y-69884724D01*
X51793796Y-69743586D01*
X51963586Y-69573796D01*
X52104724Y-69379536D01*
X52213736Y-69165589D01*
X52287937Y-68937222D01*
X52325500Y-68700059D01*
X52325500Y-68459941D01*
X52291798Y-68247153D01*
X59143500Y-68247153D01*
X59143500Y-68404846D01*
X59174261Y-68559489D01*
X59174264Y-68559501D01*
X59234602Y-68705172D01*
X59234609Y-68705185D01*
X59322210Y-68836288D01*
X59322213Y-68836292D01*
X59433707Y-68947786D01*
X59433711Y-68947789D01*
X59564814Y-69035390D01*
X59564827Y-69035397D01*
X59710498Y-69095735D01*
X59710503Y-69095737D01*
X59865153Y-69126499D01*
X59865156Y-69126500D01*
X59865158Y-69126500D01*
X60022844Y-69126500D01*
X60022845Y-69126499D01*
X60177497Y-69095737D01*
X60323179Y-69035394D01*
X60454289Y-68947789D01*
X60565789Y-68836289D01*
X60653394Y-68705179D01*
X60713737Y-68559497D01*
X60733540Y-68459941D01*
X67054500Y-68459941D01*
X67054500Y-68700058D01*
X67092063Y-68937222D01*
X67166265Y-69165593D01*
X67275276Y-69379536D01*
X67416414Y-69573796D01*
X67586204Y-69743586D01*
X67780464Y-69884724D01*
X67881543Y-69936226D01*
X67994406Y-69993734D01*
X67994408Y-69993734D01*
X67994411Y-69993736D01*
X68222778Y-70067937D01*
X68459941Y-70105500D01*
X68459942Y-70105500D01*
X68700058Y-70105500D01*
X68700059Y-70105500D01*
X68937222Y-70067937D01*
X69165589Y-69993736D01*
X69379536Y-69884724D01*
X69573796Y-69743586D01*
X69743586Y-69573796D01*
X69884724Y-69379536D01*
X69993736Y-69165589D01*
X70067937Y-68937222D01*
X70105500Y-68700059D01*
X70105500Y-68459941D01*
X84834500Y-68459941D01*
X84834500Y-68700058D01*
X84872063Y-68937222D01*
X84946265Y-69165593D01*
X85055276Y-69379536D01*
X85196414Y-69573796D01*
X85366204Y-69743586D01*
X85560464Y-69884724D01*
X85661543Y-69936226D01*
X85774406Y-69993734D01*
X85774408Y-69993734D01*
X85774411Y-69993736D01*
X86002778Y-70067937D01*
X86239941Y-70105500D01*
X86239942Y-70105500D01*
X86480058Y-70105500D01*
X86480059Y-70105500D01*
X86717222Y-70067937D01*
X86945589Y-69993736D01*
X87159536Y-69884724D01*
X87353796Y-69743586D01*
X87523586Y-69573796D01*
X87664724Y-69379536D01*
X87773736Y-69165589D01*
X87847937Y-68937222D01*
X87885500Y-68700059D01*
X87885500Y-68459941D01*
X102614500Y-68459941D01*
X102614500Y-68700058D01*
X102652063Y-68937222D01*
X102726265Y-69165593D01*
X102835276Y-69379536D01*
X102976414Y-69573796D01*
X103146204Y-69743586D01*
X103340464Y-69884724D01*
X103441543Y-69936226D01*
X103554406Y-69993734D01*
X103554408Y-69993734D01*
X103554411Y-69993736D01*
X103782778Y-70067937D01*
X104019941Y-70105500D01*
X104019942Y-70105500D01*
X104260058Y-70105500D01*
X104260059Y-70105500D01*
X104497222Y-70067937D01*
X104725589Y-69993736D01*
X104939536Y-69884724D01*
X105133796Y-69743586D01*
X105303586Y-69573796D01*
X105444724Y-69379536D01*
X105553736Y-69165589D01*
X105627937Y-68937222D01*
X105665500Y-68700059D01*
X105665500Y-68459941D01*
X105627937Y-68222778D01*
X105553736Y-67994411D01*
X105553734Y-67994408D01*
X105553734Y-67994406D01*
X105444723Y-67780463D01*
X105389322Y-67704210D01*
X105303586Y-67586204D01*
X105133796Y-67416414D01*
X104939536Y-67275276D01*
X104725593Y-67166265D01*
X104497222Y-67092063D01*
X104260059Y-67054500D01*
X104019941Y-67054500D01*
X103901359Y-67073281D01*
X103782777Y-67092063D01*
X103554406Y-67166265D01*
X103340463Y-67275276D01*
X103146201Y-67416416D01*
X102976416Y-67586201D01*
X102835276Y-67780463D01*
X102726265Y-67994406D01*
X102652063Y-68222777D01*
X102614500Y-68459941D01*
X87885500Y-68459941D01*
X87847937Y-68222778D01*
X87773736Y-67994411D01*
X87773734Y-67994408D01*
X87773734Y-67994406D01*
X87664723Y-67780463D01*
X87609322Y-67704210D01*
X87523586Y-67586204D01*
X87353796Y-67416414D01*
X87159536Y-67275276D01*
X86945593Y-67166265D01*
X86717222Y-67092063D01*
X86480059Y-67054500D01*
X86239941Y-67054500D01*
X86121359Y-67073281D01*
X86002777Y-67092063D01*
X85774406Y-67166265D01*
X85560463Y-67275276D01*
X85366201Y-67416416D01*
X85196416Y-67586201D01*
X85055276Y-67780463D01*
X84946265Y-67994406D01*
X84872063Y-68222777D01*
X84834500Y-68459941D01*
X70105500Y-68459941D01*
X70067937Y-68222778D01*
X69993736Y-67994411D01*
X69993734Y-67994408D01*
X69993734Y-67994406D01*
X69884723Y-67780463D01*
X69829322Y-67704210D01*
X69743586Y-67586204D01*
X69573796Y-67416414D01*
X69379536Y-67275276D01*
X69165593Y-67166265D01*
X68937222Y-67092063D01*
X68700059Y-67054500D01*
X68459941Y-67054500D01*
X68341359Y-67073281D01*
X68222777Y-67092063D01*
X67994406Y-67166265D01*
X67780463Y-67275276D01*
X67586201Y-67416416D01*
X67416416Y-67586201D01*
X67275276Y-67780463D01*
X67166265Y-67994406D01*
X67092063Y-68222777D01*
X67054500Y-68459941D01*
X60733540Y-68459941D01*
X60744500Y-68404842D01*
X60744500Y-68247158D01*
X60744500Y-68247155D01*
X60744499Y-68247153D01*
X60713738Y-68092510D01*
X60713737Y-68092503D01*
X60713735Y-68092498D01*
X60653397Y-67946827D01*
X60653390Y-67946814D01*
X60565789Y-67815711D01*
X60565786Y-67815707D01*
X60454292Y-67704213D01*
X60454288Y-67704210D01*
X60323185Y-67616609D01*
X60323172Y-67616602D01*
X60177501Y-67556264D01*
X60177489Y-67556261D01*
X60022845Y-67525500D01*
X60022842Y-67525500D01*
X59865158Y-67525500D01*
X59865155Y-67525500D01*
X59710510Y-67556261D01*
X59710498Y-67556264D01*
X59564827Y-67616602D01*
X59564814Y-67616609D01*
X59433711Y-67704210D01*
X59433707Y-67704213D01*
X59322213Y-67815707D01*
X59322210Y-67815711D01*
X59234609Y-67946814D01*
X59234602Y-67946827D01*
X59174264Y-68092498D01*
X59174261Y-68092510D01*
X59143500Y-68247153D01*
X52291798Y-68247153D01*
X52287937Y-68222778D01*
X52213736Y-67994411D01*
X52213734Y-67994408D01*
X52213734Y-67994406D01*
X52104723Y-67780463D01*
X52049322Y-67704210D01*
X51963586Y-67586204D01*
X51793796Y-67416414D01*
X51599536Y-67275276D01*
X51385593Y-67166265D01*
X51157222Y-67092063D01*
X50920059Y-67054500D01*
X50679941Y-67054500D01*
X50561359Y-67073281D01*
X50442777Y-67092063D01*
X50214406Y-67166265D01*
X50000463Y-67275276D01*
X49806201Y-67416416D01*
X49636416Y-67586201D01*
X49495276Y-67780463D01*
X49386265Y-67994406D01*
X49312063Y-68222777D01*
X49274500Y-68459941D01*
X41140500Y-68459941D01*
X41140500Y-65912070D01*
X46634500Y-65912070D01*
X46634500Y-66167929D01*
X46674526Y-66420640D01*
X46753588Y-66663972D01*
X46753589Y-66663975D01*
X46869750Y-66891950D01*
X47020132Y-67098935D01*
X47020136Y-67098940D01*
X47201059Y-67279863D01*
X47201064Y-67279867D01*
X47381607Y-67411038D01*
X47408053Y-67430252D01*
X47557080Y-67506185D01*
X47636024Y-67546410D01*
X47636027Y-67546411D01*
X47757693Y-67585942D01*
X47879361Y-67625474D01*
X48132070Y-67665500D01*
X48132071Y-67665500D01*
X48387929Y-67665500D01*
X48387930Y-67665500D01*
X48640639Y-67625474D01*
X48883975Y-67546410D01*
X49111947Y-67430252D01*
X49318942Y-67279862D01*
X49499862Y-67098942D01*
X49650252Y-66891947D01*
X49766410Y-66663975D01*
X49845474Y-66420639D01*
X49885500Y-66167930D01*
X49885500Y-65912070D01*
X51714500Y-65912070D01*
X51714500Y-66167929D01*
X51754526Y-66420640D01*
X51833588Y-66663972D01*
X51833589Y-66663975D01*
X51949750Y-66891950D01*
X52100132Y-67098935D01*
X52100136Y-67098940D01*
X52281059Y-67279863D01*
X52281064Y-67279867D01*
X52461607Y-67411038D01*
X52488053Y-67430252D01*
X52637080Y-67506185D01*
X52716024Y-67546410D01*
X52716027Y-67546411D01*
X52837693Y-67585942D01*
X52959361Y-67625474D01*
X53212070Y-67665500D01*
X53212071Y-67665500D01*
X53467929Y-67665500D01*
X53467930Y-67665500D01*
X53720639Y-67625474D01*
X53963975Y-67546410D01*
X54191947Y-67430252D01*
X54398942Y-67279862D01*
X54579862Y-67098942D01*
X54730252Y-66891947D01*
X54846410Y-66663975D01*
X54925474Y-66420639D01*
X54965500Y-66167930D01*
X54965500Y-65912070D01*
X64414500Y-65912070D01*
X64414500Y-66167929D01*
X64454526Y-66420640D01*
X64533588Y-66663972D01*
X64533589Y-66663975D01*
X64649750Y-66891950D01*
X64800132Y-67098935D01*
X64800136Y-67098940D01*
X64981059Y-67279863D01*
X64981064Y-67279867D01*
X65161607Y-67411038D01*
X65188053Y-67430252D01*
X65337080Y-67506185D01*
X65416024Y-67546410D01*
X65416027Y-67546411D01*
X65537693Y-67585942D01*
X65659361Y-67625474D01*
X65912070Y-67665500D01*
X65912071Y-67665500D01*
X66167929Y-67665500D01*
X66167930Y-67665500D01*
X66420639Y-67625474D01*
X66663975Y-67546410D01*
X66891947Y-67430252D01*
X67098942Y-67279862D01*
X67279862Y-67098942D01*
X67430252Y-66891947D01*
X67546410Y-66663975D01*
X67625474Y-66420639D01*
X67665500Y-66167930D01*
X67665500Y-65912070D01*
X69494500Y-65912070D01*
X69494500Y-66167929D01*
X69534526Y-66420640D01*
X69613588Y-66663972D01*
X69613589Y-66663975D01*
X69729750Y-66891950D01*
X69880132Y-67098935D01*
X69880136Y-67098940D01*
X70061059Y-67279863D01*
X70061064Y-67279867D01*
X70241607Y-67411038D01*
X70268053Y-67430252D01*
X70417080Y-67506185D01*
X70496024Y-67546410D01*
X70496027Y-67546411D01*
X70617693Y-67585942D01*
X70739361Y-67625474D01*
X70992070Y-67665500D01*
X70992071Y-67665500D01*
X71247929Y-67665500D01*
X71247930Y-67665500D01*
X71500639Y-67625474D01*
X71743975Y-67546410D01*
X71971947Y-67430252D01*
X72178942Y-67279862D01*
X72359862Y-67098942D01*
X72510252Y-66891947D01*
X72626410Y-66663975D01*
X72705474Y-66420639D01*
X72745500Y-66167930D01*
X72745500Y-65912070D01*
X82194500Y-65912070D01*
X82194500Y-66167929D01*
X82234526Y-66420640D01*
X82313588Y-66663972D01*
X82313589Y-66663975D01*
X82429750Y-66891950D01*
X82580132Y-67098935D01*
X82580136Y-67098940D01*
X82761059Y-67279863D01*
X82761064Y-67279867D01*
X82941607Y-67411038D01*
X82968053Y-67430252D01*
X83117080Y-67506185D01*
X83196024Y-67546410D01*
X83196027Y-67546411D01*
X83317693Y-67585942D01*
X83439361Y-67625474D01*
X83692070Y-67665500D01*
X83692071Y-67665500D01*
X83947929Y-67665500D01*
X83947930Y-67665500D01*
X84200639Y-67625474D01*
X84443975Y-67546410D01*
X84671947Y-67430252D01*
X84878942Y-67279862D01*
X85059862Y-67098942D01*
X85210252Y-66891947D01*
X85326410Y-66663975D01*
X85405474Y-66420639D01*
X85445500Y-66167930D01*
X85445500Y-65912070D01*
X87274500Y-65912070D01*
X87274500Y-66167929D01*
X87314526Y-66420640D01*
X87393588Y-66663972D01*
X87393589Y-66663975D01*
X87509750Y-66891950D01*
X87660132Y-67098935D01*
X87660136Y-67098940D01*
X87841059Y-67279863D01*
X87841064Y-67279867D01*
X88021607Y-67411038D01*
X88048053Y-67430252D01*
X88197080Y-67506185D01*
X88276024Y-67546410D01*
X88276027Y-67546411D01*
X88397693Y-67585942D01*
X88519361Y-67625474D01*
X88772070Y-67665500D01*
X88772071Y-67665500D01*
X89027929Y-67665500D01*
X89027930Y-67665500D01*
X89280639Y-67625474D01*
X89523975Y-67546410D01*
X89751947Y-67430252D01*
X89958942Y-67279862D01*
X90139862Y-67098942D01*
X90290252Y-66891947D01*
X90406410Y-66663975D01*
X90485474Y-66420639D01*
X90525500Y-66167930D01*
X90525500Y-65912070D01*
X99974500Y-65912070D01*
X99974500Y-66167929D01*
X100014526Y-66420640D01*
X100093588Y-66663972D01*
X100093589Y-66663975D01*
X100209750Y-66891950D01*
X100360132Y-67098935D01*
X100360136Y-67098940D01*
X100541059Y-67279863D01*
X100541064Y-67279867D01*
X100721607Y-67411038D01*
X100748053Y-67430252D01*
X100897080Y-67506185D01*
X100976024Y-67546410D01*
X100976027Y-67546411D01*
X101097693Y-67585942D01*
X101219361Y-67625474D01*
X101472070Y-67665500D01*
X101472071Y-67665500D01*
X101727929Y-67665500D01*
X101727930Y-67665500D01*
X101980639Y-67625474D01*
X102223975Y-67546410D01*
X102451947Y-67430252D01*
X102658942Y-67279862D01*
X102839862Y-67098942D01*
X102990252Y-66891947D01*
X103106410Y-66663975D01*
X103185474Y-66420639D01*
X103225500Y-66167930D01*
X103225500Y-65912070D01*
X105054500Y-65912070D01*
X105054500Y-66167929D01*
X105094526Y-66420640D01*
X105173588Y-66663972D01*
X105173589Y-66663975D01*
X105289750Y-66891950D01*
X105440132Y-67098935D01*
X105440136Y-67098940D01*
X105621059Y-67279863D01*
X105621064Y-67279867D01*
X105801607Y-67411038D01*
X105828053Y-67430252D01*
X105977080Y-67506185D01*
X106056024Y-67546410D01*
X106056027Y-67546411D01*
X106177693Y-67585942D01*
X106299361Y-67625474D01*
X106552070Y-67665500D01*
X106552071Y-67665500D01*
X106807929Y-67665500D01*
X106807930Y-67665500D01*
X107060639Y-67625474D01*
X107303975Y-67546410D01*
X107531947Y-67430252D01*
X107738942Y-67279862D01*
X107919862Y-67098942D01*
X108070252Y-66891947D01*
X108186410Y-66663975D01*
X108265474Y-66420639D01*
X108305500Y-66167930D01*
X108305500Y-65912070D01*
X108265474Y-65659361D01*
X108186410Y-65416025D01*
X108186410Y-65416024D01*
X108146185Y-65337080D01*
X108070252Y-65188053D01*
X108051038Y-65161607D01*
X107919867Y-64981064D01*
X107919863Y-64981059D01*
X107738940Y-64800136D01*
X107738935Y-64800132D01*
X107531950Y-64649750D01*
X107531949Y-64649749D01*
X107531947Y-64649748D01*
X107458910Y-64612533D01*
X107303975Y-64533589D01*
X107303972Y-64533588D01*
X107060640Y-64454526D01*
X106934284Y-64434513D01*
X106807930Y-64414500D01*
X106552070Y-64414500D01*
X106467833Y-64427842D01*
X106299359Y-64454526D01*
X106056027Y-64533588D01*
X106056024Y-64533589D01*
X105828049Y-64649750D01*
X105621064Y-64800132D01*
X105621059Y-64800136D01*
X105440136Y-64981059D01*
X105440132Y-64981064D01*
X105289750Y-65188049D01*
X105173589Y-65416024D01*
X105173588Y-65416027D01*
X105094526Y-65659359D01*
X105054500Y-65912070D01*
X103225500Y-65912070D01*
X103185474Y-65659361D01*
X103106410Y-65416025D01*
X103106410Y-65416024D01*
X103066185Y-65337080D01*
X102990252Y-65188053D01*
X102971038Y-65161607D01*
X102839867Y-64981064D01*
X102839863Y-64981059D01*
X102658940Y-64800136D01*
X102658935Y-64800132D01*
X102451950Y-64649750D01*
X102451949Y-64649749D01*
X102451947Y-64649748D01*
X102378910Y-64612533D01*
X102223975Y-64533589D01*
X102223972Y-64533588D01*
X101980640Y-64454526D01*
X101854284Y-64434513D01*
X101727930Y-64414500D01*
X101472070Y-64414500D01*
X101387833Y-64427842D01*
X101219359Y-64454526D01*
X100976027Y-64533588D01*
X100976024Y-64533589D01*
X100748049Y-64649750D01*
X100541064Y-64800132D01*
X100541059Y-64800136D01*
X100360136Y-64981059D01*
X100360132Y-64981064D01*
X100209750Y-65188049D01*
X100093589Y-65416024D01*
X100093588Y-65416027D01*
X100014526Y-65659359D01*
X99974500Y-65912070D01*
X90525500Y-65912070D01*
X90485474Y-65659361D01*
X90406410Y-65416025D01*
X90406410Y-65416024D01*
X90366185Y-65337080D01*
X90290252Y-65188053D01*
X90271038Y-65161607D01*
X90139867Y-64981064D01*
X90139863Y-64981059D01*
X89958940Y-64800136D01*
X89958935Y-64800132D01*
X89751950Y-64649750D01*
X89751949Y-64649749D01*
X89751947Y-64649748D01*
X89678910Y-64612533D01*
X89523975Y-64533589D01*
X89523972Y-64533588D01*
X89280640Y-64454526D01*
X89154284Y-64434513D01*
X89027930Y-64414500D01*
X88772070Y-64414500D01*
X88687833Y-64427842D01*
X88519359Y-64454526D01*
X88276027Y-64533588D01*
X88276024Y-64533589D01*
X88048049Y-64649750D01*
X87841064Y-64800132D01*
X87841059Y-64800136D01*
X87660136Y-64981059D01*
X87660132Y-64981064D01*
X87509750Y-65188049D01*
X87393589Y-65416024D01*
X87393588Y-65416027D01*
X87314526Y-65659359D01*
X87274500Y-65912070D01*
X85445500Y-65912070D01*
X85405474Y-65659361D01*
X85326410Y-65416025D01*
X85326410Y-65416024D01*
X85286185Y-65337080D01*
X85210252Y-65188053D01*
X85191038Y-65161607D01*
X85059867Y-64981064D01*
X85059863Y-64981059D01*
X84878940Y-64800136D01*
X84878935Y-64800132D01*
X84671950Y-64649750D01*
X84671949Y-64649749D01*
X84671947Y-64649748D01*
X84598910Y-64612533D01*
X84443975Y-64533589D01*
X84443972Y-64533588D01*
X84200640Y-64454526D01*
X84074284Y-64434513D01*
X83947930Y-64414500D01*
X83692070Y-64414500D01*
X83607833Y-64427842D01*
X83439359Y-64454526D01*
X83196027Y-64533588D01*
X83196024Y-64533589D01*
X82968049Y-64649750D01*
X82761064Y-64800132D01*
X82761059Y-64800136D01*
X82580136Y-64981059D01*
X82580132Y-64981064D01*
X82429750Y-65188049D01*
X82313589Y-65416024D01*
X82313588Y-65416027D01*
X82234526Y-65659359D01*
X82194500Y-65912070D01*
X72745500Y-65912070D01*
X72705474Y-65659361D01*
X72626410Y-65416025D01*
X72626410Y-65416024D01*
X72586185Y-65337080D01*
X72510252Y-65188053D01*
X72491038Y-65161607D01*
X72359867Y-64981064D01*
X72359863Y-64981059D01*
X72178940Y-64800136D01*
X72178935Y-64800132D01*
X71971950Y-64649750D01*
X71971949Y-64649749D01*
X71971947Y-64649748D01*
X71898910Y-64612533D01*
X71743975Y-64533589D01*
X71743972Y-64533588D01*
X71500640Y-64454526D01*
X71374284Y-64434513D01*
X71247930Y-64414500D01*
X70992070Y-64414500D01*
X70907833Y-64427842D01*
X70739359Y-64454526D01*
X70496027Y-64533588D01*
X70496024Y-64533589D01*
X70268049Y-64649750D01*
X70061064Y-64800132D01*
X70061059Y-64800136D01*
X69880136Y-64981059D01*
X69880132Y-64981064D01*
X69729750Y-65188049D01*
X69613589Y-65416024D01*
X69613588Y-65416027D01*
X69534526Y-65659359D01*
X69494500Y-65912070D01*
X67665500Y-65912070D01*
X67625474Y-65659361D01*
X67546410Y-65416025D01*
X67546410Y-65416024D01*
X67506185Y-65337080D01*
X67430252Y-65188053D01*
X67411038Y-65161607D01*
X67279867Y-64981064D01*
X67279863Y-64981059D01*
X67098940Y-64800136D01*
X67098935Y-64800132D01*
X66891950Y-64649750D01*
X66891949Y-64649749D01*
X66891947Y-64649748D01*
X66818910Y-64612533D01*
X66663975Y-64533589D01*
X66663972Y-64533588D01*
X66420640Y-64454526D01*
X66294284Y-64434513D01*
X66167930Y-64414500D01*
X65912070Y-64414500D01*
X65827833Y-64427842D01*
X65659359Y-64454526D01*
X65416027Y-64533588D01*
X65416024Y-64533589D01*
X65188049Y-64649750D01*
X64981064Y-64800132D01*
X64981059Y-64800136D01*
X64800136Y-64981059D01*
X64800132Y-64981064D01*
X64649750Y-65188049D01*
X64533589Y-65416024D01*
X64533588Y-65416027D01*
X64454526Y-65659359D01*
X64414500Y-65912070D01*
X54965500Y-65912070D01*
X54925474Y-65659361D01*
X54846410Y-65416025D01*
X54846410Y-65416024D01*
X54806185Y-65337080D01*
X54730252Y-65188053D01*
X54711038Y-65161607D01*
X54579867Y-64981064D01*
X54579863Y-64981059D01*
X54398940Y-64800136D01*
X54398935Y-64800132D01*
X54191950Y-64649750D01*
X54191949Y-64649749D01*
X54191947Y-64649748D01*
X54118910Y-64612533D01*
X53963975Y-64533589D01*
X53963972Y-64533588D01*
X53720640Y-64454526D01*
X53594284Y-64434513D01*
X53467930Y-64414500D01*
X53212070Y-64414500D01*
X53127833Y-64427842D01*
X52959359Y-64454526D01*
X52716027Y-64533588D01*
X52716024Y-64533589D01*
X52488049Y-64649750D01*
X52281064Y-64800132D01*
X52281059Y-64800136D01*
X52100136Y-64981059D01*
X52100132Y-64981064D01*
X51949750Y-65188049D01*
X51833589Y-65416024D01*
X51833588Y-65416027D01*
X51754526Y-65659359D01*
X51714500Y-65912070D01*
X49885500Y-65912070D01*
X49845474Y-65659361D01*
X49766410Y-65416025D01*
X49766410Y-65416024D01*
X49726185Y-65337080D01*
X49650252Y-65188053D01*
X49631038Y-65161607D01*
X49499867Y-64981064D01*
X49499863Y-64981059D01*
X49318940Y-64800136D01*
X49318935Y-64800132D01*
X49111950Y-64649750D01*
X49111949Y-64649749D01*
X49111947Y-64649748D01*
X49038910Y-64612533D01*
X48883975Y-64533589D01*
X48883972Y-64533588D01*
X48640640Y-64454526D01*
X48514284Y-64434513D01*
X48387930Y-64414500D01*
X48132070Y-64414500D01*
X48047833Y-64427842D01*
X47879359Y-64454526D01*
X47636027Y-64533588D01*
X47636024Y-64533589D01*
X47408049Y-64649750D01*
X47201064Y-64800132D01*
X47201059Y-64800136D01*
X47020136Y-64981059D01*
X47020132Y-64981064D01*
X46869750Y-65188049D01*
X46753589Y-65416024D01*
X46753588Y-65416027D01*
X46674526Y-65659359D01*
X46634500Y-65912070D01*
X41140500Y-65912070D01*
X41140500Y-61516153D01*
X63334500Y-61516153D01*
X63334500Y-61673846D01*
X63365261Y-61828489D01*
X63365264Y-61828501D01*
X63425602Y-61974172D01*
X63425609Y-61974185D01*
X63513210Y-62105288D01*
X63513213Y-62105292D01*
X63624707Y-62216786D01*
X63624711Y-62216789D01*
X63755814Y-62304390D01*
X63755827Y-62304397D01*
X63901498Y-62364735D01*
X63901503Y-62364737D01*
X64056153Y-62395499D01*
X64056156Y-62395500D01*
X64056158Y-62395500D01*
X64213844Y-62395500D01*
X64213845Y-62395499D01*
X64368497Y-62364737D01*
X64514179Y-62304394D01*
X64645289Y-62216789D01*
X64756789Y-62105289D01*
X64844394Y-61974179D01*
X64904737Y-61828497D01*
X64935500Y-61673842D01*
X64935500Y-61643153D01*
X99021500Y-61643153D01*
X99021500Y-61800846D01*
X99052261Y-61955489D01*
X99052264Y-61955501D01*
X99112602Y-62101172D01*
X99112609Y-62101185D01*
X99200210Y-62232288D01*
X99200213Y-62232292D01*
X99311707Y-62343786D01*
X99311711Y-62343789D01*
X99442814Y-62431390D01*
X99442827Y-62431397D01*
X99588498Y-62491735D01*
X99588503Y-62491737D01*
X99743153Y-62522499D01*
X99743156Y-62522500D01*
X99743158Y-62522500D01*
X99900844Y-62522500D01*
X99900845Y-62522499D01*
X100055497Y-62491737D01*
X100201179Y-62431394D01*
X100332289Y-62343789D01*
X100443789Y-62232289D01*
X100531394Y-62101179D01*
X100591737Y-61955497D01*
X100622500Y-61800842D01*
X100622500Y-61643158D01*
X100622500Y-61643155D01*
X100622499Y-61643153D01*
X100602457Y-61542397D01*
X100591737Y-61488503D01*
X100546587Y-61379500D01*
X100531397Y-61342827D01*
X100531390Y-61342814D01*
X100443789Y-61211711D01*
X100443786Y-61211707D01*
X100332292Y-61100213D01*
X100332288Y-61100210D01*
X100201185Y-61012609D01*
X100201172Y-61012602D01*
X100145703Y-60989627D01*
X100055501Y-60952264D01*
X100055489Y-60952261D01*
X99900845Y-60921500D01*
X99900842Y-60921500D01*
X99743158Y-60921500D01*
X99743155Y-60921500D01*
X99588510Y-60952261D01*
X99588498Y-60952264D01*
X99442827Y-61012602D01*
X99442814Y-61012609D01*
X99311711Y-61100210D01*
X99311707Y-61100213D01*
X99200213Y-61211707D01*
X99200210Y-61211711D01*
X99112609Y-61342814D01*
X99112602Y-61342827D01*
X99052264Y-61488498D01*
X99052261Y-61488510D01*
X99021500Y-61643153D01*
X64935500Y-61643153D01*
X64935500Y-61516158D01*
X64935500Y-61516155D01*
X64935499Y-61516153D01*
X64908317Y-61379500D01*
X64904737Y-61361503D01*
X64874456Y-61288397D01*
X64844397Y-61215827D01*
X64844390Y-61215814D01*
X64756789Y-61084711D01*
X64756786Y-61084707D01*
X64645292Y-60973213D01*
X64645288Y-60973210D01*
X64514185Y-60885609D01*
X64514172Y-60885602D01*
X64458703Y-60862627D01*
X64368501Y-60825264D01*
X64368489Y-60825261D01*
X64213845Y-60794500D01*
X64213842Y-60794500D01*
X64056158Y-60794500D01*
X64056155Y-60794500D01*
X63901510Y-60825261D01*
X63901498Y-60825264D01*
X63755827Y-60885602D01*
X63755814Y-60885609D01*
X63624711Y-60973210D01*
X63624707Y-60973213D01*
X63513213Y-61084707D01*
X63513210Y-61084711D01*
X63425609Y-61215814D01*
X63425602Y-61215827D01*
X63365264Y-61361498D01*
X63365261Y-61361510D01*
X63334500Y-61516153D01*
X41140500Y-61516153D01*
X41140500Y-60500153D01*
X55968500Y-60500153D01*
X55968500Y-60657846D01*
X55999261Y-60812489D01*
X55999264Y-60812501D01*
X56059602Y-60958172D01*
X56059609Y-60958185D01*
X56147210Y-61089288D01*
X56147213Y-61089292D01*
X56258707Y-61200786D01*
X56258711Y-61200789D01*
X56389814Y-61288390D01*
X56389827Y-61288397D01*
X56535498Y-61348735D01*
X56535503Y-61348737D01*
X56690153Y-61379499D01*
X56690156Y-61379500D01*
X56690158Y-61379500D01*
X56847844Y-61379500D01*
X56847845Y-61379499D01*
X57002497Y-61348737D01*
X57148179Y-61288394D01*
X57279289Y-61200789D01*
X57390789Y-61089289D01*
X57478394Y-60958179D01*
X57480845Y-60952263D01*
X57510299Y-60881153D01*
X57538737Y-60812497D01*
X57550342Y-60754153D01*
X91655500Y-60754153D01*
X91655500Y-60911846D01*
X91686261Y-61066489D01*
X91686264Y-61066501D01*
X91746602Y-61212172D01*
X91746609Y-61212185D01*
X91834210Y-61343288D01*
X91834213Y-61343292D01*
X91945707Y-61454786D01*
X91945711Y-61454789D01*
X92076814Y-61542390D01*
X92076827Y-61542397D01*
X92222498Y-61602735D01*
X92222503Y-61602737D01*
X92377153Y-61633499D01*
X92377156Y-61633500D01*
X92377158Y-61633500D01*
X92534844Y-61633500D01*
X92534845Y-61633499D01*
X92689497Y-61602737D01*
X92835179Y-61542394D01*
X92966289Y-61454789D01*
X93077789Y-61343289D01*
X93165394Y-61212179D01*
X93225737Y-61066497D01*
X93256500Y-60911842D01*
X93256500Y-60881153D01*
X110959500Y-60881153D01*
X110959500Y-61038846D01*
X110990261Y-61193489D01*
X110990264Y-61193501D01*
X111050602Y-61339172D01*
X111050609Y-61339185D01*
X111138210Y-61470288D01*
X111138213Y-61470292D01*
X111249707Y-61581786D01*
X111249711Y-61581789D01*
X111380814Y-61669390D01*
X111380827Y-61669397D01*
X111526498Y-61729735D01*
X111526503Y-61729737D01*
X111681153Y-61760499D01*
X111681156Y-61760500D01*
X111681158Y-61760500D01*
X111838844Y-61760500D01*
X111838845Y-61760499D01*
X111993497Y-61729737D01*
X112128436Y-61673844D01*
X112139172Y-61669397D01*
X112139172Y-61669396D01*
X112139179Y-61669394D01*
X112270289Y-61581789D01*
X112381789Y-61470289D01*
X112469394Y-61339179D01*
X112529737Y-61193497D01*
X112560500Y-61038842D01*
X112560500Y-60881158D01*
X112560500Y-60881155D01*
X112560499Y-60881153D01*
X112546841Y-60812489D01*
X112529737Y-60726503D01*
X112501297Y-60657842D01*
X112469397Y-60580827D01*
X112469390Y-60580814D01*
X112381789Y-60449711D01*
X112381786Y-60449707D01*
X112270292Y-60338213D01*
X112270288Y-60338210D01*
X112139185Y-60250609D01*
X112139172Y-60250602D01*
X111993501Y-60190264D01*
X111993489Y-60190261D01*
X111838845Y-60159500D01*
X111838842Y-60159500D01*
X111681158Y-60159500D01*
X111681155Y-60159500D01*
X111526510Y-60190261D01*
X111526498Y-60190264D01*
X111380827Y-60250602D01*
X111380814Y-60250609D01*
X111249711Y-60338210D01*
X111249707Y-60338213D01*
X111138213Y-60449707D01*
X111138210Y-60449711D01*
X111050609Y-60580814D01*
X111050602Y-60580827D01*
X110990264Y-60726498D01*
X110990261Y-60726510D01*
X110959500Y-60881153D01*
X93256500Y-60881153D01*
X93256500Y-60754158D01*
X93256500Y-60754155D01*
X93256499Y-60754153D01*
X93225738Y-60599510D01*
X93225737Y-60599503D01*
X93217996Y-60580814D01*
X93165397Y-60453827D01*
X93165390Y-60453814D01*
X93077789Y-60322711D01*
X93077786Y-60322707D01*
X92966292Y-60211213D01*
X92966288Y-60211210D01*
X92835185Y-60123609D01*
X92835172Y-60123602D01*
X92689501Y-60063264D01*
X92689489Y-60063261D01*
X92534845Y-60032500D01*
X92534842Y-60032500D01*
X92377158Y-60032500D01*
X92377155Y-60032500D01*
X92222510Y-60063261D01*
X92222498Y-60063264D01*
X92076827Y-60123602D01*
X92076814Y-60123609D01*
X91945711Y-60211210D01*
X91945707Y-60211213D01*
X91834213Y-60322707D01*
X91834210Y-60322711D01*
X91746609Y-60453814D01*
X91746602Y-60453827D01*
X91686264Y-60599498D01*
X91686261Y-60599510D01*
X91655500Y-60754153D01*
X57550342Y-60754153D01*
X57569500Y-60657842D01*
X57569500Y-60500158D01*
X57569500Y-60500155D01*
X57569499Y-60500153D01*
X57560283Y-60453821D01*
X57538737Y-60345503D01*
X57483112Y-60211211D01*
X57478397Y-60199827D01*
X57478390Y-60199814D01*
X57390789Y-60068711D01*
X57390786Y-60068707D01*
X57279292Y-59957213D01*
X57279288Y-59957210D01*
X57148185Y-59869609D01*
X57148172Y-59869602D01*
X57002501Y-59809264D01*
X57002489Y-59809261D01*
X56847845Y-59778500D01*
X56847842Y-59778500D01*
X56690158Y-59778500D01*
X56690155Y-59778500D01*
X56535510Y-59809261D01*
X56535498Y-59809264D01*
X56389827Y-59869602D01*
X56389814Y-59869609D01*
X56258711Y-59957210D01*
X56258707Y-59957213D01*
X56147213Y-60068707D01*
X56147210Y-60068711D01*
X56059609Y-60199814D01*
X56059602Y-60199827D01*
X55999264Y-60345498D01*
X55999261Y-60345510D01*
X55968500Y-60500153D01*
X41140500Y-60500153D01*
X41140500Y-58341153D01*
X61048500Y-58341153D01*
X61048500Y-58498846D01*
X61079261Y-58653489D01*
X61079264Y-58653501D01*
X61139602Y-58799172D01*
X61139609Y-58799185D01*
X61227210Y-58930288D01*
X61227213Y-58930292D01*
X61338707Y-59041786D01*
X61338711Y-59041789D01*
X61469814Y-59129390D01*
X61469827Y-59129397D01*
X61615469Y-59189723D01*
X61615503Y-59189737D01*
X61770093Y-59220487D01*
X61770153Y-59220499D01*
X61770156Y-59220500D01*
X61770158Y-59220500D01*
X61927844Y-59220500D01*
X61927845Y-59220499D01*
X62082497Y-59189737D01*
X62228179Y-59129394D01*
X62359289Y-59041789D01*
X62470789Y-58930289D01*
X62558394Y-58799179D01*
X62618737Y-58653497D01*
X62649500Y-58498842D01*
X62649500Y-58341158D01*
X62649500Y-58341156D01*
X62649500Y-58341155D01*
X62649499Y-58341153D01*
X72859500Y-58341153D01*
X72859500Y-58498846D01*
X72890261Y-58653489D01*
X72890264Y-58653501D01*
X72950602Y-58799172D01*
X72950609Y-58799185D01*
X73038210Y-58930288D01*
X73038213Y-58930292D01*
X73149707Y-59041786D01*
X73149711Y-59041789D01*
X73280814Y-59129390D01*
X73280827Y-59129397D01*
X73426469Y-59189723D01*
X73426503Y-59189737D01*
X73581093Y-59220487D01*
X73581153Y-59220499D01*
X73581156Y-59220500D01*
X73581158Y-59220500D01*
X73738844Y-59220500D01*
X73738845Y-59220499D01*
X73893497Y-59189737D01*
X74039179Y-59129394D01*
X74170289Y-59041789D01*
X74281789Y-58930289D01*
X74369394Y-58799179D01*
X74429737Y-58653497D01*
X74460500Y-58498842D01*
X74460500Y-58341158D01*
X74460500Y-58341156D01*
X74460500Y-58341155D01*
X74460499Y-58341153D01*
X77939500Y-58341153D01*
X77939500Y-58498846D01*
X77970261Y-58653489D01*
X77970264Y-58653501D01*
X78030602Y-58799172D01*
X78030609Y-58799185D01*
X78118210Y-58930288D01*
X78118213Y-58930292D01*
X78229707Y-59041786D01*
X78229711Y-59041789D01*
X78360814Y-59129390D01*
X78360827Y-59129397D01*
X78506469Y-59189723D01*
X78506503Y-59189737D01*
X78661093Y-59220487D01*
X78661153Y-59220499D01*
X78661156Y-59220500D01*
X78661158Y-59220500D01*
X78818844Y-59220500D01*
X78818845Y-59220499D01*
X78973497Y-59189737D01*
X79119179Y-59129394D01*
X79250289Y-59041789D01*
X79361789Y-58930289D01*
X79449394Y-58799179D01*
X79509737Y-58653497D01*
X79540500Y-58498842D01*
X79540500Y-58341158D01*
X79540499Y-58341155D01*
X79540499Y-58341152D01*
X79540497Y-58341141D01*
X96735500Y-58341141D01*
X96735500Y-58498834D01*
X96766261Y-58653477D01*
X96766264Y-58653489D01*
X96826602Y-58799160D01*
X96826609Y-58799173D01*
X96914210Y-58930276D01*
X96914213Y-58930280D01*
X97025707Y-59041774D01*
X97025711Y-59041777D01*
X97156814Y-59129378D01*
X97156827Y-59129385D01*
X97302498Y-59189723D01*
X97302503Y-59189725D01*
X97457153Y-59220487D01*
X97457156Y-59220488D01*
X97457158Y-59220488D01*
X97614844Y-59220488D01*
X97614845Y-59220487D01*
X97769497Y-59189725D01*
X97915179Y-59129382D01*
X98046289Y-59041777D01*
X98157789Y-58930277D01*
X98245394Y-58799167D01*
X98305737Y-58653485D01*
X98336500Y-58498830D01*
X98336500Y-58341146D01*
X98336500Y-58341143D01*
X98336499Y-58341141D01*
X98305737Y-58186491D01*
X98305735Y-58186486D01*
X98245397Y-58040815D01*
X98245390Y-58040802D01*
X98157789Y-57909699D01*
X98157786Y-57909695D01*
X98046292Y-57798201D01*
X98046288Y-57798198D01*
X97915185Y-57710597D01*
X97915172Y-57710590D01*
X97769501Y-57650252D01*
X97769489Y-57650249D01*
X97614845Y-57619488D01*
X97614842Y-57619488D01*
X97457158Y-57619488D01*
X97457155Y-57619488D01*
X97302510Y-57650249D01*
X97302498Y-57650252D01*
X97156827Y-57710590D01*
X97156814Y-57710597D01*
X97025711Y-57798198D01*
X97025707Y-57798201D01*
X96914213Y-57909695D01*
X96914210Y-57909699D01*
X96826609Y-58040802D01*
X96826602Y-58040815D01*
X96766264Y-58186486D01*
X96766261Y-58186498D01*
X96735500Y-58341141D01*
X79540497Y-58341141D01*
X79509738Y-58186510D01*
X79509737Y-58186503D01*
X79509730Y-58186486D01*
X79449397Y-58040827D01*
X79449390Y-58040814D01*
X79361789Y-57909711D01*
X79361786Y-57909707D01*
X79250292Y-57798213D01*
X79250288Y-57798210D01*
X79119185Y-57710609D01*
X79119172Y-57710602D01*
X78973501Y-57650264D01*
X78973489Y-57650261D01*
X78818845Y-57619500D01*
X78818842Y-57619500D01*
X78661158Y-57619500D01*
X78661155Y-57619500D01*
X78506510Y-57650261D01*
X78506498Y-57650264D01*
X78360827Y-57710602D01*
X78360814Y-57710609D01*
X78229711Y-57798210D01*
X78229707Y-57798213D01*
X78118213Y-57909707D01*
X78118210Y-57909711D01*
X78030609Y-58040814D01*
X78030602Y-58040827D01*
X77970264Y-58186498D01*
X77970261Y-58186510D01*
X77939500Y-58341153D01*
X74460499Y-58341153D01*
X74429738Y-58186510D01*
X74429737Y-58186503D01*
X74429730Y-58186486D01*
X74369397Y-58040827D01*
X74369390Y-58040814D01*
X74281789Y-57909711D01*
X74281786Y-57909707D01*
X74170292Y-57798213D01*
X74170288Y-57798210D01*
X74039185Y-57710609D01*
X74039172Y-57710602D01*
X73893501Y-57650264D01*
X73893489Y-57650261D01*
X73738845Y-57619500D01*
X73738842Y-57619500D01*
X73581158Y-57619500D01*
X73581155Y-57619500D01*
X73426510Y-57650261D01*
X73426498Y-57650264D01*
X73280827Y-57710602D01*
X73280814Y-57710609D01*
X73149711Y-57798210D01*
X73149707Y-57798213D01*
X73038213Y-57909707D01*
X73038210Y-57909711D01*
X72950609Y-58040814D01*
X72950602Y-58040827D01*
X72890264Y-58186498D01*
X72890261Y-58186510D01*
X72859500Y-58341153D01*
X62649499Y-58341153D01*
X62618738Y-58186510D01*
X62618737Y-58186503D01*
X62618730Y-58186486D01*
X62558397Y-58040827D01*
X62558390Y-58040814D01*
X62470789Y-57909711D01*
X62470786Y-57909707D01*
X62359292Y-57798213D01*
X62359288Y-57798210D01*
X62228185Y-57710609D01*
X62228172Y-57710602D01*
X62082501Y-57650264D01*
X62082489Y-57650261D01*
X61927845Y-57619500D01*
X61927842Y-57619500D01*
X61770158Y-57619500D01*
X61770155Y-57619500D01*
X61615510Y-57650261D01*
X61615498Y-57650264D01*
X61469827Y-57710602D01*
X61469814Y-57710609D01*
X61338711Y-57798210D01*
X61338707Y-57798213D01*
X61227213Y-57909707D01*
X61227210Y-57909711D01*
X61139609Y-58040814D01*
X61139602Y-58040827D01*
X61079264Y-58186498D01*
X61079261Y-58186510D01*
X61048500Y-58341153D01*
X41140500Y-58341153D01*
X41140500Y-55801153D01*
X110959500Y-55801153D01*
X110959500Y-55958846D01*
X110990261Y-56113489D01*
X110990264Y-56113501D01*
X111050602Y-56259172D01*
X111050609Y-56259185D01*
X111138210Y-56390288D01*
X111138213Y-56390292D01*
X111249707Y-56501786D01*
X111249711Y-56501789D01*
X111380814Y-56589390D01*
X111380827Y-56589397D01*
X111526498Y-56649735D01*
X111526503Y-56649737D01*
X111681153Y-56680499D01*
X111681156Y-56680500D01*
X111681158Y-56680500D01*
X111838844Y-56680500D01*
X111838845Y-56680499D01*
X111993497Y-56649737D01*
X112139179Y-56589394D01*
X112270289Y-56501789D01*
X112381789Y-56390289D01*
X112469394Y-56259179D01*
X112529737Y-56113497D01*
X112560500Y-55958842D01*
X112560500Y-55801158D01*
X112560500Y-55801155D01*
X112560499Y-55801153D01*
X112529738Y-55646510D01*
X112529737Y-55646503D01*
X112529735Y-55646498D01*
X112469397Y-55500827D01*
X112469390Y-55500814D01*
X112381789Y-55369711D01*
X112381786Y-55369707D01*
X112270292Y-55258213D01*
X112270288Y-55258210D01*
X112139185Y-55170609D01*
X112139172Y-55170602D01*
X111993501Y-55110264D01*
X111993489Y-55110261D01*
X111838845Y-55079500D01*
X111838842Y-55079500D01*
X111681158Y-55079500D01*
X111681155Y-55079500D01*
X111526510Y-55110261D01*
X111526498Y-55110264D01*
X111380827Y-55170602D01*
X111380814Y-55170609D01*
X111249711Y-55258210D01*
X111249707Y-55258213D01*
X111138213Y-55369707D01*
X111138210Y-55369711D01*
X111050609Y-55500814D01*
X111050602Y-55500827D01*
X110990264Y-55646498D01*
X110990261Y-55646510D01*
X110959500Y-55801153D01*
X41140500Y-55801153D01*
X41140500Y-53212070D01*
X46634500Y-53212070D01*
X46634500Y-53467929D01*
X46674526Y-53720640D01*
X46753588Y-53963972D01*
X46753589Y-53963975D01*
X46869750Y-54191950D01*
X47020132Y-54398935D01*
X47020136Y-54398940D01*
X47201059Y-54579863D01*
X47201064Y-54579867D01*
X47381607Y-54711038D01*
X47408053Y-54730252D01*
X47557080Y-54806185D01*
X47636024Y-54846410D01*
X47636027Y-54846411D01*
X47757693Y-54885942D01*
X47879361Y-54925474D01*
X48132070Y-54965500D01*
X48132071Y-54965500D01*
X48387929Y-54965500D01*
X48387930Y-54965500D01*
X48640639Y-54925474D01*
X48883975Y-54846410D01*
X49111947Y-54730252D01*
X49318942Y-54579862D01*
X49499862Y-54398942D01*
X49650252Y-54191947D01*
X49766410Y-53963975D01*
X49845474Y-53720639D01*
X49885500Y-53467930D01*
X49885500Y-53212070D01*
X51714500Y-53212070D01*
X51714500Y-53467929D01*
X51754526Y-53720640D01*
X51833588Y-53963972D01*
X51833589Y-53963975D01*
X51949750Y-54191950D01*
X52100132Y-54398935D01*
X52100136Y-54398940D01*
X52281059Y-54579863D01*
X52281064Y-54579867D01*
X52461607Y-54711038D01*
X52488053Y-54730252D01*
X52637080Y-54806185D01*
X52716024Y-54846410D01*
X52716027Y-54846411D01*
X52837693Y-54885942D01*
X52959361Y-54925474D01*
X53212070Y-54965500D01*
X53212071Y-54965500D01*
X53467929Y-54965500D01*
X53467930Y-54965500D01*
X53720639Y-54925474D01*
X53963975Y-54846410D01*
X54191947Y-54730252D01*
X54398942Y-54579862D01*
X54579862Y-54398942D01*
X54730252Y-54191947D01*
X54846410Y-53963975D01*
X54925474Y-53720639D01*
X54965500Y-53467930D01*
X54965500Y-53212070D01*
X64414500Y-53212070D01*
X64414500Y-53467929D01*
X64454526Y-53720640D01*
X64533588Y-53963972D01*
X64533589Y-53963975D01*
X64649750Y-54191950D01*
X64800132Y-54398935D01*
X64800136Y-54398940D01*
X64981059Y-54579863D01*
X64981064Y-54579867D01*
X65161607Y-54711038D01*
X65188053Y-54730252D01*
X65337080Y-54806185D01*
X65416024Y-54846410D01*
X65416027Y-54846411D01*
X65537693Y-54885942D01*
X65659361Y-54925474D01*
X65912070Y-54965500D01*
X65912071Y-54965500D01*
X66167929Y-54965500D01*
X66167930Y-54965500D01*
X66420639Y-54925474D01*
X66663975Y-54846410D01*
X66891947Y-54730252D01*
X67098942Y-54579862D01*
X67279862Y-54398942D01*
X67430252Y-54191947D01*
X67546410Y-53963975D01*
X67625474Y-53720639D01*
X67665500Y-53467930D01*
X67665500Y-53212070D01*
X69494500Y-53212070D01*
X69494500Y-53467929D01*
X69534526Y-53720640D01*
X69613588Y-53963972D01*
X69613589Y-53963975D01*
X69729750Y-54191950D01*
X69880132Y-54398935D01*
X69880136Y-54398940D01*
X70061059Y-54579863D01*
X70061064Y-54579867D01*
X70241607Y-54711038D01*
X70268053Y-54730252D01*
X70417080Y-54806185D01*
X70496024Y-54846410D01*
X70496027Y-54846411D01*
X70617693Y-54885942D01*
X70739361Y-54925474D01*
X70992070Y-54965500D01*
X70992071Y-54965500D01*
X71247929Y-54965500D01*
X71247930Y-54965500D01*
X71500639Y-54925474D01*
X71743975Y-54846410D01*
X71971947Y-54730252D01*
X72178942Y-54579862D01*
X72359862Y-54398942D01*
X72510252Y-54191947D01*
X72626410Y-53963975D01*
X72705474Y-53720639D01*
X72745500Y-53467930D01*
X72745500Y-53212070D01*
X82194500Y-53212070D01*
X82194500Y-53467929D01*
X82234526Y-53720640D01*
X82313588Y-53963972D01*
X82313589Y-53963975D01*
X82429750Y-54191950D01*
X82580132Y-54398935D01*
X82580136Y-54398940D01*
X82761059Y-54579863D01*
X82761064Y-54579867D01*
X82941607Y-54711038D01*
X82968053Y-54730252D01*
X83117080Y-54806185D01*
X83196024Y-54846410D01*
X83196027Y-54846411D01*
X83317693Y-54885942D01*
X83439361Y-54925474D01*
X83692070Y-54965500D01*
X83692071Y-54965500D01*
X83947929Y-54965500D01*
X83947930Y-54965500D01*
X84200639Y-54925474D01*
X84443975Y-54846410D01*
X84671947Y-54730252D01*
X84878942Y-54579862D01*
X85059862Y-54398942D01*
X85210252Y-54191947D01*
X85326410Y-53963975D01*
X85405474Y-53720639D01*
X85445500Y-53467930D01*
X85445500Y-53212070D01*
X87274500Y-53212070D01*
X87274500Y-53467929D01*
X87314526Y-53720640D01*
X87393588Y-53963972D01*
X87393589Y-53963975D01*
X87509750Y-54191950D01*
X87660132Y-54398935D01*
X87660136Y-54398940D01*
X87841059Y-54579863D01*
X87841064Y-54579867D01*
X88021607Y-54711038D01*
X88048053Y-54730252D01*
X88197080Y-54806185D01*
X88276024Y-54846410D01*
X88276027Y-54846411D01*
X88397693Y-54885942D01*
X88519361Y-54925474D01*
X88772070Y-54965500D01*
X88772071Y-54965500D01*
X89027929Y-54965500D01*
X89027930Y-54965500D01*
X89280639Y-54925474D01*
X89523975Y-54846410D01*
X89751947Y-54730252D01*
X89958942Y-54579862D01*
X90139862Y-54398942D01*
X90290252Y-54191947D01*
X90406410Y-53963975D01*
X90485474Y-53720639D01*
X90525500Y-53467930D01*
X90525500Y-53212070D01*
X99974500Y-53212070D01*
X99974500Y-53467929D01*
X100014526Y-53720640D01*
X100093588Y-53963972D01*
X100093589Y-53963975D01*
X100209750Y-54191950D01*
X100360132Y-54398935D01*
X100360136Y-54398940D01*
X100541059Y-54579863D01*
X100541064Y-54579867D01*
X100721607Y-54711038D01*
X100748053Y-54730252D01*
X100897080Y-54806185D01*
X100976024Y-54846410D01*
X100976027Y-54846411D01*
X101097693Y-54885942D01*
X101219361Y-54925474D01*
X101472070Y-54965500D01*
X101472071Y-54965500D01*
X101727929Y-54965500D01*
X101727930Y-54965500D01*
X101980639Y-54925474D01*
X102223975Y-54846410D01*
X102451947Y-54730252D01*
X102658942Y-54579862D01*
X102839862Y-54398942D01*
X102990252Y-54191947D01*
X103106410Y-53963975D01*
X103185474Y-53720639D01*
X103225500Y-53467930D01*
X103225500Y-53212070D01*
X105054500Y-53212070D01*
X105054500Y-53467929D01*
X105094526Y-53720640D01*
X105173588Y-53963972D01*
X105173589Y-53963975D01*
X105289750Y-54191950D01*
X105440132Y-54398935D01*
X105440136Y-54398940D01*
X105621059Y-54579863D01*
X105621064Y-54579867D01*
X105801607Y-54711038D01*
X105828053Y-54730252D01*
X105977080Y-54806185D01*
X106056024Y-54846410D01*
X106056027Y-54846411D01*
X106177693Y-54885942D01*
X106299361Y-54925474D01*
X106552070Y-54965500D01*
X106552071Y-54965500D01*
X106807929Y-54965500D01*
X106807930Y-54965500D01*
X107060639Y-54925474D01*
X107303975Y-54846410D01*
X107531947Y-54730252D01*
X107738942Y-54579862D01*
X107919862Y-54398942D01*
X108070252Y-54191947D01*
X108186410Y-53963975D01*
X108265474Y-53720639D01*
X108305500Y-53467930D01*
X108305500Y-53212070D01*
X108265474Y-52959361D01*
X108186410Y-52716025D01*
X108186410Y-52716024D01*
X108146185Y-52637080D01*
X108070252Y-52488053D01*
X107924860Y-52287937D01*
X107919867Y-52281064D01*
X107919863Y-52281059D01*
X107738940Y-52100136D01*
X107738935Y-52100132D01*
X107531950Y-51949750D01*
X107531949Y-51949749D01*
X107531947Y-51949748D01*
X107458910Y-51912533D01*
X107303975Y-51833589D01*
X107303972Y-51833588D01*
X107060640Y-51754526D01*
X106934284Y-51734513D01*
X106807930Y-51714500D01*
X106552070Y-51714500D01*
X106467833Y-51727842D01*
X106299359Y-51754526D01*
X106056027Y-51833588D01*
X106056024Y-51833589D01*
X105828049Y-51949750D01*
X105621064Y-52100132D01*
X105621059Y-52100136D01*
X105440136Y-52281059D01*
X105440132Y-52281064D01*
X105289750Y-52488049D01*
X105173589Y-52716024D01*
X105173588Y-52716027D01*
X105094526Y-52959359D01*
X105054500Y-53212070D01*
X103225500Y-53212070D01*
X103185474Y-52959361D01*
X103106410Y-52716025D01*
X103106410Y-52716024D01*
X103066185Y-52637080D01*
X102990252Y-52488053D01*
X102844860Y-52287937D01*
X102839867Y-52281064D01*
X102839863Y-52281059D01*
X102658940Y-52100136D01*
X102658935Y-52100132D01*
X102451950Y-51949750D01*
X102451949Y-51949749D01*
X102451947Y-51949748D01*
X102378910Y-51912533D01*
X102223975Y-51833589D01*
X102223972Y-51833588D01*
X101980640Y-51754526D01*
X101854284Y-51734513D01*
X101727930Y-51714500D01*
X101472070Y-51714500D01*
X101387833Y-51727842D01*
X101219359Y-51754526D01*
X100976027Y-51833588D01*
X100976024Y-51833589D01*
X100748049Y-51949750D01*
X100541064Y-52100132D01*
X100541059Y-52100136D01*
X100360136Y-52281059D01*
X100360132Y-52281064D01*
X100209750Y-52488049D01*
X100093589Y-52716024D01*
X100093588Y-52716027D01*
X100014526Y-52959359D01*
X99974500Y-53212070D01*
X90525500Y-53212070D01*
X90485474Y-52959361D01*
X90406410Y-52716025D01*
X90406410Y-52716024D01*
X90366185Y-52637080D01*
X90290252Y-52488053D01*
X90144860Y-52287937D01*
X90139867Y-52281064D01*
X90139863Y-52281059D01*
X89958940Y-52100136D01*
X89958935Y-52100132D01*
X89751950Y-51949750D01*
X89751949Y-51949749D01*
X89751947Y-51949748D01*
X89678910Y-51912533D01*
X89523975Y-51833589D01*
X89523972Y-51833588D01*
X89280640Y-51754526D01*
X89154284Y-51734513D01*
X89027930Y-51714500D01*
X88772070Y-51714500D01*
X88687833Y-51727842D01*
X88519359Y-51754526D01*
X88276027Y-51833588D01*
X88276024Y-51833589D01*
X88048049Y-51949750D01*
X87841064Y-52100132D01*
X87841059Y-52100136D01*
X87660136Y-52281059D01*
X87660132Y-52281064D01*
X87509750Y-52488049D01*
X87393589Y-52716024D01*
X87393588Y-52716027D01*
X87314526Y-52959359D01*
X87274500Y-53212070D01*
X85445500Y-53212070D01*
X85405474Y-52959361D01*
X85326410Y-52716025D01*
X85326410Y-52716024D01*
X85286185Y-52637080D01*
X85210252Y-52488053D01*
X85064860Y-52287937D01*
X85059867Y-52281064D01*
X85059863Y-52281059D01*
X84878940Y-52100136D01*
X84878935Y-52100132D01*
X84671950Y-51949750D01*
X84671949Y-51949749D01*
X84671947Y-51949748D01*
X84598910Y-51912533D01*
X84443975Y-51833589D01*
X84443972Y-51833588D01*
X84200640Y-51754526D01*
X84074284Y-51734513D01*
X83947930Y-51714500D01*
X83692070Y-51714500D01*
X83607833Y-51727842D01*
X83439359Y-51754526D01*
X83196027Y-51833588D01*
X83196024Y-51833589D01*
X82968049Y-51949750D01*
X82761064Y-52100132D01*
X82761059Y-52100136D01*
X82580136Y-52281059D01*
X82580132Y-52281064D01*
X82429750Y-52488049D01*
X82313589Y-52716024D01*
X82313588Y-52716027D01*
X82234526Y-52959359D01*
X82194500Y-53212070D01*
X72745500Y-53212070D01*
X72705474Y-52959361D01*
X72626410Y-52716025D01*
X72626410Y-52716024D01*
X72586185Y-52637080D01*
X72510252Y-52488053D01*
X72364860Y-52287937D01*
X72359867Y-52281064D01*
X72359863Y-52281059D01*
X72178940Y-52100136D01*
X72178935Y-52100132D01*
X71971950Y-51949750D01*
X71971949Y-51949749D01*
X71971947Y-51949748D01*
X71898910Y-51912533D01*
X71743975Y-51833589D01*
X71743972Y-51833588D01*
X71500640Y-51754526D01*
X71374284Y-51734513D01*
X71247930Y-51714500D01*
X70992070Y-51714500D01*
X70907833Y-51727842D01*
X70739359Y-51754526D01*
X70496027Y-51833588D01*
X70496024Y-51833589D01*
X70268049Y-51949750D01*
X70061064Y-52100132D01*
X70061059Y-52100136D01*
X69880136Y-52281059D01*
X69880132Y-52281064D01*
X69729750Y-52488049D01*
X69613589Y-52716024D01*
X69613588Y-52716027D01*
X69534526Y-52959359D01*
X69494500Y-53212070D01*
X67665500Y-53212070D01*
X67625474Y-52959361D01*
X67546410Y-52716025D01*
X67546410Y-52716024D01*
X67506185Y-52637080D01*
X67430252Y-52488053D01*
X67284860Y-52287937D01*
X67279867Y-52281064D01*
X67279863Y-52281059D01*
X67098940Y-52100136D01*
X67098935Y-52100132D01*
X66891950Y-51949750D01*
X66891949Y-51949749D01*
X66891947Y-51949748D01*
X66818910Y-51912533D01*
X66663975Y-51833589D01*
X66663972Y-51833588D01*
X66420640Y-51754526D01*
X66294284Y-51734513D01*
X66167930Y-51714500D01*
X65912070Y-51714500D01*
X65827833Y-51727842D01*
X65659359Y-51754526D01*
X65416027Y-51833588D01*
X65416024Y-51833589D01*
X65188049Y-51949750D01*
X64981064Y-52100132D01*
X64981059Y-52100136D01*
X64800136Y-52281059D01*
X64800132Y-52281064D01*
X64649750Y-52488049D01*
X64533589Y-52716024D01*
X64533588Y-52716027D01*
X64454526Y-52959359D01*
X64414500Y-53212070D01*
X54965500Y-53212070D01*
X54925474Y-52959361D01*
X54846410Y-52716025D01*
X54846410Y-52716024D01*
X54806185Y-52637080D01*
X54730252Y-52488053D01*
X54584860Y-52287937D01*
X54579867Y-52281064D01*
X54579863Y-52281059D01*
X54398940Y-52100136D01*
X54398935Y-52100132D01*
X54191950Y-51949750D01*
X54191949Y-51949749D01*
X54191947Y-51949748D01*
X54118910Y-51912533D01*
X53963975Y-51833589D01*
X53963972Y-51833588D01*
X53720640Y-51754526D01*
X53594284Y-51734513D01*
X53467930Y-51714500D01*
X53212070Y-51714500D01*
X53127833Y-51727842D01*
X52959359Y-51754526D01*
X52716027Y-51833588D01*
X52716024Y-51833589D01*
X52488049Y-51949750D01*
X52281064Y-52100132D01*
X52281059Y-52100136D01*
X52100136Y-52281059D01*
X52100132Y-52281064D01*
X51949750Y-52488049D01*
X51833589Y-52716024D01*
X51833588Y-52716027D01*
X51754526Y-52959359D01*
X51714500Y-53212070D01*
X49885500Y-53212070D01*
X49845474Y-52959361D01*
X49766410Y-52716025D01*
X49766410Y-52716024D01*
X49726185Y-52637080D01*
X49650252Y-52488053D01*
X49504860Y-52287937D01*
X49499867Y-52281064D01*
X49499863Y-52281059D01*
X49318940Y-52100136D01*
X49318935Y-52100132D01*
X49111950Y-51949750D01*
X49111949Y-51949749D01*
X49111947Y-51949748D01*
X49038910Y-51912533D01*
X48883975Y-51833589D01*
X48883972Y-51833588D01*
X48640640Y-51754526D01*
X48514284Y-51734513D01*
X48387930Y-51714500D01*
X48132070Y-51714500D01*
X48047833Y-51727842D01*
X47879359Y-51754526D01*
X47636027Y-51833588D01*
X47636024Y-51833589D01*
X47408049Y-51949750D01*
X47201064Y-52100132D01*
X47201059Y-52100136D01*
X47020136Y-52281059D01*
X47020132Y-52281064D01*
X46869750Y-52488049D01*
X46753589Y-52716024D01*
X46753588Y-52716027D01*
X46674526Y-52959359D01*
X46634500Y-53212070D01*
X41140500Y-53212070D01*
X41140500Y-50679941D01*
X49274500Y-50679941D01*
X49274500Y-50920059D01*
X49312063Y-51157222D01*
X49386265Y-51385593D01*
X49480093Y-51569738D01*
X49495276Y-51599536D01*
X49636414Y-51793796D01*
X49806204Y-51963586D01*
X50000464Y-52104724D01*
X50101543Y-52156226D01*
X50214406Y-52213734D01*
X50214408Y-52213734D01*
X50214411Y-52213736D01*
X50442778Y-52287937D01*
X50679941Y-52325500D01*
X50679942Y-52325500D01*
X50920058Y-52325500D01*
X50920059Y-52325500D01*
X51157222Y-52287937D01*
X51385589Y-52213736D01*
X51599536Y-52104724D01*
X51793796Y-51963586D01*
X51963586Y-51793796D01*
X52104724Y-51599536D01*
X52213736Y-51385589D01*
X52287937Y-51157222D01*
X52325500Y-50920059D01*
X52325500Y-50679941D01*
X67054500Y-50679941D01*
X67054500Y-50920059D01*
X67092063Y-51157222D01*
X67166265Y-51385593D01*
X67260093Y-51569738D01*
X67275276Y-51599536D01*
X67416414Y-51793796D01*
X67586204Y-51963586D01*
X67780464Y-52104724D01*
X67881543Y-52156226D01*
X67994406Y-52213734D01*
X67994408Y-52213734D01*
X67994411Y-52213736D01*
X68222778Y-52287937D01*
X68459941Y-52325500D01*
X68459942Y-52325500D01*
X68700058Y-52325500D01*
X68700059Y-52325500D01*
X68937222Y-52287937D01*
X69165589Y-52213736D01*
X69379536Y-52104724D01*
X69573796Y-51963586D01*
X69743586Y-51793796D01*
X69884724Y-51599536D01*
X69993736Y-51385589D01*
X70067937Y-51157222D01*
X70105500Y-50920059D01*
X70105500Y-50679941D01*
X84834500Y-50679941D01*
X84834500Y-50920059D01*
X84872063Y-51157222D01*
X84946265Y-51385593D01*
X85040093Y-51569738D01*
X85055276Y-51599536D01*
X85196414Y-51793796D01*
X85366204Y-51963586D01*
X85560464Y-52104724D01*
X85661543Y-52156226D01*
X85774406Y-52213734D01*
X85774408Y-52213734D01*
X85774411Y-52213736D01*
X86002778Y-52287937D01*
X86239941Y-52325500D01*
X86239942Y-52325500D01*
X86480058Y-52325500D01*
X86480059Y-52325500D01*
X86717222Y-52287937D01*
X86945589Y-52213736D01*
X87159536Y-52104724D01*
X87353796Y-51963586D01*
X87523586Y-51793796D01*
X87664724Y-51599536D01*
X87773736Y-51385589D01*
X87847937Y-51157222D01*
X87885500Y-50920059D01*
X87885500Y-50679941D01*
X102614500Y-50679941D01*
X102614500Y-50920059D01*
X102652063Y-51157222D01*
X102726265Y-51385593D01*
X102820093Y-51569738D01*
X102835276Y-51599536D01*
X102976414Y-51793796D01*
X103146204Y-51963586D01*
X103340464Y-52104724D01*
X103441543Y-52156226D01*
X103554406Y-52213734D01*
X103554408Y-52213734D01*
X103554411Y-52213736D01*
X103782778Y-52287937D01*
X104019941Y-52325500D01*
X104019942Y-52325500D01*
X104260058Y-52325500D01*
X104260059Y-52325500D01*
X104497222Y-52287937D01*
X104725589Y-52213736D01*
X104939536Y-52104724D01*
X105133796Y-51963586D01*
X105303586Y-51793796D01*
X105444724Y-51599536D01*
X105553736Y-51385589D01*
X105627937Y-51157222D01*
X105665500Y-50920059D01*
X105665500Y-50721153D01*
X110959500Y-50721153D01*
X110959500Y-50878846D01*
X110990261Y-51033489D01*
X110990264Y-51033501D01*
X111050602Y-51179172D01*
X111050609Y-51179185D01*
X111138210Y-51310288D01*
X111138213Y-51310292D01*
X111249707Y-51421786D01*
X111249711Y-51421789D01*
X111380814Y-51509390D01*
X111380827Y-51509397D01*
X111526498Y-51569735D01*
X111526503Y-51569737D01*
X111676312Y-51599536D01*
X111681153Y-51600499D01*
X111681156Y-51600500D01*
X111681158Y-51600500D01*
X111838844Y-51600500D01*
X111838845Y-51600499D01*
X111993497Y-51569737D01*
X112139179Y-51509394D01*
X112270289Y-51421789D01*
X112381789Y-51310289D01*
X112469394Y-51179179D01*
X112529737Y-51033497D01*
X112560500Y-50878842D01*
X112560500Y-50721158D01*
X112560500Y-50721155D01*
X112560499Y-50721153D01*
X112529738Y-50566510D01*
X112529737Y-50566503D01*
X112478489Y-50442778D01*
X112469397Y-50420827D01*
X112469390Y-50420814D01*
X112381789Y-50289711D01*
X112381786Y-50289707D01*
X112270292Y-50178213D01*
X112270288Y-50178210D01*
X112139185Y-50090609D01*
X112139172Y-50090602D01*
X111993501Y-50030264D01*
X111993489Y-50030261D01*
X111838845Y-49999500D01*
X111838842Y-49999500D01*
X111681158Y-49999500D01*
X111681155Y-49999500D01*
X111526510Y-50030261D01*
X111526498Y-50030264D01*
X111380827Y-50090602D01*
X111380814Y-50090609D01*
X111249711Y-50178210D01*
X111249707Y-50178213D01*
X111138213Y-50289707D01*
X111138210Y-50289711D01*
X111050609Y-50420814D01*
X111050602Y-50420827D01*
X110990264Y-50566498D01*
X110990261Y-50566510D01*
X110959500Y-50721153D01*
X105665500Y-50721153D01*
X105665500Y-50679941D01*
X105627937Y-50442778D01*
X105553736Y-50214411D01*
X105553734Y-50214408D01*
X105553734Y-50214406D01*
X105444723Y-50000463D01*
X105303586Y-49806204D01*
X105133796Y-49636414D01*
X104939536Y-49495276D01*
X104725593Y-49386265D01*
X104497222Y-49312063D01*
X104260059Y-49274500D01*
X104019941Y-49274500D01*
X103901359Y-49293281D01*
X103782777Y-49312063D01*
X103554406Y-49386265D01*
X103340463Y-49495276D01*
X103146201Y-49636416D01*
X102976416Y-49806201D01*
X102835276Y-50000463D01*
X102726265Y-50214406D01*
X102659197Y-50420821D01*
X102652063Y-50442778D01*
X102614500Y-50679941D01*
X87885500Y-50679941D01*
X87847937Y-50442778D01*
X87773736Y-50214411D01*
X87773734Y-50214408D01*
X87773734Y-50214406D01*
X87664723Y-50000463D01*
X87523586Y-49806204D01*
X87353796Y-49636414D01*
X87159536Y-49495276D01*
X86945593Y-49386265D01*
X86717222Y-49312063D01*
X86480059Y-49274500D01*
X86239941Y-49274500D01*
X86121359Y-49293281D01*
X86002777Y-49312063D01*
X85774406Y-49386265D01*
X85560463Y-49495276D01*
X85366201Y-49636416D01*
X85196416Y-49806201D01*
X85055276Y-50000463D01*
X84946265Y-50214406D01*
X84879197Y-50420821D01*
X84872063Y-50442778D01*
X84834500Y-50679941D01*
X70105500Y-50679941D01*
X70067937Y-50442778D01*
X69993736Y-50214411D01*
X69993734Y-50214408D01*
X69993734Y-50214406D01*
X69884723Y-50000463D01*
X69743586Y-49806204D01*
X69573796Y-49636414D01*
X69379536Y-49495276D01*
X69165593Y-49386265D01*
X68937222Y-49312063D01*
X68700059Y-49274500D01*
X68459941Y-49274500D01*
X68341359Y-49293281D01*
X68222777Y-49312063D01*
X67994406Y-49386265D01*
X67780463Y-49495276D01*
X67586201Y-49636416D01*
X67416416Y-49806201D01*
X67275276Y-50000463D01*
X67166265Y-50214406D01*
X67099197Y-50420821D01*
X67092063Y-50442778D01*
X67054500Y-50679941D01*
X52325500Y-50679941D01*
X52287937Y-50442778D01*
X52213736Y-50214411D01*
X52213734Y-50214408D01*
X52213734Y-50214406D01*
X52104723Y-50000463D01*
X51963586Y-49806204D01*
X51793796Y-49636414D01*
X51599536Y-49495276D01*
X51385593Y-49386265D01*
X51157222Y-49312063D01*
X50920059Y-49274500D01*
X50679941Y-49274500D01*
X50561359Y-49293281D01*
X50442777Y-49312063D01*
X50214406Y-49386265D01*
X50000463Y-49495276D01*
X49806201Y-49636416D01*
X49636416Y-49806201D01*
X49495276Y-50000463D01*
X49386265Y-50214406D01*
X49319197Y-50420821D01*
X49312063Y-50442778D01*
X49274500Y-50679941D01*
X41140500Y-50679941D01*
X41140500Y-48132070D01*
X46634500Y-48132070D01*
X46634500Y-48387929D01*
X46674526Y-48640640D01*
X46753588Y-48883972D01*
X46753589Y-48883975D01*
X46869750Y-49111950D01*
X47020132Y-49318935D01*
X47020136Y-49318940D01*
X47201059Y-49499863D01*
X47201064Y-49499867D01*
X47381607Y-49631038D01*
X47408053Y-49650252D01*
X47557080Y-49726185D01*
X47636024Y-49766410D01*
X47636027Y-49766411D01*
X47757693Y-49805942D01*
X47879361Y-49845474D01*
X48132070Y-49885500D01*
X48132071Y-49885500D01*
X48387929Y-49885500D01*
X48387930Y-49885500D01*
X48640639Y-49845474D01*
X48883975Y-49766410D01*
X49111947Y-49650252D01*
X49318942Y-49499862D01*
X49499862Y-49318942D01*
X49650252Y-49111947D01*
X49766410Y-48883975D01*
X49845474Y-48640639D01*
X49885500Y-48387930D01*
X49885500Y-48132070D01*
X51714500Y-48132070D01*
X51714500Y-48387929D01*
X51754526Y-48640640D01*
X51833588Y-48883972D01*
X51833589Y-48883975D01*
X51949750Y-49111950D01*
X52100132Y-49318935D01*
X52100136Y-49318940D01*
X52281059Y-49499863D01*
X52281064Y-49499867D01*
X52461607Y-49631038D01*
X52488053Y-49650252D01*
X52637080Y-49726185D01*
X52716024Y-49766410D01*
X52716027Y-49766411D01*
X52837693Y-49805942D01*
X52959361Y-49845474D01*
X53212070Y-49885500D01*
X53212071Y-49885500D01*
X53467929Y-49885500D01*
X53467930Y-49885500D01*
X53720639Y-49845474D01*
X53963975Y-49766410D01*
X54191947Y-49650252D01*
X54398942Y-49499862D01*
X54579862Y-49318942D01*
X54730252Y-49111947D01*
X54846410Y-48883975D01*
X54925474Y-48640639D01*
X54965500Y-48387930D01*
X54965500Y-48132070D01*
X64414500Y-48132070D01*
X64414500Y-48387929D01*
X64454526Y-48640640D01*
X64533588Y-48883972D01*
X64533589Y-48883975D01*
X64649750Y-49111950D01*
X64800132Y-49318935D01*
X64800136Y-49318940D01*
X64981059Y-49499863D01*
X64981064Y-49499867D01*
X65161607Y-49631038D01*
X65188053Y-49650252D01*
X65337080Y-49726185D01*
X65416024Y-49766410D01*
X65416027Y-49766411D01*
X65537693Y-49805942D01*
X65659361Y-49845474D01*
X65912070Y-49885500D01*
X65912071Y-49885500D01*
X66167929Y-49885500D01*
X66167930Y-49885500D01*
X66420639Y-49845474D01*
X66663975Y-49766410D01*
X66891947Y-49650252D01*
X67098942Y-49499862D01*
X67279862Y-49318942D01*
X67430252Y-49111947D01*
X67546410Y-48883975D01*
X67625474Y-48640639D01*
X67665500Y-48387930D01*
X67665500Y-48132070D01*
X69494500Y-48132070D01*
X69494500Y-48387929D01*
X69534526Y-48640640D01*
X69613588Y-48883972D01*
X69613589Y-48883975D01*
X69729750Y-49111950D01*
X69880132Y-49318935D01*
X69880136Y-49318940D01*
X70061059Y-49499863D01*
X70061064Y-49499867D01*
X70241607Y-49631038D01*
X70268053Y-49650252D01*
X70417080Y-49726185D01*
X70496024Y-49766410D01*
X70496027Y-49766411D01*
X70617693Y-49805942D01*
X70739361Y-49845474D01*
X70992070Y-49885500D01*
X70992071Y-49885500D01*
X71247929Y-49885500D01*
X71247930Y-49885500D01*
X71500639Y-49845474D01*
X71743975Y-49766410D01*
X71971947Y-49650252D01*
X72178942Y-49499862D01*
X72359862Y-49318942D01*
X72510252Y-49111947D01*
X72626410Y-48883975D01*
X72705474Y-48640639D01*
X72745500Y-48387930D01*
X72745500Y-48132070D01*
X82194500Y-48132070D01*
X82194500Y-48387929D01*
X82234526Y-48640640D01*
X82313588Y-48883972D01*
X82313589Y-48883975D01*
X82429750Y-49111950D01*
X82580132Y-49318935D01*
X82580136Y-49318940D01*
X82761059Y-49499863D01*
X82761064Y-49499867D01*
X82941607Y-49631038D01*
X82968053Y-49650252D01*
X83117080Y-49726185D01*
X83196024Y-49766410D01*
X83196027Y-49766411D01*
X83317693Y-49805942D01*
X83439361Y-49845474D01*
X83692070Y-49885500D01*
X83692071Y-49885500D01*
X83947929Y-49885500D01*
X83947930Y-49885500D01*
X84200639Y-49845474D01*
X84443975Y-49766410D01*
X84671947Y-49650252D01*
X84878942Y-49499862D01*
X85059862Y-49318942D01*
X85210252Y-49111947D01*
X85326410Y-48883975D01*
X85405474Y-48640639D01*
X85445500Y-48387930D01*
X85445500Y-48132070D01*
X87274500Y-48132070D01*
X87274500Y-48387929D01*
X87314526Y-48640640D01*
X87393588Y-48883972D01*
X87393589Y-48883975D01*
X87509750Y-49111950D01*
X87660132Y-49318935D01*
X87660136Y-49318940D01*
X87841059Y-49499863D01*
X87841064Y-49499867D01*
X88021607Y-49631038D01*
X88048053Y-49650252D01*
X88197080Y-49726185D01*
X88276024Y-49766410D01*
X88276027Y-49766411D01*
X88397693Y-49805942D01*
X88519361Y-49845474D01*
X88772070Y-49885500D01*
X88772071Y-49885500D01*
X89027929Y-49885500D01*
X89027930Y-49885500D01*
X89280639Y-49845474D01*
X89523975Y-49766410D01*
X89751947Y-49650252D01*
X89958942Y-49499862D01*
X90139862Y-49318942D01*
X90290252Y-49111947D01*
X90406410Y-48883975D01*
X90485474Y-48640639D01*
X90525500Y-48387930D01*
X90525500Y-48132070D01*
X99974500Y-48132070D01*
X99974500Y-48387929D01*
X100014526Y-48640640D01*
X100093588Y-48883972D01*
X100093589Y-48883975D01*
X100209750Y-49111950D01*
X100360132Y-49318935D01*
X100360136Y-49318940D01*
X100541059Y-49499863D01*
X100541064Y-49499867D01*
X100721607Y-49631038D01*
X100748053Y-49650252D01*
X100897080Y-49726185D01*
X100976024Y-49766410D01*
X100976027Y-49766411D01*
X101097693Y-49805942D01*
X101219361Y-49845474D01*
X101472070Y-49885500D01*
X101472071Y-49885500D01*
X101727929Y-49885500D01*
X101727930Y-49885500D01*
X101980639Y-49845474D01*
X102223975Y-49766410D01*
X102451947Y-49650252D01*
X102658942Y-49499862D01*
X102839862Y-49318942D01*
X102990252Y-49111947D01*
X103106410Y-48883975D01*
X103185474Y-48640639D01*
X103225500Y-48387930D01*
X103225500Y-48132070D01*
X105054500Y-48132070D01*
X105054500Y-48387929D01*
X105094526Y-48640640D01*
X105173588Y-48883972D01*
X105173589Y-48883975D01*
X105289750Y-49111950D01*
X105440132Y-49318935D01*
X105440136Y-49318940D01*
X105621059Y-49499863D01*
X105621064Y-49499867D01*
X105801607Y-49631038D01*
X105828053Y-49650252D01*
X105977080Y-49726185D01*
X106056024Y-49766410D01*
X106056027Y-49766411D01*
X106177693Y-49805942D01*
X106299361Y-49845474D01*
X106552070Y-49885500D01*
X106552071Y-49885500D01*
X106807929Y-49885500D01*
X106807930Y-49885500D01*
X107060639Y-49845474D01*
X107303975Y-49766410D01*
X107531947Y-49650252D01*
X107738942Y-49499862D01*
X107919862Y-49318942D01*
X108070252Y-49111947D01*
X108186410Y-48883975D01*
X108265474Y-48640639D01*
X108305500Y-48387930D01*
X108305500Y-48132070D01*
X108265474Y-47879361D01*
X108186410Y-47636025D01*
X108186410Y-47636024D01*
X108146185Y-47557080D01*
X108070252Y-47408053D01*
X108051038Y-47381607D01*
X107919867Y-47201064D01*
X107919863Y-47201059D01*
X107738940Y-47020136D01*
X107738935Y-47020132D01*
X107531950Y-46869750D01*
X107531949Y-46869749D01*
X107531947Y-46869748D01*
X107458910Y-46832533D01*
X107303975Y-46753589D01*
X107303972Y-46753588D01*
X107060640Y-46674526D01*
X106934284Y-46654513D01*
X106807930Y-46634500D01*
X106552070Y-46634500D01*
X106467833Y-46647842D01*
X106299359Y-46674526D01*
X106056027Y-46753588D01*
X106056024Y-46753589D01*
X105828049Y-46869750D01*
X105621064Y-47020132D01*
X105621059Y-47020136D01*
X105440136Y-47201059D01*
X105440132Y-47201064D01*
X105289750Y-47408049D01*
X105173589Y-47636024D01*
X105173588Y-47636027D01*
X105094526Y-47879359D01*
X105054500Y-48132070D01*
X103225500Y-48132070D01*
X103185474Y-47879361D01*
X103106410Y-47636025D01*
X103106410Y-47636024D01*
X103066185Y-47557080D01*
X102990252Y-47408053D01*
X102971038Y-47381607D01*
X102839867Y-47201064D01*
X102839863Y-47201059D01*
X102658940Y-47020136D01*
X102658935Y-47020132D01*
X102451950Y-46869750D01*
X102451949Y-46869749D01*
X102451947Y-46869748D01*
X102378910Y-46832533D01*
X102223975Y-46753589D01*
X102223972Y-46753588D01*
X101980640Y-46674526D01*
X101854284Y-46654513D01*
X101727930Y-46634500D01*
X101472070Y-46634500D01*
X101387833Y-46647842D01*
X101219359Y-46674526D01*
X100976027Y-46753588D01*
X100976024Y-46753589D01*
X100748049Y-46869750D01*
X100541064Y-47020132D01*
X100541059Y-47020136D01*
X100360136Y-47201059D01*
X100360132Y-47201064D01*
X100209750Y-47408049D01*
X100093589Y-47636024D01*
X100093588Y-47636027D01*
X100014526Y-47879359D01*
X99974500Y-48132070D01*
X90525500Y-48132070D01*
X90485474Y-47879361D01*
X90406410Y-47636025D01*
X90406410Y-47636024D01*
X90366185Y-47557080D01*
X90290252Y-47408053D01*
X90271038Y-47381607D01*
X90139867Y-47201064D01*
X90139863Y-47201059D01*
X89958940Y-47020136D01*
X89958935Y-47020132D01*
X89751950Y-46869750D01*
X89751949Y-46869749D01*
X89751947Y-46869748D01*
X89678910Y-46832533D01*
X89523975Y-46753589D01*
X89523972Y-46753588D01*
X89280640Y-46674526D01*
X89154284Y-46654513D01*
X89027930Y-46634500D01*
X88772070Y-46634500D01*
X88687833Y-46647842D01*
X88519359Y-46674526D01*
X88276027Y-46753588D01*
X88276024Y-46753589D01*
X88048049Y-46869750D01*
X87841064Y-47020132D01*
X87841059Y-47020136D01*
X87660136Y-47201059D01*
X87660132Y-47201064D01*
X87509750Y-47408049D01*
X87393589Y-47636024D01*
X87393588Y-47636027D01*
X87314526Y-47879359D01*
X87274500Y-48132070D01*
X85445500Y-48132070D01*
X85405474Y-47879361D01*
X85326410Y-47636025D01*
X85326410Y-47636024D01*
X85286185Y-47557080D01*
X85210252Y-47408053D01*
X85191038Y-47381607D01*
X85059867Y-47201064D01*
X85059863Y-47201059D01*
X84878940Y-47020136D01*
X84878935Y-47020132D01*
X84671950Y-46869750D01*
X84671949Y-46869749D01*
X84671947Y-46869748D01*
X84598910Y-46832533D01*
X84443975Y-46753589D01*
X84443972Y-46753588D01*
X84200640Y-46674526D01*
X84074284Y-46654513D01*
X83947930Y-46634500D01*
X83692070Y-46634500D01*
X83607833Y-46647842D01*
X83439359Y-46674526D01*
X83196027Y-46753588D01*
X83196024Y-46753589D01*
X82968049Y-46869750D01*
X82761064Y-47020132D01*
X82761059Y-47020136D01*
X82580136Y-47201059D01*
X82580132Y-47201064D01*
X82429750Y-47408049D01*
X82313589Y-47636024D01*
X82313588Y-47636027D01*
X82234526Y-47879359D01*
X82194500Y-48132070D01*
X72745500Y-48132070D01*
X72705474Y-47879361D01*
X72626410Y-47636025D01*
X72626410Y-47636024D01*
X72586185Y-47557080D01*
X72510252Y-47408053D01*
X72491038Y-47381607D01*
X72359867Y-47201064D01*
X72359863Y-47201059D01*
X72178940Y-47020136D01*
X72178935Y-47020132D01*
X71971950Y-46869750D01*
X71971949Y-46869749D01*
X71971947Y-46869748D01*
X71898910Y-46832533D01*
X71743975Y-46753589D01*
X71743972Y-46753588D01*
X71500640Y-46674526D01*
X71374284Y-46654513D01*
X71247930Y-46634500D01*
X70992070Y-46634500D01*
X70907833Y-46647842D01*
X70739359Y-46674526D01*
X70496027Y-46753588D01*
X70496024Y-46753589D01*
X70268049Y-46869750D01*
X70061064Y-47020132D01*
X70061059Y-47020136D01*
X69880136Y-47201059D01*
X69880132Y-47201064D01*
X69729750Y-47408049D01*
X69613589Y-47636024D01*
X69613588Y-47636027D01*
X69534526Y-47879359D01*
X69494500Y-48132070D01*
X67665500Y-48132070D01*
X67625474Y-47879361D01*
X67546410Y-47636025D01*
X67546410Y-47636024D01*
X67506185Y-47557080D01*
X67430252Y-47408053D01*
X67411038Y-47381607D01*
X67279867Y-47201064D01*
X67279863Y-47201059D01*
X67098940Y-47020136D01*
X67098935Y-47020132D01*
X66891950Y-46869750D01*
X66891949Y-46869749D01*
X66891947Y-46869748D01*
X66818910Y-46832533D01*
X66663975Y-46753589D01*
X66663972Y-46753588D01*
X66420640Y-46674526D01*
X66294284Y-46654513D01*
X66167930Y-46634500D01*
X65912070Y-46634500D01*
X65827833Y-46647842D01*
X65659359Y-46674526D01*
X65416027Y-46753588D01*
X65416024Y-46753589D01*
X65188049Y-46869750D01*
X64981064Y-47020132D01*
X64981059Y-47020136D01*
X64800136Y-47201059D01*
X64800132Y-47201064D01*
X64649750Y-47408049D01*
X64533589Y-47636024D01*
X64533588Y-47636027D01*
X64454526Y-47879359D01*
X64414500Y-48132070D01*
X54965500Y-48132070D01*
X54925474Y-47879361D01*
X54846410Y-47636025D01*
X54846410Y-47636024D01*
X54806185Y-47557080D01*
X54730252Y-47408053D01*
X54711038Y-47381607D01*
X54579867Y-47201064D01*
X54579863Y-47201059D01*
X54398940Y-47020136D01*
X54398935Y-47020132D01*
X54191950Y-46869750D01*
X54191949Y-46869749D01*
X54191947Y-46869748D01*
X54118910Y-46832533D01*
X53963975Y-46753589D01*
X53963972Y-46753588D01*
X53720640Y-46674526D01*
X53594284Y-46654513D01*
X53467930Y-46634500D01*
X53212070Y-46634500D01*
X53127833Y-46647842D01*
X52959359Y-46674526D01*
X52716027Y-46753588D01*
X52716024Y-46753589D01*
X52488049Y-46869750D01*
X52281064Y-47020132D01*
X52281059Y-47020136D01*
X52100136Y-47201059D01*
X52100132Y-47201064D01*
X51949750Y-47408049D01*
X51833589Y-47636024D01*
X51833588Y-47636027D01*
X51754526Y-47879359D01*
X51714500Y-48132070D01*
X49885500Y-48132070D01*
X49845474Y-47879361D01*
X49766410Y-47636025D01*
X49766410Y-47636024D01*
X49726185Y-47557080D01*
X49650252Y-47408053D01*
X49631038Y-47381607D01*
X49499867Y-47201064D01*
X49499863Y-47201059D01*
X49318940Y-47020136D01*
X49318935Y-47020132D01*
X49111950Y-46869750D01*
X49111949Y-46869749D01*
X49111947Y-46869748D01*
X49038910Y-46832533D01*
X48883975Y-46753589D01*
X48883972Y-46753588D01*
X48640640Y-46674526D01*
X48514284Y-46654513D01*
X48387930Y-46634500D01*
X48132070Y-46634500D01*
X48047833Y-46647842D01*
X47879359Y-46674526D01*
X47636027Y-46753588D01*
X47636024Y-46753589D01*
X47408049Y-46869750D01*
X47201064Y-47020132D01*
X47201059Y-47020136D01*
X47020136Y-47201059D01*
X47020132Y-47201064D01*
X46869750Y-47408049D01*
X46753589Y-47636024D01*
X46753588Y-47636027D01*
X46674526Y-47879359D01*
X46634500Y-48132070D01*
X41140500Y-48132070D01*
X41140500Y-43508051D01*
X41160185Y-43441012D01*
X41212989Y-43395257D01*
X41282147Y-43385313D01*
X41345703Y-43414338D01*
X41360350Y-43429383D01*
X41374983Y-43447213D01*
X41507418Y-43608585D01*
X41735414Y-43836581D01*
X41735419Y-43836585D01*
X41735420Y-43836586D01*
X41984676Y-44041146D01*
X42252783Y-44220289D01*
X42252792Y-44220294D01*
X42252794Y-44220295D01*
X42537149Y-44372286D01*
X42537151Y-44372286D01*
X42537157Y-44372290D01*
X42835061Y-44495686D01*
X43143626Y-44589288D01*
X43459879Y-44652195D01*
X43780775Y-44683800D01*
X43780778Y-44683800D01*
X44103222Y-44683800D01*
X44103225Y-44683800D01*
X44424121Y-44652195D01*
X44740374Y-44589288D01*
X45048939Y-44495686D01*
X45346843Y-44372290D01*
X45631217Y-44220289D01*
X45899324Y-44041146D01*
X45961459Y-43990153D01*
X63334500Y-43990153D01*
X63334500Y-44147846D01*
X63365261Y-44302489D01*
X63365264Y-44302501D01*
X63425602Y-44448172D01*
X63425609Y-44448185D01*
X63513210Y-44579288D01*
X63513213Y-44579292D01*
X63624707Y-44690786D01*
X63624711Y-44690789D01*
X63755814Y-44778390D01*
X63755827Y-44778397D01*
X63901498Y-44838735D01*
X63901503Y-44838737D01*
X64056153Y-44869499D01*
X64056156Y-44869500D01*
X64056158Y-44869500D01*
X64213844Y-44869500D01*
X64213845Y-44869499D01*
X64368497Y-44838737D01*
X64514179Y-44778394D01*
X64645289Y-44690789D01*
X64756789Y-44579289D01*
X64844394Y-44448179D01*
X64904737Y-44302497D01*
X64935500Y-44147842D01*
X64935500Y-43990158D01*
X64935500Y-43990155D01*
X64935499Y-43990153D01*
X99021500Y-43990153D01*
X99021500Y-44147846D01*
X99052261Y-44302489D01*
X99052264Y-44302501D01*
X99112602Y-44448172D01*
X99112609Y-44448185D01*
X99200210Y-44579288D01*
X99200213Y-44579292D01*
X99311707Y-44690786D01*
X99311711Y-44690789D01*
X99442814Y-44778390D01*
X99442827Y-44778397D01*
X99588498Y-44838735D01*
X99588503Y-44838737D01*
X99743153Y-44869499D01*
X99743156Y-44869500D01*
X99743158Y-44869500D01*
X99900844Y-44869500D01*
X99900845Y-44869499D01*
X100055497Y-44838737D01*
X100201179Y-44778394D01*
X100332289Y-44690789D01*
X100443789Y-44579289D01*
X100531394Y-44448179D01*
X100591737Y-44302497D01*
X100622500Y-44147842D01*
X100622500Y-43990158D01*
X100622500Y-43990155D01*
X100622499Y-43990153D01*
X100602457Y-43889397D01*
X100591737Y-43835503D01*
X100561456Y-43762397D01*
X100531397Y-43689827D01*
X100531390Y-43689814D01*
X100443789Y-43558711D01*
X100443786Y-43558707D01*
X100332292Y-43447213D01*
X100332288Y-43447210D01*
X100201185Y-43359609D01*
X100201172Y-43359602D01*
X100055501Y-43299264D01*
X100055489Y-43299261D01*
X99900845Y-43268500D01*
X99900842Y-43268500D01*
X99743158Y-43268500D01*
X99743155Y-43268500D01*
X99588510Y-43299261D01*
X99588498Y-43299264D01*
X99442827Y-43359602D01*
X99442814Y-43359609D01*
X99311711Y-43447210D01*
X99311707Y-43447213D01*
X99200213Y-43558707D01*
X99200210Y-43558711D01*
X99112609Y-43689814D01*
X99112602Y-43689827D01*
X99052264Y-43835498D01*
X99052261Y-43835510D01*
X99021500Y-43990153D01*
X64935499Y-43990153D01*
X64915457Y-43889397D01*
X64904737Y-43835503D01*
X64874456Y-43762397D01*
X64844397Y-43689827D01*
X64844390Y-43689814D01*
X64756789Y-43558711D01*
X64756786Y-43558707D01*
X64645292Y-43447213D01*
X64645288Y-43447210D01*
X64514185Y-43359609D01*
X64514172Y-43359602D01*
X64368501Y-43299264D01*
X64368489Y-43299261D01*
X64213845Y-43268500D01*
X64213842Y-43268500D01*
X64056158Y-43268500D01*
X64056155Y-43268500D01*
X63901510Y-43299261D01*
X63901498Y-43299264D01*
X63755827Y-43359602D01*
X63755814Y-43359609D01*
X63624711Y-43447210D01*
X63624707Y-43447213D01*
X63513213Y-43558707D01*
X63513210Y-43558711D01*
X63425609Y-43689814D01*
X63425602Y-43689827D01*
X63365264Y-43835498D01*
X63365261Y-43835510D01*
X63334500Y-43990153D01*
X45961459Y-43990153D01*
X46084235Y-43889393D01*
X46085673Y-43888213D01*
X46127970Y-43853500D01*
X46148580Y-43836586D01*
X46376586Y-43608580D01*
X46581146Y-43359324D01*
X46760289Y-43091217D01*
X46796892Y-43022736D01*
X46822861Y-42974153D01*
X56095500Y-42974153D01*
X56095500Y-43131846D01*
X56126261Y-43286489D01*
X56126264Y-43286501D01*
X56186602Y-43432172D01*
X56186609Y-43432185D01*
X56274210Y-43563288D01*
X56274213Y-43563292D01*
X56385707Y-43674786D01*
X56385711Y-43674789D01*
X56516814Y-43762390D01*
X56516827Y-43762397D01*
X56662498Y-43822735D01*
X56662503Y-43822737D01*
X56817153Y-43853499D01*
X56817156Y-43853500D01*
X56817158Y-43853500D01*
X56974844Y-43853500D01*
X56974845Y-43853499D01*
X57129497Y-43822737D01*
X57275179Y-43762394D01*
X57406289Y-43674789D01*
X57517789Y-43563289D01*
X57605394Y-43432179D01*
X57665737Y-43286497D01*
X57696500Y-43131842D01*
X57696500Y-43101153D01*
X91655500Y-43101153D01*
X91655500Y-43258846D01*
X91686261Y-43413489D01*
X91686264Y-43413501D01*
X91746602Y-43559172D01*
X91746609Y-43559185D01*
X91834210Y-43690288D01*
X91834213Y-43690292D01*
X91945707Y-43801786D01*
X91945711Y-43801789D01*
X92076814Y-43889390D01*
X92076827Y-43889397D01*
X92222498Y-43949735D01*
X92222503Y-43949737D01*
X92377153Y-43980499D01*
X92377156Y-43980500D01*
X92377158Y-43980500D01*
X92534844Y-43980500D01*
X92534845Y-43980499D01*
X92689497Y-43949737D01*
X92835179Y-43889394D01*
X92966289Y-43801789D01*
X93077789Y-43690289D01*
X93165394Y-43559179D01*
X93225737Y-43413497D01*
X93256500Y-43258842D01*
X93256500Y-43101158D01*
X93256500Y-43101155D01*
X93256499Y-43101153D01*
X93225738Y-42946510D01*
X93225737Y-42946503D01*
X93210457Y-42909613D01*
X93165397Y-42800827D01*
X93165390Y-42800814D01*
X93077789Y-42669711D01*
X93077786Y-42669707D01*
X92966292Y-42558213D01*
X92966288Y-42558210D01*
X92835185Y-42470609D01*
X92835172Y-42470602D01*
X92689501Y-42410264D01*
X92689489Y-42410261D01*
X92534845Y-42379500D01*
X92534842Y-42379500D01*
X92377158Y-42379500D01*
X92377155Y-42379500D01*
X92222510Y-42410261D01*
X92222498Y-42410264D01*
X92076827Y-42470602D01*
X92076814Y-42470609D01*
X91945711Y-42558210D01*
X91945707Y-42558213D01*
X91834213Y-42669707D01*
X91834210Y-42669711D01*
X91746609Y-42800814D01*
X91746602Y-42800827D01*
X91686264Y-42946498D01*
X91686261Y-42946510D01*
X91655500Y-43101153D01*
X57696500Y-43101153D01*
X57696500Y-42974158D01*
X57696500Y-42974155D01*
X57696499Y-42974153D01*
X57665738Y-42819510D01*
X57665737Y-42819503D01*
X57657996Y-42800814D01*
X57605397Y-42673827D01*
X57605390Y-42673814D01*
X57517789Y-42542711D01*
X57517786Y-42542707D01*
X57406292Y-42431213D01*
X57406288Y-42431210D01*
X57275185Y-42343609D01*
X57275172Y-42343602D01*
X57129501Y-42283264D01*
X57129489Y-42283261D01*
X56974845Y-42252500D01*
X56974842Y-42252500D01*
X56817158Y-42252500D01*
X56817155Y-42252500D01*
X56662510Y-42283261D01*
X56662498Y-42283264D01*
X56516827Y-42343602D01*
X56516814Y-42343609D01*
X56385711Y-42431210D01*
X56385707Y-42431213D01*
X56274213Y-42542707D01*
X56274210Y-42542711D01*
X56186609Y-42673814D01*
X56186602Y-42673827D01*
X56126264Y-42819498D01*
X56126261Y-42819510D01*
X56095500Y-42974153D01*
X46822861Y-42974153D01*
X46857359Y-42909613D01*
X46912286Y-42806850D01*
X46912290Y-42806843D01*
X47035686Y-42508939D01*
X47129288Y-42200374D01*
X47192195Y-41884121D01*
X47223800Y-41563225D01*
X47223800Y-41240775D01*
X47192195Y-40919879D01*
X47129288Y-40603626D01*
X47116404Y-40561153D01*
X49999500Y-40561153D01*
X49999500Y-40718846D01*
X50030261Y-40873489D01*
X50030264Y-40873501D01*
X50090602Y-41019172D01*
X50090609Y-41019185D01*
X50178210Y-41150288D01*
X50178213Y-41150292D01*
X50289707Y-41261786D01*
X50289711Y-41261789D01*
X50420814Y-41349390D01*
X50420827Y-41349397D01*
X50566498Y-41409735D01*
X50566503Y-41409737D01*
X50721153Y-41440499D01*
X50721156Y-41440500D01*
X50721158Y-41440500D01*
X50878844Y-41440500D01*
X50878845Y-41440499D01*
X51033497Y-41409737D01*
X51179179Y-41349394D01*
X51310289Y-41261789D01*
X51421789Y-41150289D01*
X51509394Y-41019179D01*
X51569737Y-40873497D01*
X51600500Y-40718842D01*
X51600500Y-40561158D01*
X51600500Y-40561155D01*
X51600499Y-40561153D01*
X55079500Y-40561153D01*
X55079500Y-40718846D01*
X55110261Y-40873489D01*
X55110264Y-40873501D01*
X55170602Y-41019172D01*
X55170609Y-41019185D01*
X55258210Y-41150288D01*
X55258213Y-41150292D01*
X55369707Y-41261786D01*
X55369711Y-41261789D01*
X55500814Y-41349390D01*
X55500827Y-41349397D01*
X55646498Y-41409735D01*
X55646503Y-41409737D01*
X55801153Y-41440499D01*
X55801156Y-41440500D01*
X55801158Y-41440500D01*
X55958844Y-41440500D01*
X55958845Y-41440499D01*
X56113497Y-41409737D01*
X56259179Y-41349394D01*
X56390289Y-41261789D01*
X56501789Y-41150289D01*
X56589394Y-41019179D01*
X56649737Y-40873497D01*
X56680500Y-40718842D01*
X56680500Y-40561158D01*
X56680500Y-40561155D01*
X56680499Y-40561153D01*
X60159500Y-40561153D01*
X60159500Y-40718846D01*
X60190261Y-40873489D01*
X60190264Y-40873501D01*
X60250602Y-41019172D01*
X60250609Y-41019185D01*
X60338210Y-41150288D01*
X60338213Y-41150292D01*
X60449707Y-41261786D01*
X60449711Y-41261789D01*
X60580814Y-41349390D01*
X60580827Y-41349397D01*
X60726498Y-41409735D01*
X60726503Y-41409737D01*
X60881153Y-41440499D01*
X60881156Y-41440500D01*
X60881158Y-41440500D01*
X61038844Y-41440500D01*
X61038845Y-41440499D01*
X61193497Y-41409737D01*
X61339179Y-41349394D01*
X61470289Y-41261789D01*
X61581789Y-41150289D01*
X61669394Y-41019179D01*
X61729737Y-40873497D01*
X61760500Y-40718842D01*
X61760500Y-40561158D01*
X61760500Y-40561155D01*
X61760499Y-40561153D01*
X65239500Y-40561153D01*
X65239500Y-40718846D01*
X65270261Y-40873489D01*
X65270264Y-40873501D01*
X65330602Y-41019172D01*
X65330609Y-41019185D01*
X65418210Y-41150288D01*
X65418213Y-41150292D01*
X65529707Y-41261786D01*
X65529711Y-41261789D01*
X65660814Y-41349390D01*
X65660827Y-41349397D01*
X65806498Y-41409735D01*
X65806503Y-41409737D01*
X65961153Y-41440499D01*
X65961156Y-41440500D01*
X65961158Y-41440500D01*
X66118844Y-41440500D01*
X66118845Y-41440499D01*
X66273497Y-41409737D01*
X66419179Y-41349394D01*
X66550289Y-41261789D01*
X66661789Y-41150289D01*
X66749394Y-41019179D01*
X66809737Y-40873497D01*
X66840500Y-40718842D01*
X66840500Y-40561158D01*
X66840500Y-40561155D01*
X66840499Y-40561153D01*
X70319500Y-40561153D01*
X70319500Y-40718846D01*
X70350261Y-40873489D01*
X70350264Y-40873501D01*
X70410602Y-41019172D01*
X70410609Y-41019185D01*
X70498210Y-41150288D01*
X70498213Y-41150292D01*
X70609707Y-41261786D01*
X70609711Y-41261789D01*
X70740814Y-41349390D01*
X70740827Y-41349397D01*
X70886498Y-41409735D01*
X70886503Y-41409737D01*
X71041153Y-41440499D01*
X71041156Y-41440500D01*
X71041158Y-41440500D01*
X71198844Y-41440500D01*
X71198845Y-41440499D01*
X71353497Y-41409737D01*
X71499179Y-41349394D01*
X71630289Y-41261789D01*
X71741789Y-41150289D01*
X71829394Y-41019179D01*
X71889737Y-40873497D01*
X71920500Y-40718842D01*
X71920500Y-40561158D01*
X71920500Y-40561155D01*
X71920499Y-40561153D01*
X75399500Y-40561153D01*
X75399500Y-40718846D01*
X75430261Y-40873489D01*
X75430264Y-40873501D01*
X75490602Y-41019172D01*
X75490609Y-41019185D01*
X75578210Y-41150288D01*
X75578213Y-41150292D01*
X75689707Y-41261786D01*
X75689711Y-41261789D01*
X75820814Y-41349390D01*
X75820827Y-41349397D01*
X75966498Y-41409735D01*
X75966503Y-41409737D01*
X76121153Y-41440499D01*
X76121156Y-41440500D01*
X76121158Y-41440500D01*
X76278844Y-41440500D01*
X76278845Y-41440499D01*
X76433497Y-41409737D01*
X76579179Y-41349394D01*
X76710289Y-41261789D01*
X76821789Y-41150289D01*
X76909394Y-41019179D01*
X76969737Y-40873497D01*
X77000500Y-40718842D01*
X77000500Y-40561158D01*
X77000500Y-40561155D01*
X77000499Y-40561153D01*
X80479500Y-40561153D01*
X80479500Y-40718846D01*
X80510261Y-40873489D01*
X80510264Y-40873501D01*
X80570602Y-41019172D01*
X80570609Y-41019185D01*
X80658210Y-41150288D01*
X80658213Y-41150292D01*
X80769707Y-41261786D01*
X80769711Y-41261789D01*
X80900814Y-41349390D01*
X80900827Y-41349397D01*
X81046498Y-41409735D01*
X81046503Y-41409737D01*
X81201153Y-41440499D01*
X81201156Y-41440500D01*
X81201158Y-41440500D01*
X81358844Y-41440500D01*
X81358845Y-41440499D01*
X81513497Y-41409737D01*
X81659179Y-41349394D01*
X81790289Y-41261789D01*
X81901789Y-41150289D01*
X81989394Y-41019179D01*
X82049737Y-40873497D01*
X82080500Y-40718842D01*
X82080500Y-40561158D01*
X82080500Y-40561155D01*
X82080499Y-40561153D01*
X85559500Y-40561153D01*
X85559500Y-40718846D01*
X85590261Y-40873489D01*
X85590264Y-40873501D01*
X85650602Y-41019172D01*
X85650609Y-41019185D01*
X85738210Y-41150288D01*
X85738213Y-41150292D01*
X85849707Y-41261786D01*
X85849711Y-41261789D01*
X85980814Y-41349390D01*
X85980827Y-41349397D01*
X86126498Y-41409735D01*
X86126503Y-41409737D01*
X86281153Y-41440499D01*
X86281156Y-41440500D01*
X86281158Y-41440500D01*
X86438844Y-41440500D01*
X86438845Y-41440499D01*
X86593497Y-41409737D01*
X86739179Y-41349394D01*
X86870289Y-41261789D01*
X86981789Y-41150289D01*
X87069394Y-41019179D01*
X87129737Y-40873497D01*
X87160500Y-40718842D01*
X87160500Y-40561158D01*
X87160500Y-40561155D01*
X87160499Y-40561153D01*
X90639500Y-40561153D01*
X90639500Y-40718846D01*
X90670261Y-40873489D01*
X90670264Y-40873501D01*
X90730602Y-41019172D01*
X90730609Y-41019185D01*
X90818210Y-41150288D01*
X90818213Y-41150292D01*
X90929707Y-41261786D01*
X90929711Y-41261789D01*
X91060814Y-41349390D01*
X91060827Y-41349397D01*
X91206498Y-41409735D01*
X91206503Y-41409737D01*
X91361153Y-41440499D01*
X91361156Y-41440500D01*
X91361158Y-41440500D01*
X91518844Y-41440500D01*
X91518845Y-41440499D01*
X91673497Y-41409737D01*
X91819179Y-41349394D01*
X91950289Y-41261789D01*
X92061789Y-41150289D01*
X92149394Y-41019179D01*
X92209737Y-40873497D01*
X92240500Y-40718842D01*
X92240500Y-40561158D01*
X92240500Y-40561155D01*
X92240499Y-40561153D01*
X95719500Y-40561153D01*
X95719500Y-40718846D01*
X95750261Y-40873489D01*
X95750264Y-40873501D01*
X95810602Y-41019172D01*
X95810609Y-41019185D01*
X95898210Y-41150288D01*
X95898213Y-41150292D01*
X96009707Y-41261786D01*
X96009711Y-41261789D01*
X96140814Y-41349390D01*
X96140827Y-41349397D01*
X96286498Y-41409735D01*
X96286503Y-41409737D01*
X96441153Y-41440499D01*
X96441156Y-41440500D01*
X96441158Y-41440500D01*
X96598844Y-41440500D01*
X96598845Y-41440499D01*
X96753497Y-41409737D01*
X96899179Y-41349394D01*
X97030289Y-41261789D01*
X97141789Y-41150289D01*
X97229394Y-41019179D01*
X97289737Y-40873497D01*
X97320500Y-40718842D01*
X97320500Y-40561158D01*
X97320500Y-40561155D01*
X97320499Y-40561153D01*
X100799500Y-40561153D01*
X100799500Y-40718846D01*
X100830261Y-40873489D01*
X100830264Y-40873501D01*
X100890602Y-41019172D01*
X100890609Y-41019185D01*
X100978210Y-41150288D01*
X100978213Y-41150292D01*
X101089707Y-41261786D01*
X101089711Y-41261789D01*
X101220814Y-41349390D01*
X101220827Y-41349397D01*
X101366498Y-41409735D01*
X101366503Y-41409737D01*
X101521153Y-41440499D01*
X101521156Y-41440500D01*
X101521158Y-41440500D01*
X101678844Y-41440500D01*
X101678845Y-41440499D01*
X101833497Y-41409737D01*
X101979179Y-41349394D01*
X102110289Y-41261789D01*
X102221789Y-41150289D01*
X102309394Y-41019179D01*
X102369737Y-40873497D01*
X102400500Y-40718842D01*
X102400500Y-40561158D01*
X102400500Y-40561155D01*
X102400499Y-40561153D01*
X102369737Y-40406503D01*
X102323576Y-40295059D01*
X102309397Y-40260827D01*
X102309390Y-40260814D01*
X102221789Y-40129711D01*
X102221786Y-40129707D01*
X102110292Y-40018213D01*
X102110288Y-40018210D01*
X101979185Y-39930609D01*
X101979172Y-39930602D01*
X101833501Y-39870264D01*
X101833489Y-39870261D01*
X101678845Y-39839500D01*
X101678842Y-39839500D01*
X101521158Y-39839500D01*
X101521155Y-39839500D01*
X101366510Y-39870261D01*
X101366498Y-39870264D01*
X101220827Y-39930602D01*
X101220814Y-39930609D01*
X101089711Y-40018210D01*
X101089707Y-40018213D01*
X100978213Y-40129707D01*
X100978210Y-40129711D01*
X100890609Y-40260814D01*
X100890602Y-40260827D01*
X100830264Y-40406498D01*
X100830261Y-40406510D01*
X100799500Y-40561153D01*
X97320499Y-40561153D01*
X97289737Y-40406503D01*
X97243576Y-40295059D01*
X97229397Y-40260827D01*
X97229390Y-40260814D01*
X97141789Y-40129711D01*
X97141786Y-40129707D01*
X97030292Y-40018213D01*
X97030288Y-40018210D01*
X96899185Y-39930609D01*
X96899172Y-39930602D01*
X96753501Y-39870264D01*
X96753489Y-39870261D01*
X96598845Y-39839500D01*
X96598842Y-39839500D01*
X96441158Y-39839500D01*
X96441155Y-39839500D01*
X96286510Y-39870261D01*
X96286498Y-39870264D01*
X96140827Y-39930602D01*
X96140814Y-39930609D01*
X96009711Y-40018210D01*
X96009707Y-40018213D01*
X95898213Y-40129707D01*
X95898210Y-40129711D01*
X95810609Y-40260814D01*
X95810602Y-40260827D01*
X95750264Y-40406498D01*
X95750261Y-40406510D01*
X95719500Y-40561153D01*
X92240499Y-40561153D01*
X92209737Y-40406503D01*
X92163576Y-40295059D01*
X92149397Y-40260827D01*
X92149390Y-40260814D01*
X92061789Y-40129711D01*
X92061786Y-40129707D01*
X91950292Y-40018213D01*
X91950288Y-40018210D01*
X91819185Y-39930609D01*
X91819172Y-39930602D01*
X91673501Y-39870264D01*
X91673489Y-39870261D01*
X91518845Y-39839500D01*
X91518842Y-39839500D01*
X91361158Y-39839500D01*
X91361155Y-39839500D01*
X91206510Y-39870261D01*
X91206498Y-39870264D01*
X91060827Y-39930602D01*
X91060814Y-39930609D01*
X90929711Y-40018210D01*
X90929707Y-40018213D01*
X90818213Y-40129707D01*
X90818210Y-40129711D01*
X90730609Y-40260814D01*
X90730602Y-40260827D01*
X90670264Y-40406498D01*
X90670261Y-40406510D01*
X90639500Y-40561153D01*
X87160499Y-40561153D01*
X87129737Y-40406503D01*
X87083576Y-40295059D01*
X87069397Y-40260827D01*
X87069390Y-40260814D01*
X86981789Y-40129711D01*
X86981786Y-40129707D01*
X86870292Y-40018213D01*
X86870288Y-40018210D01*
X86739185Y-39930609D01*
X86739172Y-39930602D01*
X86593501Y-39870264D01*
X86593489Y-39870261D01*
X86438845Y-39839500D01*
X86438842Y-39839500D01*
X86281158Y-39839500D01*
X86281155Y-39839500D01*
X86126510Y-39870261D01*
X86126498Y-39870264D01*
X85980827Y-39930602D01*
X85980814Y-39930609D01*
X85849711Y-40018210D01*
X85849707Y-40018213D01*
X85738213Y-40129707D01*
X85738210Y-40129711D01*
X85650609Y-40260814D01*
X85650602Y-40260827D01*
X85590264Y-40406498D01*
X85590261Y-40406510D01*
X85559500Y-40561153D01*
X82080499Y-40561153D01*
X82049737Y-40406503D01*
X82003576Y-40295059D01*
X81989397Y-40260827D01*
X81989390Y-40260814D01*
X81901789Y-40129711D01*
X81901786Y-40129707D01*
X81790292Y-40018213D01*
X81790288Y-40018210D01*
X81659185Y-39930609D01*
X81659172Y-39930602D01*
X81513501Y-39870264D01*
X81513489Y-39870261D01*
X81358845Y-39839500D01*
X81358842Y-39839500D01*
X81201158Y-39839500D01*
X81201155Y-39839500D01*
X81046510Y-39870261D01*
X81046498Y-39870264D01*
X80900827Y-39930602D01*
X80900814Y-39930609D01*
X80769711Y-40018210D01*
X80769707Y-40018213D01*
X80658213Y-40129707D01*
X80658210Y-40129711D01*
X80570609Y-40260814D01*
X80570602Y-40260827D01*
X80510264Y-40406498D01*
X80510261Y-40406510D01*
X80479500Y-40561153D01*
X77000499Y-40561153D01*
X76969737Y-40406503D01*
X76923576Y-40295059D01*
X76909397Y-40260827D01*
X76909390Y-40260814D01*
X76821789Y-40129711D01*
X76821786Y-40129707D01*
X76710292Y-40018213D01*
X76710288Y-40018210D01*
X76579185Y-39930609D01*
X76579172Y-39930602D01*
X76433501Y-39870264D01*
X76433489Y-39870261D01*
X76278845Y-39839500D01*
X76278842Y-39839500D01*
X76121158Y-39839500D01*
X76121155Y-39839500D01*
X75966510Y-39870261D01*
X75966498Y-39870264D01*
X75820827Y-39930602D01*
X75820814Y-39930609D01*
X75689711Y-40018210D01*
X75689707Y-40018213D01*
X75578213Y-40129707D01*
X75578210Y-40129711D01*
X75490609Y-40260814D01*
X75490602Y-40260827D01*
X75430264Y-40406498D01*
X75430261Y-40406510D01*
X75399500Y-40561153D01*
X71920499Y-40561153D01*
X71889737Y-40406503D01*
X71843576Y-40295059D01*
X71829397Y-40260827D01*
X71829390Y-40260814D01*
X71741789Y-40129711D01*
X71741786Y-40129707D01*
X71630292Y-40018213D01*
X71630288Y-40018210D01*
X71499185Y-39930609D01*
X71499172Y-39930602D01*
X71353501Y-39870264D01*
X71353489Y-39870261D01*
X71198845Y-39839500D01*
X71198842Y-39839500D01*
X71041158Y-39839500D01*
X71041155Y-39839500D01*
X70886510Y-39870261D01*
X70886498Y-39870264D01*
X70740827Y-39930602D01*
X70740814Y-39930609D01*
X70609711Y-40018210D01*
X70609707Y-40018213D01*
X70498213Y-40129707D01*
X70498210Y-40129711D01*
X70410609Y-40260814D01*
X70410602Y-40260827D01*
X70350264Y-40406498D01*
X70350261Y-40406510D01*
X70319500Y-40561153D01*
X66840499Y-40561153D01*
X66809737Y-40406503D01*
X66763576Y-40295059D01*
X66749397Y-40260827D01*
X66749390Y-40260814D01*
X66661789Y-40129711D01*
X66661786Y-40129707D01*
X66550292Y-40018213D01*
X66550288Y-40018210D01*
X66419185Y-39930609D01*
X66419172Y-39930602D01*
X66273501Y-39870264D01*
X66273489Y-39870261D01*
X66118845Y-39839500D01*
X66118842Y-39839500D01*
X65961158Y-39839500D01*
X65961155Y-39839500D01*
X65806510Y-39870261D01*
X65806498Y-39870264D01*
X65660827Y-39930602D01*
X65660814Y-39930609D01*
X65529711Y-40018210D01*
X65529707Y-40018213D01*
X65418213Y-40129707D01*
X65418210Y-40129711D01*
X65330609Y-40260814D01*
X65330602Y-40260827D01*
X65270264Y-40406498D01*
X65270261Y-40406510D01*
X65239500Y-40561153D01*
X61760499Y-40561153D01*
X61729737Y-40406503D01*
X61683576Y-40295059D01*
X61669397Y-40260827D01*
X61669390Y-40260814D01*
X61581789Y-40129711D01*
X61581786Y-40129707D01*
X61470292Y-40018213D01*
X61470288Y-40018210D01*
X61339185Y-39930609D01*
X61339172Y-39930602D01*
X61193501Y-39870264D01*
X61193489Y-39870261D01*
X61038845Y-39839500D01*
X61038842Y-39839500D01*
X60881158Y-39839500D01*
X60881155Y-39839500D01*
X60726510Y-39870261D01*
X60726498Y-39870264D01*
X60580827Y-39930602D01*
X60580814Y-39930609D01*
X60449711Y-40018210D01*
X60449707Y-40018213D01*
X60338213Y-40129707D01*
X60338210Y-40129711D01*
X60250609Y-40260814D01*
X60250602Y-40260827D01*
X60190264Y-40406498D01*
X60190261Y-40406510D01*
X60159500Y-40561153D01*
X56680499Y-40561153D01*
X56649737Y-40406503D01*
X56603576Y-40295059D01*
X56589397Y-40260827D01*
X56589390Y-40260814D01*
X56501789Y-40129711D01*
X56501786Y-40129707D01*
X56390292Y-40018213D01*
X56390288Y-40018210D01*
X56259185Y-39930609D01*
X56259172Y-39930602D01*
X56113501Y-39870264D01*
X56113489Y-39870261D01*
X55958845Y-39839500D01*
X55958842Y-39839500D01*
X55801158Y-39839500D01*
X55801155Y-39839500D01*
X55646510Y-39870261D01*
X55646498Y-39870264D01*
X55500827Y-39930602D01*
X55500814Y-39930609D01*
X55369711Y-40018210D01*
X55369707Y-40018213D01*
X55258213Y-40129707D01*
X55258210Y-40129711D01*
X55170609Y-40260814D01*
X55170602Y-40260827D01*
X55110264Y-40406498D01*
X55110261Y-40406510D01*
X55079500Y-40561153D01*
X51600499Y-40561153D01*
X51569737Y-40406503D01*
X51523576Y-40295059D01*
X51509397Y-40260827D01*
X51509390Y-40260814D01*
X51421789Y-40129711D01*
X51421786Y-40129707D01*
X51310292Y-40018213D01*
X51310288Y-40018210D01*
X51179185Y-39930609D01*
X51179172Y-39930602D01*
X51033501Y-39870264D01*
X51033489Y-39870261D01*
X50878845Y-39839500D01*
X50878842Y-39839500D01*
X50721158Y-39839500D01*
X50721155Y-39839500D01*
X50566510Y-39870261D01*
X50566498Y-39870264D01*
X50420827Y-39930602D01*
X50420814Y-39930609D01*
X50289711Y-40018210D01*
X50289707Y-40018213D01*
X50178213Y-40129707D01*
X50178210Y-40129711D01*
X50090609Y-40260814D01*
X50090602Y-40260827D01*
X50030264Y-40406498D01*
X50030261Y-40406510D01*
X49999500Y-40561153D01*
X47116404Y-40561153D01*
X47035686Y-40295061D01*
X46912290Y-39997157D01*
X46876719Y-39930609D01*
X46760295Y-39712794D01*
X46760294Y-39712792D01*
X46760289Y-39712783D01*
X46581146Y-39444676D01*
X46376586Y-39195420D01*
X46376585Y-39195419D01*
X46376581Y-39195414D01*
X46148585Y-38967418D01*
X45969386Y-38820353D01*
X45930052Y-38762607D01*
X45928181Y-38692763D01*
X45964369Y-38632995D01*
X46027124Y-38602279D01*
X46048051Y-38600500D01*
X108891949Y-38600500D01*
X108958988Y-38620185D01*
G37*
%TD.AperFunction*%
%TD*%
M02*
